<svg width="390" height="5013" viewBox="0 0 390 5013" fill="none" xmlns="http://www.w3.org/2000/svg">
<g opacity="0.2" filter="url(#filter0_f_106_2)">
<circle cx="-7" cy="4120" r="125" fill="url(#paint0_linear_106_2)"/>
<circle cx="-7" cy="4120" r="124.5" stroke="black"/>
</g>
<g opacity="0.2" filter="url(#filter1_f_106_2)">
<circle cx="391" cy="4406" r="125" fill="url(#paint1_linear_106_2)"/>
<circle cx="391" cy="4406" r="124.5" stroke="black"/>
</g>
<g opacity="0.2" filter="url(#filter2_f_106_2)">
<circle cx="30" cy="4677" r="125" fill="url(#paint2_linear_106_2)"/>
<circle cx="30" cy="4677" r="124.5" stroke="black"/>
</g>
<g opacity="0.2" filter="url(#filter3_f_106_2)">
<circle cx="398" cy="4884" r="125" fill="url(#paint3_linear_106_2)"/>
<circle cx="398" cy="4884" r="124.5" stroke="black"/>
</g>
<g opacity="0.2" filter="url(#filter4_f_106_2)">
<circle cx="378" cy="3015" r="125" fill="url(#paint4_linear_106_2)"/>
<circle cx="378" cy="3015" r="124.5" stroke="black"/>
</g>
<g opacity="0.2" filter="url(#filter5_f_106_2)">
<circle cx="4" cy="3433" r="125" fill="url(#paint5_linear_106_2)"/>
<circle cx="4" cy="3433" r="124.5" stroke="black"/>
</g>
<g opacity="0.2" filter="url(#filter6_f_106_2)">
<circle cx="426" cy="3808" r="125" fill="url(#paint6_linear_106_2)"/>
<circle cx="426" cy="3808" r="124.5" stroke="black"/>
</g>
<g opacity="0.2" filter="url(#filter7_f_106_2)">
<circle cx="358" cy="2390" r="125" fill="url(#paint7_linear_106_2)"/>
<circle cx="358" cy="2390" r="124.5" stroke="black"/>
</g>
<g opacity="0.2" filter="url(#filter8_f_106_2)">
<circle cx="-45" cy="2758" r="125" fill="url(#paint8_linear_106_2)"/>
<circle cx="-45" cy="2758" r="124.5" stroke="black"/>
</g>
<g opacity="0.2" filter="url(#filter9_f_106_2)">
<circle cx="376" cy="481" r="125" fill="url(#paint9_linear_106_2)"/>
<circle cx="376" cy="481" r="124.5" stroke="black"/>
</g>
<g opacity="0.2" filter="url(#filter10_f_106_2)">
<path d="M136.5 760.5C136.5 829.536 80.5356 885.5 11.5 885.5C-57.5356 885.5 -113.5 829.536 -113.5 760.5C-113.5 691.464 -57.5356 635.5 11.5 635.5C80.5356 635.5 136.5 691.464 136.5 760.5Z" fill="url(#paint10_linear_106_2)"/>
<path d="M136 760.5C136 829.259 80.2595 885 11.5 885C-57.2595 885 -113 829.259 -113 760.5C-113 691.741 -57.2595 636 11.5 636C80.2595 636 136 691.741 136 760.5Z" stroke="black"/>
</g>
<g opacity="0.2" filter="url(#filter11_f_106_2)">
<path d="M562 1025C562 1094.04 506.036 1150 437 1150C367.964 1150 312 1094.04 312 1025C312 955.964 367.964 900 437 900C506.036 900 562 955.964 562 1025Z" fill="url(#paint11_linear_106_2)"/>
<path d="M561.5 1025C561.5 1093.76 505.759 1149.5 437 1149.5C368.241 1149.5 312.5 1093.76 312.5 1025C312.5 956.241 368.241 900.5 437 900.5C505.759 900.5 561.5 956.241 561.5 1025Z" stroke="black"/>
</g>
<g opacity="0.2" filter="url(#filter12_f_106_2)">
<path d="M72.9998 1396C72.9998 1465.04 17.0354 1521 -52.0002 1521C-121.036 1521 -177 1465.04 -177 1396C-177 1326.96 -121.036 1271 -52.0002 1271C17.0354 1271 72.9998 1326.96 72.9998 1396Z" fill="url(#paint12_linear_106_2)"/>
<path d="M72.4998 1396C72.4998 1464.76 16.7592 1520.5 -52.0002 1520.5C-120.76 1520.5 -176.5 1464.76 -176.5 1396C-176.5 1327.24 -120.76 1271.5 -52.0002 1271.5C16.7592 1271.5 72.4998 1327.24 72.4998 1396Z" stroke="black"/>
</g>
<g opacity="0.2" filter="url(#filter13_f_106_2)">
<path d="M528 1877C528 1946.04 472.036 2002 403 2002C333.964 2002 278 1946.04 278 1877C278 1807.96 333.964 1752 403 1752C472.036 1752 528 1807.96 528 1877Z" fill="url(#paint13_linear_106_2)"/>
<path d="M527.5 1877C527.5 1945.76 471.759 2001.5 403 2001.5C334.241 2001.5 278.5 1945.76 278.5 1877C278.5 1808.24 334.241 1752.5 403 1752.5C471.759 1752.5 527.5 1808.24 527.5 1877Z" stroke="black"/>
</g>
<g opacity="0.2" filter="url(#filter14_f_106_2)">
<circle cx="65.8083" cy="20.8083" r="125" transform="rotate(39 65.8083 20.8083)" fill="url(#paint14_linear_106_2)"/>
<circle cx="65.8083" cy="20.8083" r="124.5" transform="rotate(39 65.8083 20.8083)" stroke="black"/>
</g>
<defs>
<filter id="filter0_f_106_2" x="-136" y="3991" width="258" height="258" filterUnits="userSpaceOnUse" color-interpolation-filters="sRGB">
<feFlood flood-opacity="0" result="BackgroundImageFix"/>
<feBlend mode="normal" in="SourceGraphic" in2="BackgroundImageFix" result="shape"/>
<feGaussianBlur stdDeviation="2" result="effect1_foregroundBlur_106_2"/>
</filter>
<filter id="filter1_f_106_2" x="262" y="4277" width="258" height="258" filterUnits="userSpaceOnUse" color-interpolation-filters="sRGB">
<feFlood flood-opacity="0" result="BackgroundImageFix"/>
<feBlend mode="normal" in="SourceGraphic" in2="BackgroundImageFix" result="shape"/>
<feGaussianBlur stdDeviation="2" result="effect1_foregroundBlur_106_2"/>
</filter>
<filter id="filter2_f_106_2" x="-99" y="4548" width="258" height="258" filterUnits="userSpaceOnUse" color-interpolation-filters="sRGB">
<feFlood flood-opacity="0" result="BackgroundImageFix"/>
<feBlend mode="normal" in="SourceGraphic" in2="BackgroundImageFix" result="shape"/>
<feGaussianBlur stdDeviation="2" result="effect1_foregroundBlur_106_2"/>
</filter>
<filter id="filter3_f_106_2" x="269" y="4755" width="258" height="258" filterUnits="userSpaceOnUse" color-interpolation-filters="sRGB">
<feFlood flood-opacity="0" result="BackgroundImageFix"/>
<feBlend mode="normal" in="SourceGraphic" in2="BackgroundImageFix" result="shape"/>
<feGaussianBlur stdDeviation="2" result="effect1_foregroundBlur_106_2"/>
</filter>
<filter id="filter4_f_106_2" x="249" y="2886" width="258" height="258" filterUnits="userSpaceOnUse" color-interpolation-filters="sRGB">
<feFlood flood-opacity="0" result="BackgroundImageFix"/>
<feBlend mode="normal" in="SourceGraphic" in2="BackgroundImageFix" result="shape"/>
<feGaussianBlur stdDeviation="2" result="effect1_foregroundBlur_106_2"/>
</filter>
<filter id="filter5_f_106_2" x="-125" y="3304" width="258" height="258" filterUnits="userSpaceOnUse" color-interpolation-filters="sRGB">
<feFlood flood-opacity="0" result="BackgroundImageFix"/>
<feBlend mode="normal" in="SourceGraphic" in2="BackgroundImageFix" result="shape"/>
<feGaussianBlur stdDeviation="2" result="effect1_foregroundBlur_106_2"/>
</filter>
<filter id="filter6_f_106_2" x="297" y="3679" width="258" height="258" filterUnits="userSpaceOnUse" color-interpolation-filters="sRGB">
<feFlood flood-opacity="0" result="BackgroundImageFix"/>
<feBlend mode="normal" in="SourceGraphic" in2="BackgroundImageFix" result="shape"/>
<feGaussianBlur stdDeviation="2" result="effect1_foregroundBlur_106_2"/>
</filter>
<filter id="filter7_f_106_2" x="229" y="2261" width="258" height="258" filterUnits="userSpaceOnUse" color-interpolation-filters="sRGB">
<feFlood flood-opacity="0" result="BackgroundImageFix"/>
<feBlend mode="normal" in="SourceGraphic" in2="BackgroundImageFix" result="shape"/>
<feGaussianBlur stdDeviation="2" result="effect1_foregroundBlur_106_2"/>
</filter>
<filter id="filter8_f_106_2" x="-174" y="2629" width="258" height="258" filterUnits="userSpaceOnUse" color-interpolation-filters="sRGB">
<feFlood flood-opacity="0" result="BackgroundImageFix"/>
<feBlend mode="normal" in="SourceGraphic" in2="BackgroundImageFix" result="shape"/>
<feGaussianBlur stdDeviation="2" result="effect1_foregroundBlur_106_2"/>
</filter>
<filter id="filter9_f_106_2" x="247" y="352" width="258" height="258" filterUnits="userSpaceOnUse" color-interpolation-filters="sRGB">
<feFlood flood-opacity="0" result="BackgroundImageFix"/>
<feBlend mode="normal" in="SourceGraphic" in2="BackgroundImageFix" result="shape"/>
<feGaussianBlur stdDeviation="2" result="effect1_foregroundBlur_106_2"/>
</filter>
<filter id="filter10_f_106_2" x="-117.5" y="631.5" width="258" height="258" filterUnits="userSpaceOnUse" color-interpolation-filters="sRGB">
<feFlood flood-opacity="0" result="BackgroundImageFix"/>
<feBlend mode="normal" in="SourceGraphic" in2="BackgroundImageFix" result="shape"/>
<feGaussianBlur stdDeviation="2" result="effect1_foregroundBlur_106_2"/>
</filter>
<filter id="filter11_f_106_2" x="308" y="896" width="258" height="258" filterUnits="userSpaceOnUse" color-interpolation-filters="sRGB">
<feFlood flood-opacity="0" result="BackgroundImageFix"/>
<feBlend mode="normal" in="SourceGraphic" in2="BackgroundImageFix" result="shape"/>
<feGaussianBlur stdDeviation="2" result="effect1_foregroundBlur_106_2"/>
</filter>
<filter id="filter12_f_106_2" x="-181" y="1267" width="258" height="258" filterUnits="userSpaceOnUse" color-interpolation-filters="sRGB">
<feFlood flood-opacity="0" result="BackgroundImageFix"/>
<feBlend mode="normal" in="SourceGraphic" in2="BackgroundImageFix" result="shape"/>
<feGaussianBlur stdDeviation="2" result="effect1_foregroundBlur_106_2"/>
</filter>
<filter id="filter13_f_106_2" x="274" y="1748" width="258" height="258" filterUnits="userSpaceOnUse" color-interpolation-filters="sRGB">
<feFlood flood-opacity="0" result="BackgroundImageFix"/>
<feBlend mode="normal" in="SourceGraphic" in2="BackgroundImageFix" result="shape"/>
<feGaussianBlur stdDeviation="2" result="effect1_foregroundBlur_106_2"/>
</filter>
<filter id="filter14_f_106_2" x="-63.1959" y="-108.196" width="258.008" height="258.008" filterUnits="userSpaceOnUse" color-interpolation-filters="sRGB">
<feFlood flood-opacity="0" result="BackgroundImageFix"/>
<feBlend mode="normal" in="SourceGraphic" in2="BackgroundImageFix" result="shape"/>
<feGaussianBlur stdDeviation="2" result="effect1_foregroundBlur_106_2"/>
</filter>
<linearGradient id="paint0_linear_106_2" x1="-6.99999" y1="3995" x2="-6.99999" y2="4245" gradientUnits="userSpaceOnUse">
<stop stop-color="#80D7DA"/>
<stop offset="1" stop-color="#FF89CA"/>
</linearGradient>
<linearGradient id="paint1_linear_106_2" x1="391" y1="4281" x2="391" y2="4531" gradientUnits="userSpaceOnUse">
<stop stop-color="#80D7DA"/>
<stop offset="1" stop-color="#FF89CA"/>
</linearGradient>
<linearGradient id="paint2_linear_106_2" x1="30" y1="4552" x2="30" y2="4802" gradientUnits="userSpaceOnUse">
<stop stop-color="#80D7DA"/>
<stop offset="1" stop-color="#FF89CA"/>
</linearGradient>
<linearGradient id="paint3_linear_106_2" x1="398" y1="4759" x2="398" y2="5009" gradientUnits="userSpaceOnUse">
<stop stop-color="#80D7DA"/>
<stop offset="1" stop-color="#FF89CA"/>
</linearGradient>
<linearGradient id="paint4_linear_106_2" x1="378" y1="2890" x2="378" y2="3140" gradientUnits="userSpaceOnUse">
<stop stop-color="#80D7DA"/>
<stop offset="1" stop-color="#FF89CA"/>
</linearGradient>
<linearGradient id="paint5_linear_106_2" x1="4.00001" y1="3308" x2="4.00001" y2="3558" gradientUnits="userSpaceOnUse">
<stop stop-color="#80D7DA"/>
<stop offset="1" stop-color="#FF89CA"/>
</linearGradient>
<linearGradient id="paint6_linear_106_2" x1="426" y1="3683" x2="426" y2="3933" gradientUnits="userSpaceOnUse">
<stop stop-color="#80D7DA"/>
<stop offset="1" stop-color="#FF89CA"/>
</linearGradient>
<linearGradient id="paint7_linear_106_2" x1="358" y1="2265" x2="358" y2="2515" gradientUnits="userSpaceOnUse">
<stop stop-color="#80D7DA"/>
<stop offset="1" stop-color="#FF89CA"/>
</linearGradient>
<linearGradient id="paint8_linear_106_2" x1="-45" y1="2633" x2="-45" y2="2883" gradientUnits="userSpaceOnUse">
<stop stop-color="#80D7DA"/>
<stop offset="1" stop-color="#FF89CA"/>
</linearGradient>
<linearGradient id="paint9_linear_106_2" x1="376" y1="356" x2="376" y2="606" gradientUnits="userSpaceOnUse">
<stop stop-color="#80D7DA"/>
<stop offset="1" stop-color="#FF89CA"/>
</linearGradient>
<linearGradient id="paint10_linear_106_2" x1="32.9998" y1="626" x2="32.9998" y2="876" gradientUnits="userSpaceOnUse">
<stop stop-color="#80D7DA"/>
<stop offset="1" stop-color="#FF89CA"/>
</linearGradient>
<linearGradient id="paint11_linear_106_2" x1="458.5" y1="890.5" x2="458.5" y2="1140.5" gradientUnits="userSpaceOnUse">
<stop stop-color="#80D7DA"/>
<stop offset="1" stop-color="#FF89CA"/>
</linearGradient>
<linearGradient id="paint12_linear_106_2" x1="-30.5004" y1="1261.5" x2="-30.5004" y2="1511.5" gradientUnits="userSpaceOnUse">
<stop stop-color="#80D7DA"/>
<stop offset="1" stop-color="#FF89CA"/>
</linearGradient>
<linearGradient id="paint13_linear_106_2" x1="424.5" y1="1742.5" x2="424.5" y2="1992.5" gradientUnits="userSpaceOnUse">
<stop stop-color="#80D7DA"/>
<stop offset="1" stop-color="#FF89CA"/>
</linearGradient>
<linearGradient id="paint14_linear_106_2" x1="65.8083" y1="-104.192" x2="65.8083" y2="145.808" gradientUnits="userSpaceOnUse">
<stop stop-color="#80D7DA"/>
<stop offset="1" stop-color="#FF89CA"/>
</linearGradient>
</defs>
</svg>
