<svg xmlns="http://www.w3.org/2000/svg" xmlns:xlink="http://www.w3.org/1999/xlink" width="300" zoomAndPan="magnify" viewBox="0 0 224.87999 225" height="300" preserveAspectRatio="xMidYMid meet" version="1.0"><defs><clipPath id="a4a9f75db9"><path d="M 39.324219 171 L 45 171 L 45 178 L 39.324219 178 Z M 39.324219 171 " clip-rule="nonzero"/></clipPath><clipPath id="3fa9c5f090"><path d="M 39.324219 81 L 93 81 L 93 179 L 39.324219 179 Z M 39.324219 81 " clip-rule="nonzero"/></clipPath><clipPath id="2725b93320"><path d="M 43 164 L 185 164 L 185 209.324219 L 43 209.324219 Z M 43 164 " clip-rule="nonzero"/></clipPath></defs><path fill="#fa99a5" d="M 137.203125 115.15625 C 136.878906 113.949219 136.71875 112.65625 136.316406 111.445312 C 135.75 109.914062 135.105469 108.382812 134.621094 106.769531 C 133.976562 104.507812 133.492188 102.167969 133.007812 99.828125 C 132.523438 97.328125 131.957031 94.828125 131.554688 92.328125 C 131.152344 89.746094 130.585938 87.164062 129.699219 84.742188 C 129.214844 83.371094 128.730469 81.917969 128.167969 80.546875 C 127.84375 79.820312 127.441406 79.175781 126.554688 79.09375 C 125.90625 79.015625 125.421875 78.613281 125.101562 78.046875 C 124.617188 77.160156 123.566406 77.078125 122.761719 77.722656 C 122.519531 77.886719 122.519531 78.046875 122.679688 78.289062 C 123.164062 79.015625 123.566406 79.660156 123.890625 80.46875 C 124.859375 83.128906 125.101562 85.953125 125.183594 88.695312 C 125.261719 89.988281 125.101562 91.195312 125.101562 92.488281 C 125.101562 93.617188 124.941406 94.746094 124.777344 95.875 C 124.617188 97.328125 124.375 98.699219 124.214844 100.152344 C 123.972656 101.765625 123.730469 103.460938 123.164062 104.992188 C 122.359375 107.25 120.90625 108.945312 118.484375 109.589844 C 117.113281 109.996094 115.742188 110.074219 114.371094 110.238281 C 112.917969 110.398438 111.386719 110.316406 109.933594 110.316406 C 107.996094 110.316406 106.140625 110.15625 104.207031 109.914062 C 101.140625 109.511719 98.960938 107.898438 97.992188 104.910156 C 96.945312 101.847656 96.703125 98.699219 96.378906 95.554688 C 96.21875 94.101562 96.136719 92.648438 96.058594 91.195312 C 95.894531 88.375 95.976562 85.628906 96.621094 82.886719 C 96.945312 81.433594 97.269531 79.984375 98.15625 78.773438 C 98.316406 78.613281 98.398438 78.371094 98.558594 78.207031 C 98.71875 77.964844 98.71875 77.886719 98.476562 77.722656 C 97.671875 77 96.703125 77.078125 96.136719 78.046875 C 95.816406 78.613281 95.414062 78.933594 94.765625 79.015625 C 94.039062 79.09375 93.558594 79.578125 93.234375 80.226562 C 92.832031 81.191406 92.425781 82.242188 92.023438 83.289062 C 91.296875 85.386719 90.570312 87.40625 90.167969 89.582031 C 89.925781 91.117188 89.683594 92.570312 89.363281 94.101562 C 88.957031 96.28125 88.472656 98.378906 88.070312 100.554688 C 87.507812 103.378906 86.941406 106.121094 85.890625 108.785156 C 85.246094 110.558594 84.441406 112.335938 84.199219 114.269531 C 84.035156 115.15625 83.875 115.964844 84.117188 116.851562 C 84.683594 119.03125 85.167969 121.289062 85.652344 123.46875 C 86.296875 127.097656 87.101562 130.648438 88.636719 134.035156 C 88.957031 134.761719 89.199219 135.488281 89.28125 136.214844 C 89.28125 136.375 89.28125 136.617188 89.199219 136.617188 C 88.796875 136.699219 88.878906 137.019531 88.878906 137.261719 C 88.878906 137.667969 88.878906 137.988281 88.878906 138.394531 C 88.878906 139.683594 88.878906 139.765625 90.085938 140.167969 C 93.074219 141.214844 96.21875 141.621094 99.367188 141.941406 C 100.496094 142.023438 101.625 141.941406 102.835938 142.183594 C 104.609375 142.507812 106.464844 142.425781 108.320312 142.265625 C 109.289062 142.183594 110.257812 141.941406 111.226562 142.023438 C 112.515625 142.183594 113.726562 142.347656 115.015625 142.347656 C 115.582031 142.347656 116.144531 142.347656 116.710938 142.347656 C 117.597656 142.265625 118.484375 142.105469 119.375 142.023438 C 122.519531 141.941406 125.585938 141.539062 128.652344 140.894531 C 129.859375 140.652344 130.992188 140.328125 132.121094 139.84375 C 132.523438 139.683594 132.683594 139.441406 132.683594 138.957031 C 132.605469 138.3125 132.683594 137.667969 132.605469 136.941406 C 132.605469 136.859375 132.683594 136.617188 132.441406 136.617188 C 132.121094 136.539062 132.199219 136.375 132.199219 136.132812 C 132.28125 135.328125 132.523438 134.601562 132.847656 133.875 C 133.8125 131.535156 134.621094 129.195312 135.105469 126.695312 C 135.667969 123.871094 136.234375 121.128906 136.878906 118.304688 C 136.960938 117.417969 137.445312 116.367188 137.203125 115.15625 Z M 110.09375 136.214844 C 110.09375 136.375 110.015625 136.375 109.851562 136.375 C 109.609375 136.457031 109.371094 136.457031 109.128906 136.457031 C 108.804688 136.457031 108.5625 136.457031 108.238281 136.375 C 108.160156 136.375 107.996094 136.539062 107.996094 136.296875 C 107.917969 136.132812 108.078125 136.054688 108.160156 135.972656 C 108.402344 135.890625 108.644531 135.8125 108.964844 135.8125 C 109.289062 135.8125 109.53125 135.890625 109.851562 135.890625 C 109.933594 135.972656 110.015625 136.054688 110.09375 136.214844 Z M 102.429688 110.882812 C 102.511719 110.800781 102.59375 110.882812 102.671875 110.882812 C 103.800781 111.285156 105.011719 111.367188 106.140625 111.527344 C 107.273438 111.609375 108.402344 111.769531 109.449219 111.929688 C 109.53125 111.929688 109.691406 112.011719 109.691406 112.09375 C 109.691406 112.253906 109.53125 112.171875 109.449219 112.171875 C 109.289062 112.171875 109.207031 112.171875 108.964844 112.171875 C 107.191406 111.929688 105.253906 112.09375 103.398438 111.527344 C 103.078125 111.445312 102.835938 111.285156 102.511719 111.125 C 102.429688 111.042969 102.351562 111.042969 102.429688 110.882812 Z M 98.476562 108.625 C 98.640625 108.542969 98.640625 108.703125 98.71875 108.703125 C 99.203125 109.105469 99.6875 109.511719 100.171875 109.914062 C 100.253906 109.996094 100.414062 110.074219 100.414062 110.238281 C 100.332031 110.398438 100.253906 110.480469 100.171875 110.316406 C 99.605469 109.914062 98.960938 109.429688 98.476562 108.867188 C 98.398438 108.785156 98.398438 108.703125 98.476562 108.625 Z M 96.785156 78.933594 C 96.863281 78.773438 96.945312 78.53125 97.269531 78.449219 C 96.945312 79.175781 96.703125 79.902344 96.378906 80.628906 C 95.734375 82.484375 95.414062 84.421875 95.25 86.355469 C 95.007812 89.339844 95.007812 92.328125 95.089844 95.230469 C 95.25 99.101562 95.894531 102.894531 97.027344 106.605469 C 97.105469 106.769531 97.105469 106.929688 97.027344 107.171875 C 96.703125 106.929688 96.703125 106.605469 96.621094 106.363281 C 95.976562 104.429688 95.492188 102.410156 95.25 100.3125 C 95.007812 98.699219 94.847656 97.085938 94.765625 95.472656 C 94.605469 92.890625 94.605469 90.230469 94.6875 87.648438 C 94.765625 84.5 95.332031 81.597656 96.785156 78.933594 Z M 94.847656 80.226562 C 94.929688 80.144531 94.929688 79.984375 95.007812 79.902344 C 95.007812 79.902344 95.089844 79.902344 95.089844 79.902344 C 95.171875 80.144531 95.007812 80.386719 94.929688 80.628906 C 94.363281 82.644531 93.878906 84.664062 93.636719 86.761719 C 93.558594 87.40625 93.476562 88.050781 93.316406 88.695312 C 93.316406 88.859375 93.316406 89.097656 93.074219 89.019531 C 92.832031 89.019531 92.910156 88.777344 92.910156 88.695312 C 93.152344 85.710938 93.71875 82.886719 94.847656 80.226562 Z M 84.683594 116.289062 C 84.601562 116.449219 84.683594 116.773438 84.441406 116.851562 C 84.277344 116.933594 84.359375 116.691406 84.277344 116.609375 C 84.359375 116.449219 84.277344 116.207031 84.519531 116.125 C 84.683594 116.046875 84.683594 116.207031 84.683594 116.289062 Z M 88.957031 99.585938 C 88.472656 101.925781 88.152344 104.265625 87.746094 106.605469 C 87.34375 108.945312 86.699219 111.285156 85.652344 113.464844 C 85.410156 113.949219 85.328125 114.433594 85.167969 114.914062 C 85.167969 114.996094 85.085938 115.078125 85.003906 115.15625 C 84.84375 115.078125 84.925781 114.914062 84.925781 114.835938 C 85.167969 113.707031 85.652344 112.65625 86.054688 111.527344 C 86.699219 109.832031 87.023438 107.976562 87.34375 106.203125 C 87.828125 103.378906 88.230469 100.554688 88.796875 97.730469 C 89.28125 95.3125 89.84375 92.890625 90.25 90.390625 C 90.652344 87.890625 91.21875 85.46875 92.347656 83.210938 C 92.75 82.484375 93.152344 81.839844 93.558594 81.191406 C 93.636719 81.113281 93.636719 80.953125 93.796875 81.03125 C 93.960938 81.113281 93.796875 81.191406 93.71875 81.273438 C 92.105469 83.695312 91.296875 86.4375 90.8125 89.339844 C 90.410156 92.730469 89.605469 96.199219 88.957031 99.585938 Z M 92.425781 93.941406 C 92.347656 93.214844 92.425781 92.488281 92.667969 91.761719 C 92.910156 92.328125 92.75 93.617188 92.425781 93.941406 Z M 89.925781 134.035156 C 90.007812 133.875 90.085938 133.957031 90.167969 133.957031 C 92.183594 134.441406 94.203125 134.84375 96.21875 135.246094 C 97.832031 135.488281 99.445312 135.730469 101.058594 135.890625 C 102.1875 135.972656 103.398438 136.054688 104.527344 136.132812 C 105.09375 136.214844 105.65625 136.054688 106.140625 136.054688 C 106.304688 136.054688 106.546875 135.972656 106.546875 136.214844 C 106.546875 136.375 106.304688 136.375 106.140625 136.457031 C 105.175781 136.539062 104.207031 136.539062 103.320312 136.539062 C 99.285156 136.457031 95.25 135.972656 91.378906 134.761719 C 90.976562 134.601562 90.492188 134.441406 90.085938 134.277344 C 90.007812 134.277344 89.84375 134.277344 89.925781 134.035156 Z M 100.414062 137.34375 C 100.414062 137.503906 100.253906 137.425781 100.089844 137.425781 C 97.347656 137.183594 94.523438 137.019531 91.863281 135.972656 C 91.539062 135.8125 91.136719 135.648438 90.8125 135.488281 C 91.460938 135.40625 92.105469 135.648438 92.75 135.8125 C 94.363281 136.214844 95.976562 136.539062 97.589844 136.699219 C 98.476562 136.777344 99.367188 136.941406 100.171875 137.101562 C 100.253906 137.183594 100.414062 137.101562 100.414062 137.34375 Z M 108.320312 141.457031 C 107.835938 141.539062 107.273438 141.621094 106.789062 141.621094 C 105.09375 141.621094 103.320312 141.863281 101.625 141.699219 C 100.574219 141.621094 99.527344 141.457031 98.398438 141.296875 C 96.863281 141.054688 95.414062 140.8125 93.878906 140.492188 C 92.75 140.25 91.621094 140.007812 90.492188 139.601562 C 90.25 139.523438 90.007812 139.523438 89.84375 139.117188 C 91.941406 139.765625 94.039062 140.007812 96.058594 140.410156 C 97.832031 140.730469 99.6875 140.972656 101.464844 141.214844 C 102.671875 141.378906 103.800781 141.296875 105.011719 141.136719 C 106.0625 141.054688 107.109375 141.054688 108.160156 141.054688 C 108.238281 141.054688 108.480469 140.972656 108.480469 141.214844 C 108.644531 141.457031 108.480469 141.457031 108.320312 141.457031 Z M 109.851562 137.34375 C 109.449219 137.425781 109.128906 137.503906 108.722656 137.503906 C 106.949219 137.503906 105.09375 137.503906 103.320312 137.503906 C 102.996094 137.503906 102.671875 137.425781 102.351562 137.425781 C 102.351562 137.34375 102.351562 137.34375 102.351562 137.261719 C 102.835938 137.183594 103.320312 137.101562 103.882812 137.101562 C 105.65625 137.101562 107.433594 137.101562 109.128906 137.101562 C 109.371094 137.101562 109.609375 137.183594 109.851562 137.019531 C 109.933594 136.941406 110.09375 136.941406 110.175781 137.101562 C 110.175781 137.34375 110.015625 137.34375 109.851562 137.34375 Z M 126.070312 79.820312 C 126.390625 80.144531 126.472656 80.546875 126.632812 80.871094 C 127.28125 82.726562 127.761719 84.664062 128.003906 86.679688 C 128.085938 87.324219 128.167969 87.96875 128.167969 88.617188 C 128.167969 88.777344 128.246094 89.019531 128.003906 89.019531 C 127.761719 89.019531 127.761719 88.777344 127.761719 88.617188 C 127.683594 87.96875 127.519531 87.40625 127.441406 86.761719 C 127.117188 84.582031 126.632812 82.402344 126.070312 80.304688 C 126.070312 80.226562 125.988281 80.0625 125.988281 79.984375 C 125.988281 79.984375 125.988281 79.902344 126.070312 79.820312 Z M 124.292969 105.960938 C 124.859375 103.863281 125.261719 101.765625 125.664062 99.667969 C 126.230469 95.957031 126.230469 92.246094 126.148438 88.535156 C 126.070312 85.792969 125.746094 83.128906 124.859375 80.546875 C 124.617188 79.820312 124.292969 79.175781 123.972656 78.449219 C 124.214844 78.449219 124.292969 78.613281 124.292969 78.691406 C 125.261719 80.546875 125.988281 82.566406 126.230469 84.664062 C 126.714844 87.96875 126.632812 91.277344 126.472656 94.585938 C 126.3125 98.214844 125.90625 101.847656 124.859375 105.394531 C 124.699219 105.960938 124.535156 106.527344 124.214844 107.171875 C 123.972656 106.605469 124.214844 106.285156 124.292969 105.960938 Z M 129.539062 134.359375 C 129.941406 134.277344 130.425781 134.199219 130.828125 134.035156 C 130.992188 134.035156 131.070312 133.957031 131.152344 134.117188 C 131.234375 134.277344 130.992188 134.277344 130.910156 134.359375 C 129.699219 134.921875 128.488281 135.246094 127.199219 135.570312 C 125.34375 135.972656 123.40625 136.296875 121.46875 136.457031 C 120.179688 136.539062 118.96875 136.617188 117.195312 136.617188 C 116.710938 136.617188 115.742188 136.617188 114.773438 136.539062 C 114.613281 136.539062 114.371094 136.457031 114.371094 136.375 C 114.371094 136.132812 114.613281 136.132812 114.773438 136.214844 C 115.582031 136.296875 116.386719 136.214844 117.277344 136.214844 C 118.96875 136.132812 120.664062 135.972656 122.359375 135.730469 C 124.859375 135.328125 127.199219 134.84375 129.539062 134.359375 Z M 128.410156 91.84375 C 128.652344 92.488281 128.8125 93.214844 128.652344 93.941406 C 128.328125 93.292969 128.328125 92.570312 128.410156 91.84375 Z M 130.265625 135.488281 C 129.457031 135.890625 128.488281 136.214844 127.601562 136.539062 C 125.988281 137.019531 124.375 137.183594 122.761719 137.34375 C 122.195312 137.425781 121.632812 137.34375 121.066406 137.503906 C 120.90625 137.585938 120.664062 137.585938 120.664062 137.34375 C 120.664062 137.183594 120.90625 137.183594 120.988281 137.183594 C 121.792969 137.019531 122.679688 136.941406 123.488281 136.859375 C 125.34375 136.699219 127.199219 136.296875 128.972656 135.730469 C 129.457031 135.570312 129.859375 135.328125 130.265625 135.488281 Z M 120.746094 110.074219 C 121.308594 109.589844 121.875 109.105469 122.4375 108.542969 C 122.519531 108.460938 122.519531 108.460938 122.601562 108.542969 C 122.601562 108.625 122.679688 108.625 122.679688 108.625 C 122.679688 108.785156 122.601562 108.867188 122.519531 108.945312 C 122.117188 109.511719 121.550781 109.914062 120.988281 110.316406 C 120.90625 110.398438 120.824219 110.480469 120.746094 110.316406 C 120.582031 110.316406 120.664062 110.15625 120.746094 110.074219 Z M 111.949219 111.929688 C 113 111.6875 114.046875 111.6875 115.179688 111.527344 C 116.308594 111.445312 117.4375 111.367188 118.484375 110.960938 C 118.566406 110.960938 118.648438 110.800781 118.726562 110.960938 C 118.726562 111.042969 118.648438 111.125 118.566406 111.203125 C 118 111.609375 117.277344 111.769531 116.628906 111.851562 C 115.421875 112.09375 114.128906 112.09375 112.917969 112.171875 C 112.597656 112.171875 112.355469 112.335938 111.871094 112.253906 C 111.789062 112.253906 111.46875 112.414062 111.46875 112.171875 C 111.46875 111.851562 111.789062 111.929688 111.949219 111.929688 Z M 111.304688 135.972656 C 111.789062 135.972656 112.355469 135.8125 112.839844 135.972656 C 113 136.054688 113.242188 136.054688 113.160156 136.296875 C 113.082031 136.539062 112.917969 136.375 112.839844 136.375 C 112.597656 136.375 112.273438 136.457031 112.113281 136.457031 C 111.789062 136.457031 111.546875 136.457031 111.304688 136.375 C 111.226562 136.375 111.0625 136.375 111.0625 136.214844 C 111.0625 136.054688 111.144531 135.972656 111.304688 135.972656 Z M 111.144531 137.34375 C 111.0625 137.34375 110.984375 137.261719 110.984375 137.183594 C 110.984375 137.101562 111.0625 137.019531 111.226562 137.019531 C 113.324219 137.261719 115.339844 137.019531 117.4375 137.101562 C 117.921875 137.101562 118.324219 137.183594 118.808594 137.261719 C 118.40625 137.425781 118 137.503906 117.597656 137.503906 C 115.902344 137.503906 114.210938 137.503906 112.433594 137.503906 C 111.949219 137.503906 111.546875 137.425781 111.144531 137.34375 Z M 130.507812 139.765625 C 128.894531 140.328125 127.199219 140.652344 125.585938 140.972656 C 124.214844 141.214844 122.84375 141.457031 121.550781 141.621094 C 120.179688 141.78125 118.808594 141.941406 117.4375 141.863281 C 116.550781 141.78125 115.582031 141.78125 114.695312 141.699219 C 114.046875 141.699219 113.484375 141.539062 112.839844 141.457031 C 112.757812 141.457031 112.597656 141.378906 112.597656 141.214844 C 112.597656 140.972656 112.757812 141.054688 112.917969 141.054688 C 114.046875 141.136719 115.179688 141.214844 116.308594 141.214844 C 117.515625 141.296875 118.726562 141.296875 119.9375 141.136719 C 121.792969 140.894531 123.730469 140.570312 125.585938 140.328125 C 127.441406 140.085938 129.378906 139.765625 131.3125 139.117188 C 130.992188 139.601562 130.75 139.683594 130.507812 139.765625 Z M 136.152344 115.15625 C 136.074219 115.15625 135.992188 115.078125 135.992188 114.996094 C 135.1875 112.496094 133.976562 110.074219 133.570312 107.414062 C 132.847656 102.976562 132.039062 98.539062 131.070312 94.183594 C 130.667969 92.328125 130.425781 90.390625 130.101562 88.535156 C 129.617188 85.953125 128.894531 83.53125 127.441406 81.355469 C 127.441406 81.355469 127.441406 81.273438 127.359375 81.191406 C 127.28125 81.113281 127.117188 81.03125 127.28125 80.953125 C 127.359375 80.871094 127.441406 81.03125 127.519531 81.113281 C 128.085938 81.917969 128.652344 82.808594 129.054688 83.773438 C 129.941406 85.792969 130.425781 87.890625 130.828125 90.066406 C 131.3125 92.8125 131.878906 95.472656 132.441406 98.214844 C 132.847656 100.152344 133.167969 102.007812 133.410156 103.945312 C 133.976562 107.171875 134.539062 110.398438 135.832031 113.464844 C 135.992188 113.867188 136.152344 114.351562 136.234375 114.835938 C 136.234375 114.835938 136.234375 114.914062 136.234375 114.914062 C 136.316406 115.078125 136.234375 115.15625 136.152344 115.15625 Z M 136.800781 116.851562 C 136.558594 116.773438 136.558594 116.53125 136.476562 116.289062 C 136.476562 116.207031 136.476562 116.046875 136.636719 116.125 C 136.878906 116.207031 136.800781 116.449219 136.878906 116.609375 C 136.878906 116.691406 136.878906 116.851562 136.800781 116.851562 Z M 136.800781 116.851562 " fill-opacity="1" fill-rule="nonzero"/><path fill="#f8c0b1" d="M 178.992188 171.308594 C 179.71875 170.984375 180.605469 170.742188 181.332031 171.46875 C 181.734375 170.582031 181.734375 169.613281 181.492188 168.726562 C 180.847656 166.46875 179.960938 164.210938 179.234375 161.949219 C 178.992188 161.304688 178.671875 161.144531 178.023438 161.222656 C 177.621094 161.304688 177.378906 161.546875 177.21875 162.191406 C 176.976562 163.160156 177.21875 164.128906 177.378906 165.175781 C 177.539062 166.308594 177.945312 167.355469 178.105469 168.40625 C 178.1875 169.128906 178.023438 169.695312 177.78125 170.339844 C 177.703125 170.582031 177.621094 171.148438 177.378906 170.984375 C 177.058594 170.824219 177.378906 170.421875 177.460938 170.179688 C 177.863281 169.050781 177.703125 167.921875 177.378906 166.789062 C 176.976562 165.582031 176.734375 164.289062 176.734375 163 C 176.734375 162.515625 176.816406 162.113281 176.976562 161.628906 C 177.136719 161.144531 177.460938 160.980469 177.945312 160.980469 C 178.507812 160.980469 178.992188 161.0625 179.152344 161.628906 C 179.234375 161.789062 179.316406 162.03125 179.316406 162.191406 C 179.316406 162.03125 179.316406 161.871094 179.316406 161.707031 C 179.316406 161.707031 179.316406 161.707031 179.234375 161.707031 C 179.316406 161.222656 179.316406 160.738281 179.234375 160.175781 C 179.074219 159.207031 178.429688 158.722656 177.460938 159.046875 C 176.652344 159.289062 176.167969 159.773438 175.765625 160.417969 C 175.121094 161.386719 174.394531 162.273438 173.265625 162.757812 C 171.972656 163.160156 170.84375 163.804688 169.632812 164.453125 C 168.828125 164.855469 168.101562 165.417969 167.699219 166.308594 C 167.617188 166.46875 167.535156 166.628906 167.375 166.550781 C 167.214844 166.46875 167.292969 166.308594 167.292969 166.226562 C 167.941406 165.5 167.292969 165.097656 166.890625 164.613281 C 165.277344 162.59375 163.746094 160.417969 162.375 158.160156 C 159.308594 153.316406 156.402344 148.316406 153.742188 143.234375 C 152.613281 141.054688 152.128906 138.796875 151.964844 136.375 C 151.804688 134.519531 151.5625 132.664062 151.402344 130.808594 C 151.320312 129.519531 151.160156 128.226562 151.078125 126.9375 C 150.917969 124.679688 151 122.339844 151.078125 120.078125 C 151.238281 117.011719 151.480469 113.949219 151.402344 110.800781 C 151.320312 108.703125 151.238281 106.605469 151 104.589844 C 150.675781 101.441406 150.109375 98.296875 149.144531 95.3125 C 148.660156 93.859375 148.09375 92.488281 147.285156 91.195312 C 146.238281 89.503906 144.785156 88.292969 143.011719 87.484375 C 139.378906 85.792969 135.75 84.179688 132.039062 82.644531 C 131.070312 82.242188 130.023438 82 128.972656 81.515625 C 129.617188 83.289062 130.183594 84.90625 130.75 86.597656 C 131.3125 88.453125 131.636719 90.308594 132.039062 92.164062 C 132.441406 94.261719 132.925781 96.359375 133.328125 98.457031 C 133.8125 100.796875 134.296875 103.21875 134.863281 105.558594 C 135.347656 107.574219 136.234375 109.429688 136.878906 111.367188 C 137.363281 112.898438 137.605469 114.511719 137.523438 116.046875 C 137.445312 117.660156 137.121094 119.273438 136.800781 120.804688 C 136.636719 121.449219 136.636719 122.175781 136.636719 122.824219 C 136.636719 124.113281 136.636719 125.484375 136.476562 126.777344 C 136.316406 128.148438 136.558594 129.597656 136.558594 131.050781 C 136.558594 132.261719 136.71875 133.390625 136.800781 134.601562 C 136.878906 135.8125 137.042969 137.019531 137.121094 138.230469 C 137.285156 139.601562 137.445312 140.894531 137.605469 142.265625 C 138.089844 145.652344 138.976562 148.960938 140.589844 152.027344 C 141.074219 152.996094 141.800781 153.722656 142.527344 154.527344 C 144.707031 157.191406 147.125 159.609375 149.707031 161.871094 C 151.5625 163.484375 153.417969 165.015625 155.355469 166.550781 C 157.128906 168 158.824219 169.453125 160.519531 170.984375 C 160.921875 171.390625 161.324219 171.792969 161.566406 172.277344 C 161.648438 172.4375 161.808594 172.597656 162.050781 172.679688 C 163.019531 173.246094 163.746094 174.132812 164.308594 175.019531 C 164.792969 175.828125 165.519531 176.550781 166.246094 177.117188 C 167.214844 177.84375 168.910156 177.683594 169.230469 176.148438 C 169.472656 174.9375 169.796875 173.648438 170.601562 172.597656 C 170.683594 172.4375 170.84375 172.277344 171.007812 172.195312 C 169.957031 173.566406 169.875 175.34375 169.390625 176.875 C 169.714844 176.957031 169.957031 177.035156 170.28125 177.199219 C 170.359375 177.277344 170.523438 177.359375 170.683594 177.199219 C 170.84375 177.035156 170.925781 177.277344 171.007812 177.359375 C 171.007812 177.359375 171.007812 177.441406 171.085938 177.441406 C 171.085938 177.441406 171.167969 177.519531 171.167969 177.519531 C 171.246094 177.683594 171.328125 177.925781 171.488281 178.085938 C 171.570312 178.085938 171.652344 178.167969 171.730469 178.246094 C 172.378906 178.570312 172.941406 178.890625 173.667969 178.972656 C 174.152344 178.972656 174.554688 178.972656 174.960938 178.8125 C 175.199219 178.730469 175.363281 178.570312 175.441406 178.328125 C 175.847656 176.957031 176.492188 175.664062 177.21875 174.457031 C 177.621094 173.730469 177.378906 173.003906 176.894531 172.597656 C 176.332031 172.117188 175.683594 172.277344 175.039062 172.4375 C 174.636719 172.519531 174.394531 172.761719 173.992188 173.003906 C 173.910156 173.082031 173.828125 173.324219 173.667969 173.082031 C 173.585938 172.921875 173.75 172.839844 173.828125 172.761719 C 174.71875 171.792969 176.492188 171.550781 177.539062 173.003906 C 177.539062 173.082031 177.621094 173.082031 177.703125 173.164062 C 177.78125 172.277344 178.1875 171.632812 178.992188 171.308594 Z M 140.753906 105.152344 C 140.589844 106.769531 140.347656 108.382812 139.863281 109.996094 C 139.542969 111.203125 139.058594 112.335938 138.089844 113.222656 C 137.929688 113.382812 137.765625 113.542969 137.605469 113.382812 C 137.445312 113.222656 137.605469 112.980469 137.6875 112.898438 C 139.21875 110.800781 139.621094 108.382812 140.1875 106.042969 C 140.347656 105.234375 140.511719 104.347656 140.671875 103.539062 C 140.832031 104.023438 140.753906 104.589844 140.753906 105.152344 Z M 166.328125 167.921875 C 164.472656 167.515625 163.019531 168.242188 161.808594 169.695312 C 161.726562 169.777344 161.726562 170.097656 161.484375 169.9375 C 161.324219 169.777344 161.324219 169.613281 161.484375 169.453125 C 162.859375 167.597656 164.957031 166.710938 167.132812 168 C 167.292969 168.082031 167.457031 168.164062 167.617188 168.324219 C 167.617188 168.324219 167.617188 168.40625 167.535156 168.40625 C 167.214844 168.164062 166.8125 168 166.328125 167.921875 Z M 171.167969 172.117188 C 171.085938 172.195312 171.007812 172.035156 170.925781 171.953125 C 170.441406 171.308594 169.632812 171.226562 168.988281 171.792969 C 168.34375 172.359375 167.941406 173.082031 167.617188 173.808594 C 167.457031 174.132812 167.292969 174.535156 167.214844 174.859375 C 167.054688 174.375 167.292969 173.972656 167.457031 173.566406 C 167.859375 172.4375 168.34375 171.390625 169.714844 171.066406 C 170.359375 170.90625 171.007812 171.226562 171.167969 171.792969 C 171.246094 171.953125 171.246094 172.117188 171.167969 172.117188 Z M 172.457031 175.988281 C 172.378906 176.070312 172.378906 176.148438 172.214844 176.148438 C 172.136719 176.148438 172.136719 176.070312 172.136719 175.988281 C 172.457031 175.34375 172.78125 174.695312 173.183594 173.972656 C 173.265625 173.972656 173.265625 174.050781 173.34375 174.050781 C 173.105469 174.777344 172.863281 175.421875 172.457031 175.988281 Z M 174.3125 165.417969 C 175.121094 165.824219 175.605469 166.546875 176.492188 166.871094 C 175.523438 166.789062 174.878906 166.144531 174.3125 165.417969 Z M 174.3125 165.417969 " fill-opacity="1" fill-rule="nonzero"/><path fill="#f8c0b1" d="M 123.40625 80.0625 C 122.519531 78.933594 121.632812 77.804688 120.746094 76.675781 C 119.210938 74.660156 118.808594 72.480469 119.132812 69.980469 C 119.292969 69.09375 119.453125 68.203125 119.613281 67.316406 C 118.96875 68.203125 118.324219 69.171875 117.597656 69.980469 C 116.46875 71.351562 115.097656 72.480469 113.242188 72.804688 C 111.707031 73.046875 110.175781 73.046875 108.644531 72.882812 C 106.464844 72.722656 104.851562 71.671875 103.480469 69.980469 C 102.753906 69.09375 102.109375 68.203125 101.464844 67.316406 C 101.703125 68.609375 102.027344 69.898438 102.027344 71.1875 C 102.109375 72.722656 101.785156 74.175781 100.980469 75.546875 C 100.253906 76.757812 99.367188 77.804688 98.476562 78.855469 C 98.074219 79.335938 97.589844 79.820312 97.347656 80.46875 C 96.703125 82.566406 96.460938 84.742188 96.378906 86.921875 C 96.300781 88.617188 96.378906 90.308594 96.460938 91.921875 C 96.542969 93.050781 96.621094 94.101562 96.785156 95.230469 C 96.945312 96.601562 97.1875 97.972656 97.347656 99.34375 C 97.589844 101.039062 97.832031 102.816406 98.398438 104.429688 C 99.203125 106.847656 100.738281 108.460938 103.398438 108.945312 C 105.175781 109.269531 106.867188 109.429688 108.644531 109.511719 C 110.257812 109.589844 111.871094 109.589844 113.402344 109.429688 C 114.855469 109.347656 116.226562 109.269531 117.597656 108.945312 C 119.375 108.542969 120.824219 107.734375 121.710938 106.121094 C 122.195312 105.316406 122.519531 104.429688 122.761719 103.539062 C 123.328125 101.441406 123.566406 99.265625 123.808594 97.167969 C 124.132812 94.910156 124.375 92.570312 124.457031 90.230469 C 124.535156 87.40625 124.457031 84.664062 123.890625 81.839844 C 123.890625 81.355469 123.808594 80.628906 123.40625 80.0625 Z M 123.40625 80.0625 " fill-opacity="1" fill-rule="nonzero"/><path fill="#f8c0b1" d="M 124.375 53.039062 C 124.292969 54.085938 124.457031 55.136719 124.292969 56.101562 C 125.261719 55.136719 124.859375 54.167969 124.375 53.039062 Z M 124.375 53.039062 " fill-opacity="1" fill-rule="nonzero"/><path fill="#f8c0b1" d="M 125.90625 49.890625 C 125.425781 49.972656 125.019531 50.214844 124.617188 50.457031 C 124.214844 50.699219 124.050781 50.941406 124.132812 51.421875 C 124.214844 51.828125 124.214844 52.230469 124.292969 52.714844 C 124.292969 51.988281 124.535156 51.34375 125.261719 51.019531 C 125.664062 50.859375 126.390625 51.183594 126.632812 51.503906 C 126.875 51.828125 126.957031 52.070312 126.714844 52.390625 C 126.632812 52.390625 126.632812 52.3125 126.632812 52.230469 C 126.554688 51.746094 126.070312 51.261719 125.585938 51.261719 C 125.101562 51.261719 124.859375 51.503906 124.699219 51.988281 C 124.457031 52.554688 124.699219 53.117188 124.941406 53.683594 C 125.421875 54.652344 125.34375 55.617188 124.617188 56.425781 C 123.890625 57.230469 123.972656 58.28125 123.488281 59.25 C 124.859375 59.007812 125.183594 57.957031 125.421875 56.910156 C 125.585938 57.636719 125.34375 58.199219 124.941406 58.765625 C 124.699219 59.25 124.214844 59.492188 123.808594 59.492188 C 123.40625 59.492188 123.246094 59.734375 123.164062 60.136719 C 124.457031 59.734375 125.503906 59.089844 125.746094 57.714844 C 126.070312 56.183594 126.472656 54.730469 127.117188 53.277344 C 127.519531 52.390625 127.519531 51.503906 127.199219 50.535156 C 126.957031 49.972656 126.632812 49.808594 125.90625 49.890625 Z M 125.90625 49.890625 " fill-opacity="1" fill-rule="nonzero"/><path fill="#f8c0b1" d="M 96.785156 53.039062 C 96.300781 54.167969 95.816406 55.136719 96.863281 56.101562 C 96.703125 55.136719 96.785156 54.167969 96.785156 53.039062 Z M 96.785156 53.039062 " fill-opacity="1" fill-rule="nonzero"/><path fill="#f8c0b1" d="M 97.589844 59.492188 C 96.621094 59.410156 96.058594 58.847656 95.816406 57.957031 C 95.734375 57.636719 95.574219 57.230469 95.734375 56.910156 C 95.816406 56.910156 95.816406 56.910156 95.816406 56.910156 C 95.816406 56.992188 95.816406 57.070312 95.894531 57.152344 C 96.058594 57.957031 96.378906 58.765625 97.269531 59.167969 C 97.429688 59.25 97.511719 59.328125 97.589844 59.25 C 97.671875 59.167969 97.589844 59.007812 97.589844 58.925781 C 97.511719 58.605469 97.347656 58.28125 97.269531 57.957031 C 97.1875 57.394531 96.945312 56.910156 96.621094 56.507812 C 95.894531 55.617188 95.816406 54.730469 96.300781 53.683594 C 96.460938 53.277344 96.621094 52.875 96.542969 52.390625 C 96.460938 51.988281 96.378906 51.585938 95.894531 51.421875 C 95.492188 51.261719 95.171875 51.421875 94.765625 51.664062 C 94.523438 51.90625 94.445312 52.148438 94.363281 52.472656 C 94.121094 51.746094 94.605469 51.101562 95.332031 50.941406 C 96.136719 50.777344 96.703125 51.34375 96.863281 52.632812 C 96.863281 52.230469 96.945312 51.828125 96.945312 51.421875 C 96.945312 51.183594 97.105469 50.777344 96.703125 50.617188 C 96.300781 50.375 95.894531 50.132812 95.492188 49.972656 C 94.523438 49.648438 93.960938 49.972656 93.71875 50.941406 C 93.558594 51.746094 93.558594 52.554688 93.878906 53.277344 C 94.523438 54.730469 94.929688 56.265625 95.332031 57.796875 C 95.652344 59.089844 96.703125 59.976562 97.992188 60.136719 C 97.75 59.894531 97.914062 59.570312 97.589844 59.492188 Z M 97.589844 59.492188 " fill-opacity="1" fill-rule="nonzero"/><path fill="#f8c0b1" d="M 98.800781 60.539062 C 99.769531 62.878906 100.816406 65.058594 102.269531 67.15625 C 102.996094 68.203125 103.800781 69.253906 104.691406 70.222656 C 105.898438 71.511719 107.351562 72.078125 109.046875 72.320312 C 109.691406 72.398438 110.335938 72.640625 111.0625 72.480469 C 111.628906 72.398438 112.191406 72.320312 112.757812 72.238281 C 114.046875 71.996094 115.179688 71.511719 116.144531 70.625 C 117.515625 69.332031 118.566406 67.71875 119.613281 66.1875 C 120.746094 64.332031 121.550781 62.394531 122.519531 60.460938 C 123.890625 57.554688 124.132812 54.570312 123.808594 51.421875 C 123.648438 50.132812 123.566406 48.84375 123.648438 47.550781 C 123.648438 47.066406 123.730469 46.582031 123.730469 46.019531 C 123.808594 45.210938 123.648438 44.324219 123.488281 43.515625 C 123.003906 41.5 121.953125 39.726562 120.582031 38.113281 C 118.566406 35.773438 116.066406 34.160156 113.082031 33.351562 C 112.355469 33.191406 111.628906 33.03125 111.0625 33.753906 C 110.820312 34.078125 110.417969 34.078125 110.175781 33.753906 C 110.015625 33.59375 109.851562 33.433594 109.691406 33.351562 C 109.609375 33.273438 109.449219 33.191406 109.289062 33.191406 C 108.886719 33.273438 108.480469 33.273438 108.078125 33.433594 C 104.207031 34.480469 101.222656 36.742188 99.203125 40.128906 C 98.074219 41.984375 97.429688 43.921875 97.511719 46.097656 C 97.589844 47.632812 97.589844 49.164062 97.511719 50.699219 C 97.429688 51.34375 97.429688 51.988281 97.347656 52.554688 C 97.269531 53.84375 97.1875 55.136719 97.429688 56.34375 C 97.671875 57.796875 98.234375 59.167969 98.800781 60.539062 Z M 98.800781 60.539062 " fill-opacity="1" fill-rule="nonzero"/><path fill="#f8c0b1" d="M 180.527344 171.308594 C 179.636719 171.226562 178.75 171.632812 178.265625 172.4375 C 178.105469 172.679688 178.105469 173.082031 177.703125 173.164062 C 177.945312 173.890625 177.621094 174.457031 177.296875 175.101562 C 176.816406 176.070312 176.332031 176.957031 176.007812 178.003906 C 176.167969 178.003906 176.332031 177.925781 176.410156 177.925781 C 176.492188 177.84375 176.574219 177.84375 176.652344 177.84375 C 177.21875 177.761719 177.78125 177.683594 178.429688 177.519531 C 178.914062 177.441406 179.234375 177.199219 179.394531 176.792969 C 179.878906 175.664062 180.527344 174.535156 181.089844 173.488281 C 181.414062 172.839844 181.332031 172.117188 180.769531 171.550781 C 180.769531 171.390625 180.6875 171.308594 180.527344 171.308594 Z M 180.527344 171.308594 " fill-opacity="1" fill-rule="nonzero"/><g clip-path="url(#a4a9f75db9)"><path fill="#f8c0b1" d="M 43.375 173.246094 C 43.296875 173.164062 43.296875 173.164062 43.214844 173.082031 C 43.054688 173.003906 43.054688 172.839844 42.972656 172.679688 C 42.570312 171.792969 41.925781 171.308594 40.957031 171.226562 C 40.550781 171.226562 40.308594 171.308594 40.066406 171.632812 C 39.664062 172.277344 39.585938 172.839844 39.988281 173.488281 C 40.550781 174.457031 41.117188 175.421875 41.519531 176.472656 C 41.84375 177.199219 42.328125 177.441406 43.054688 177.519531 C 43.539062 177.601562 43.941406 177.683594 44.34375 177.683594 C 44.425781 177.683594 44.503906 177.683594 44.503906 177.761719 L 44.988281 177.925781 C 44.585938 176.792969 44.101562 175.664062 43.539062 174.617188 C 43.375 174.292969 43.214844 173.808594 43.375 173.246094 Z M 43.375 173.246094 " fill-opacity="1" fill-rule="nonzero"/></g><g clip-path="url(#3fa9c5f090)"><path fill="#f8c0b1" d="M 92.023438 81.515625 C 89.121094 82.402344 86.296875 83.613281 83.554688 84.90625 C 82.101562 85.550781 80.648438 86.195312 79.195312 86.761719 C 75.648438 88.210938 73.46875 90.792969 72.257812 94.34375 C 71.371094 96.84375 70.804688 99.425781 70.402344 102.089844 C 69.757812 106.363281 69.675781 110.640625 69.757812 114.996094 C 69.757812 115.964844 69.835938 116.933594 70 117.902344 C 70.078125 118.222656 69.917969 118.628906 69.917969 118.949219 C 69.917969 119.757812 70 120.5625 70 121.289062 C 70.160156 123.304688 70 125.324219 69.917969 127.339844 C 69.835938 129.035156 69.675781 130.730469 69.515625 132.421875 C 69.273438 134.84375 69.191406 137.261719 68.628906 139.683594 C 68.222656 141.457031 67.417969 143.152344 66.449219 144.683594 C 63.304688 150.332031 60.074219 155.898438 56.445312 161.222656 C 55.558594 162.515625 54.671875 163.726562 53.621094 164.855469 C 53.300781 165.175781 53.300781 165.417969 53.542969 165.742188 C 53.621094 165.824219 53.621094 165.984375 53.621094 166.066406 C 53.621094 166.144531 53.703125 166.308594 53.542969 166.386719 C 53.378906 166.46875 53.300781 166.308594 53.300781 166.226562 C 52.574219 164.773438 51.121094 164.210938 49.75 163.5625 C 48.941406 163.160156 48.054688 162.757812 47.167969 162.433594 C 46.28125 162.113281 45.714844 161.386719 45.230469 160.578125 C 44.828125 159.933594 44.425781 159.367188 43.617188 159.046875 C 42.40625 158.5625 41.761719 158.882812 41.519531 160.175781 C 41.441406 160.578125 41.441406 160.980469 41.519531 161.464844 C 41.519531 161.546875 41.601562 161.628906 41.601562 161.707031 C 41.601562 161.628906 41.683594 161.628906 41.683594 161.546875 C 41.925781 160.980469 42.40625 160.738281 43.214844 160.902344 C 43.699219 160.980469 44.019531 161.464844 44.101562 162.113281 C 44.34375 163.726562 44.019531 165.257812 43.539062 166.710938 C 43.132812 168 43.054688 169.292969 43.617188 170.5 C 43.699219 170.664062 43.78125 170.824219 43.617188 170.90625 C 43.375 170.984375 43.375 170.742188 43.375 170.582031 C 43.132812 170.019531 42.972656 169.453125 42.890625 168.886719 C 42.8125 168.242188 43.054688 167.679688 43.214844 167.03125 C 43.617188 165.660156 43.859375 164.371094 43.941406 162.917969 C 43.941406 162.515625 43.859375 162.191406 43.78125 161.789062 C 43.699219 161.386719 43.539062 161.144531 43.132812 161.0625 C 42.648438 160.980469 42.246094 161.0625 42.003906 161.546875 C 41.601562 162.355469 41.359375 163.242188 41.035156 164.128906 C 40.472656 165.742188 39.828125 167.273438 39.503906 168.886719 C 39.34375 169.695312 39.34375 170.5 39.664062 171.226562 C 40.390625 170.421875 41.277344 170.742188 42.003906 170.984375 C 42.730469 171.308594 43.132812 171.953125 43.296875 172.761719 C 43.296875 172.761719 43.296875 172.761719 43.296875 172.839844 C 43.699219 172.4375 43.941406 171.953125 44.585938 171.792969 C 45.472656 171.550781 46.601562 171.792969 47.167969 172.519531 C 47.25 172.597656 47.410156 172.679688 47.25 172.761719 C 47.085938 172.839844 47.085938 172.761719 47.007812 172.679688 C 46.523438 172.359375 46.039062 172.035156 45.472656 171.953125 C 44.910156 171.875 44.34375 171.875 44.019531 172.359375 C 43.617188 172.839844 43.539062 173.40625 43.859375 174.050781 C 44.585938 175.261719 45.230469 176.550781 45.636719 177.925781 C 45.796875 178.410156 46.199219 178.488281 46.601562 178.570312 C 47.492188 178.730469 48.296875 178.410156 49.105469 178.003906 C 49.183594 177.925781 49.347656 177.84375 49.425781 177.761719 C 49.589844 177.601562 49.75 177.359375 49.910156 177.199219 C 49.992188 176.957031 49.992188 176.632812 50.394531 176.957031 C 50.476562 177.035156 50.554688 176.875 50.636719 176.875 C 50.960938 176.714844 51.203125 176.632812 51.523438 176.550781 C 50.960938 174.9375 50.878906 173.246094 49.832031 171.792969 C 50.152344 171.792969 50.234375 172.035156 50.3125 172.195312 C 51.039062 173.246094 51.445312 174.535156 51.6875 175.746094 C 52.007812 177.277344 53.785156 177.441406 54.75 176.714844 C 55.71875 175.988281 56.363281 175.101562 57.011719 174.132812 C 57.496094 173.488281 57.976562 172.839844 58.703125 172.4375 C 59.1875 172.195312 59.429688 171.710938 59.753906 171.308594 C 60.398438 170.5 61.207031 169.855469 62.011719 169.210938 C 66.449219 165.339844 71.210938 161.871094 75.324219 157.59375 C 77.019531 155.820312 78.632812 153.964844 80.082031 152.027344 C 80.808594 151.058594 81.214844 149.769531 81.617188 148.640625 C 82.503906 146.21875 83.070312 143.71875 83.390625 141.136719 C 83.714844 138.957031 83.957031 136.777344 84.117188 134.601562 C 84.277344 132.824219 84.441406 130.96875 84.441406 129.195312 C 84.441406 128.550781 84.601562 127.984375 84.519531 127.339844 C 84.359375 125.402344 84.359375 123.386719 84.277344 121.449219 C 84.277344 120.402344 84.035156 119.351562 83.792969 118.304688 C 83.148438 115.238281 83.390625 112.253906 84.601562 109.347656 C 85.8125 106.445312 86.457031 103.378906 87.101562 100.3125 C 87.585938 97.972656 88.152344 95.554688 88.636719 93.214844 C 88.957031 91.519531 89.199219 89.90625 89.605469 88.210938 C 90.25 86.277344 91.136719 83.9375 92.023438 81.515625 C 92.023438 81.597656 92.023438 81.515625 92.023438 81.515625 Z M 44.667969 166.871094 C 45.472656 166.546875 46.039062 165.742188 46.84375 165.417969 C 46.199219 166.144531 45.636719 166.789062 44.667969 166.871094 Z M 48.863281 176.148438 C 48.296875 175.585938 48.054688 174.777344 47.8125 174.050781 C 47.894531 174.050781 47.894531 173.972656 47.972656 173.972656 C 48.296875 174.695312 48.699219 175.34375 49.023438 176.070312 C 48.941406 176.148438 48.863281 176.148438 48.863281 176.148438 Z M 53.21875 173.246094 C 52.976562 172.839844 52.734375 172.4375 52.410156 172.035156 C 52.007812 171.550781 51.523438 171.390625 50.878906 171.46875 C 50.554688 171.46875 50.3125 171.710938 50.152344 171.953125 C 50.070312 172.035156 50.070312 172.277344 49.910156 172.117188 C 49.832031 172.035156 49.910156 171.875 49.910156 171.792969 C 50.070312 171.308594 50.71875 170.984375 51.28125 171.148438 C 51.925781 171.308594 52.492188 171.550781 52.894531 172.117188 C 53.460938 172.921875 53.785156 173.890625 54.023438 174.859375 C 53.621094 174.375 53.542969 173.808594 53.21875 173.246094 Z M 59.59375 169.855469 C 59.351562 170.019531 59.351562 169.777344 59.269531 169.695312 C 58.21875 168.484375 57.011719 167.679688 55.398438 167.839844 C 54.75 167.921875 54.105469 168.082031 53.460938 168.324219 C 54.992188 167.113281 57.011719 167.03125 58.625 168.40625 C 59.027344 168.726562 59.351562 169.050781 59.59375 169.453125 C 59.753906 169.535156 59.753906 169.695312 59.59375 169.855469 Z M 83.472656 113.464844 C 83.3125 113.542969 83.148438 113.464844 83.070312 113.382812 C 82.101562 112.496094 81.617188 111.367188 81.292969 110.15625 C 80.890625 108.703125 80.648438 107.171875 80.488281 105.71875 C 80.40625 105.074219 80.40625 104.429688 80.40625 103.78125 C 80.40625 103.703125 80.40625 103.621094 80.566406 103.621094 C 80.648438 104.347656 80.808594 104.992188 80.890625 105.71875 C 81.375 107.898438 81.699219 110.074219 82.828125 112.011719 C 83.070312 112.414062 83.3125 112.738281 83.472656 113.140625 C 83.554688 113.140625 83.632812 113.300781 83.472656 113.464844 Z M 83.472656 113.464844 " fill-opacity="1" fill-rule="nonzero"/></g><path fill="#f8c0b1" d="M 110.578125 206.804688 C 110.015625 206.726562 109.53125 207.046875 108.964844 206.96875 C 106.789062 206.726562 104.691406 206.644531 102.511719 206.644531 C 98.476562 206.644531 94.523438 206.484375 90.492188 206.242188 C 86.539062 206.082031 82.503906 206.242188 78.550781 206.402344 C 76.695312 206.484375 74.839844 206.644531 73.066406 206.242188 C 72.984375 206.242188 72.902344 206.242188 72.824219 206.242188 C 72.660156 206.160156 72.5 206.160156 72.339844 206.082031 C 72.339844 205.917969 72.097656 205.839844 71.933594 205.839844 C 71.773438 205.839844 71.695312 205.757812 71.53125 205.757812 C 70.726562 205.597656 69.917969 205.515625 69.113281 205.113281 C 68.546875 204.789062 68.386719 204.386719 68.546875 203.902344 C 68.707031 203.335938 69.515625 202.609375 69.917969 202.609375 C 71.371094 202.691406 72.902344 202.851562 74.355469 202.933594 C 76.855469 203.175781 79.277344 203.417969 81.777344 203.5 C 85.167969 203.578125 88.472656 203.5 91.863281 202.933594 C 95.171875 202.367188 98.398438 201.5625 101.542969 200.351562 C 103.398438 199.625 105.09375 198.578125 107.109375 198.253906 C 107.273438 198.253906 107.515625 198.09375 107.59375 198.175781 C 107.996094 198.578125 108.320312 198.175781 108.644531 198.011719 C 108.964844 197.851562 109.128906 197.933594 109.046875 198.335938 C 108.804688 200.109375 109.046875 201.886719 109.53125 203.578125 C 109.773438 204.628906 110.175781 205.675781 110.578125 206.804688 Z M 110.578125 206.804688 " fill-opacity="1" fill-rule="nonzero"/><path fill="#f8c0b1" d="M 114.453125 194.542969 C 115.984375 190.914062 114.773438 187.929688 112.757812 184.941406 C 114.128906 185.023438 115.339844 184.863281 116.46875 184.378906 C 117.355469 183.976562 118.242188 183.492188 119.210938 183.085938 C 120.339844 182.601562 121.46875 182.199219 122.679688 182.363281 C 123.328125 182.441406 123.890625 182.601562 124.457031 182.925781 C 126.554688 183.976562 128.488281 185.265625 130.507812 186.476562 C 130.910156 186.71875 131.234375 186.878906 131.714844 187.203125 C 125.585938 188.894531 120.019531 191.640625 114.453125 194.542969 Z M 114.453125 194.542969 " fill-opacity="1" fill-rule="nonzero"/><path fill="#f8c0b1" d="M 134.21875 163.644531 C 131.394531 164.453125 128.570312 164.933594 125.746094 165.417969 C 123.566406 165.742188 121.390625 166.066406 119.132812 166.386719 C 117.921875 166.546875 116.710938 166.628906 115.5 166.628906 C 114.453125 166.628906 113.402344 166.546875 112.355469 166.386719 C 112.03125 166.308594 111.789062 166.628906 111.546875 166.546875 C 110.742188 166.46875 110.015625 166.628906 109.207031 166.386719 C 108.722656 166.226562 108.160156 166.386719 107.675781 166.46875 C 106.464844 166.710938 105.253906 166.546875 104.042969 166.46875 C 102.511719 166.386719 100.980469 166.144531 99.367188 165.902344 C 97.429688 165.660156 95.414062 165.339844 93.476562 165.015625 C 91.21875 164.613281 88.957031 164.128906 86.699219 163.484375 C 86.375 163.402344 86.375 163.320312 86.457031 163 C 87.585938 159.609375 88.394531 156.0625 88.957031 152.511719 C 89.28125 150.734375 89.441406 149.042969 89.605469 147.265625 C 89.765625 145.410156 89.925781 143.476562 90.007812 141.621094 C 90.007812 141.214844 90.085938 141.136719 90.570312 141.214844 C 92.75 141.941406 95.089844 142.425781 97.347656 142.667969 C 99.042969 142.910156 100.816406 142.910156 102.511719 142.992188 C 103.480469 142.992188 104.367188 143.234375 105.253906 143.3125 C 106.949219 143.476562 108.5625 143.3125 110.175781 142.910156 C 110.417969 142.828125 110.578125 142.828125 110.820312 142.910156 C 112.433594 143.3125 114.128906 143.476562 115.824219 143.234375 C 117.921875 142.992188 120.097656 142.992188 122.195312 142.828125 C 125.019531 142.589844 127.84375 142.105469 130.507812 141.214844 C 131.070312 141.054688 131.070312 141.054688 131.070312 141.621094 C 131.152344 143.476562 131.3125 145.332031 131.472656 147.1875 C 131.957031 152.429688 133.007812 157.59375 134.621094 162.675781 C 134.863281 163.484375 134.863281 163.484375 134.21875 163.644531 Z M 134.21875 163.644531 " fill-opacity="1" fill-rule="nonzero"/><g clip-path="url(#2725b93320)"><path fill="#cb6ce6" d="M 182.460938 183.410156 C 181.414062 181.714844 179.878906 180.425781 178.347656 179.132812 C 178.105469 178.972656 177.863281 178.730469 177.621094 178.570312 C 177.378906 178.410156 177.21875 178.246094 176.976562 178.167969 C 176.652344 178.246094 176.332031 178.328125 176.007812 178.328125 C 176.007812 178.328125 175.925781 178.328125 175.925781 178.328125 C 175.925781 178.328125 175.925781 178.410156 175.925781 178.410156 C 175.765625 179.296875 175.039062 179.375 174.3125 179.457031 C 173.507812 179.617188 172.699219 179.375 172.054688 178.972656 C 171.972656 178.972656 171.972656 178.972656 171.894531 178.972656 C 171.410156 178.730469 171.085938 178.328125 170.84375 177.84375 C 170.441406 177.601562 169.957031 177.519531 169.554688 177.359375 C 169.390625 177.277344 169.230469 177.277344 169.070312 177.441406 C 168.101562 178.167969 167.132812 178.003906 166.164062 177.519531 C 165.195312 177.035156 164.472656 176.148438 163.824219 175.179688 C 163.339844 174.375 162.777344 173.730469 161.96875 173.246094 C 161.726562 173.082031 161.566406 173.082031 161.324219 173.082031 C 159.226562 173.082031 157.128906 172.839844 155.03125 172.679688 C 152.855469 172.519531 150.675781 172.359375 148.496094 172.277344 C 147.207031 172.195312 145.914062 172.195312 144.707031 172.195312 C 141.800781 172.195312 138.898438 172.597656 135.992188 173.246094 C 135.347656 173.40625 134.703125 173.488281 133.976562 173.648438 C 133.734375 173.730469 133.492188 173.730469 133.410156 173.488281 C 133.332031 173.246094 133.652344 173.164062 133.8125 173.082031 C 135.425781 172.597656 137.042969 172.117188 138.734375 171.792969 C 138.976562 171.710938 139.300781 171.875 139.140625 171.308594 C 138.734375 170.019531 138.089844 168.808594 137.6875 167.515625 C 137.523438 167.03125 137.523438 166.628906 137.363281 166.144531 C 137.203125 165.5 136.71875 164.933594 136.234375 164.453125 C 135.75 163.96875 135.1875 164.371094 134.703125 164.289062 C 133.570312 164.289062 132.605469 164.855469 131.554688 165.097656 C 130.507812 165.339844 129.375 165.660156 128.328125 165.824219 C 126.390625 166.226562 124.457031 166.546875 122.4375 166.789062 C 120.261719 167.113281 118.082031 167.355469 115.902344 167.355469 C 114.773438 167.355469 113.644531 167.355469 112.597656 167.03125 C 112.273438 166.953125 111.949219 167.113281 111.628906 167.113281 C 110.578125 167.113281 109.53125 167.195312 108.5625 167.03125 C 108.078125 166.953125 107.59375 167.195312 107.109375 167.273438 C 105.65625 167.4375 104.285156 167.355469 102.835938 167.273438 C 101.222656 167.195312 99.6875 166.953125 98.074219 166.789062 C 94.445312 166.308594 90.8125 165.742188 87.34375 164.53125 C 86.617188 164.289062 85.8125 164.453125 85.085938 164.128906 C 84.84375 164.046875 84.601562 164.210938 84.441406 164.453125 C 83.875 165.097656 83.390625 165.824219 83.230469 166.789062 C 83.070312 167.839844 82.585938 168.886719 82.101562 169.855469 C 81.859375 170.421875 81.695312 170.90625 81.457031 171.46875 C 81.375 171.792969 81.617188 171.710938 81.695312 171.710938 C 82.585938 171.953125 83.554688 172.117188 84.441406 172.359375 C 85.167969 172.519531 85.890625 172.761719 86.617188 172.921875 C 86.78125 172.921875 86.859375 173.003906 86.941406 173.082031 C 87.101562 173.164062 87.265625 173.246094 87.265625 173.40625 C 87.183594 173.648438 87.023438 173.648438 86.859375 173.648438 C 86.457031 173.648438 86.132812 173.566406 85.730469 173.488281 C 81.777344 172.597656 77.824219 172.117188 73.710938 172.277344 C 71.289062 172.359375 68.871094 172.519531 66.449219 172.761719 C 64.917969 172.921875 63.304688 172.921875 61.769531 173.082031 C 60.882812 173.164062 60.074219 173.164062 59.1875 173.164062 C 58.703125 173.164062 58.382812 173.566406 57.976562 173.808594 C 57.414062 174.292969 57.011719 174.9375 56.605469 175.503906 C 56.203125 176.148438 55.71875 176.714844 55.074219 177.199219 C 54.265625 177.84375 53.378906 178.167969 52.332031 178.003906 C 52.167969 178.003906 52.089844 178.003906 52.007812 177.925781 C 51.363281 177.277344 50.796875 177.683594 50.152344 177.925781 C 49.992188 178.003906 49.832031 178.085938 49.667969 178.167969 C 49.589844 178.328125 49.425781 178.410156 49.347656 178.570312 C 49.347656 178.730469 49.105469 178.890625 48.941406 178.972656 C 48.054688 179.699219 47.007812 179.941406 45.875 179.617188 C 45.472656 179.539062 45.3125 179.617188 45.070312 179.941406 C 44.261719 181.3125 43.699219 182.765625 43.375 184.296875 C 42.40625 188.574219 43.617188 192.285156 46.28125 195.671875 C 48.457031 198.414062 51.445312 199.949219 54.832031 200.59375 C 57.332031 201.078125 59.832031 201.160156 62.335938 201.320312 C 64.675781 201.402344 66.933594 201.5625 69.273438 201.804688 C 71.371094 201.964844 73.550781 202.128906 75.726562 202.367188 C 78.632812 202.609375 81.457031 202.851562 84.359375 202.851562 C 90.734375 202.773438 96.945312 201.480469 102.835938 199.0625 C 104.285156 198.496094 105.820312 198.335938 107.273438 197.851562 C 107.917969 197.609375 108.5625 197.691406 109.128906 197.207031 C 110.015625 197.449219 110.5 196.722656 111.144531 196.480469 C 111.871094 196.15625 112.515625 195.753906 113.160156 195.429688 C 113.402344 195.269531 113.484375 195.1875 113.484375 194.867188 C 113.5625 194.058594 113.804688 193.332031 113.886719 192.527344 C 114.128906 190.992188 113.726562 189.621094 113.160156 188.25 C 112.757812 187.28125 112.273438 186.394531 111.871094 185.425781 C 111.707031 185.105469 111.464844 185.105469 111.226562 185.105469 C 110.5 184.941406 109.773438 185.023438 109.046875 184.941406 C 107.191406 184.699219 105.335938 184.21875 103.558594 183.734375 C 99.203125 182.441406 94.847656 180.910156 90.410156 179.78125 C 87.667969 179.054688 84.925781 178.488281 82.179688 178.085938 C 78.875 177.601562 75.648438 177.519531 72.339844 177.601562 C 70.5625 177.683594 68.707031 177.84375 66.933594 178.085938 C 65.722656 178.246094 64.59375 178.328125 63.382812 178.570312 C 63.222656 178.570312 63.0625 178.648438 62.820312 178.410156 C 66.289062 177.683594 69.757812 177.199219 73.308594 176.957031 C 72.257812 176.714844 71.289062 176.632812 70.320312 176.550781 C 69.273438 176.472656 68.304688 176.390625 67.257812 176.390625 C 66.289062 176.390625 65.238281 176.390625 64.191406 176.472656 C 64.351562 176.230469 64.675781 176.230469 64.835938 176.230469 C 66.53125 176.070312 68.222656 176.070312 69.917969 176.148438 C 71.53125 176.230469 73.226562 176.472656 74.757812 176.957031 C 74.921875 177.035156 75.082031 176.957031 75.324219 176.957031 C 77.179688 176.875 79.035156 176.957031 80.808594 177.199219 C 84.519531 177.601562 88.152344 178.410156 91.699219 179.457031 C 95.976562 180.746094 100.171875 182.039062 104.449219 183.328125 C 106.304688 183.894531 108.238281 184.296875 110.175781 184.539062 C 110.578125 184.621094 110.984375 184.460938 111.464844 184.621094 C 111.464844 184.621094 111.546875 184.621094 111.546875 184.621094 C 111.871094 183.976562 112.03125 184.539062 112.191406 184.78125 C 112.515625 185.183594 112.917969 185.105469 113.242188 185.023438 C 114.53125 184.863281 115.660156 184.378906 116.792969 183.8125 C 118.082031 183.167969 119.375 182.523438 120.746094 182.199219 C 121.953125 181.957031 123.164062 182.121094 124.292969 182.683594 C 126.390625 183.734375 128.328125 185.023438 130.265625 186.316406 C 130.75 186.636719 131.3125 186.960938 131.796875 187.28125 C 132.039062 187.445312 132.28125 187.445312 132.605469 187.363281 C 135.023438 186.71875 137.523438 186.234375 140.027344 185.992188 C 142.929688 185.667969 145.835938 185.589844 148.738281 185.667969 C 150.109375 185.667969 151.5625 185.667969 152.933594 185.425781 C 154.546875 185.183594 156.160156 185.105469 157.855469 184.941406 C 159.46875 184.78125 161.082031 184.699219 162.695312 184.78125 C 163.90625 184.78125 165.195312 184.941406 166.40625 185.105469 C 166.488281 185.105469 166.570312 185.183594 166.648438 185.183594 C 166.8125 185.183594 166.890625 185.265625 166.890625 185.425781 C 166.890625 185.589844 166.730469 185.589844 166.570312 185.589844 C 165.84375 185.589844 165.035156 185.589844 164.308594 185.507812 C 162.777344 185.425781 161.242188 185.425781 159.710938 185.507812 C 158.5 185.589844 157.210938 185.667969 156 185.75 C 155.113281 185.832031 154.304688 185.832031 153.417969 185.992188 C 154.628906 186.152344 155.917969 186.234375 157.128906 186.476562 C 158.742188 186.71875 160.355469 186.878906 161.96875 187.203125 C 163.503906 187.445312 165.035156 187.765625 166.570312 188.089844 C 166.8125 188.171875 167.132812 188.171875 167.132812 188.414062 C 167.132812 188.734375 166.730469 188.574219 166.488281 188.574219 C 165.359375 188.492188 164.230469 188.332031 163.179688 188.171875 C 161.808594 188.007812 160.519531 187.765625 159.148438 187.605469 C 157.773438 187.445312 156.484375 187.28125 155.113281 187.121094 C 153.742188 186.960938 152.371094 186.878906 151 186.796875 C 148.417969 186.636719 145.753906 186.636719 143.171875 186.796875 C 138.65625 187.121094 134.21875 187.847656 129.941406 189.300781 C 125.101562 190.832031 120.421875 193.011719 115.824219 195.1875 C 113.804688 196.15625 111.789062 197.125 109.691406 198.011719 C 109.371094 198.175781 109.289062 198.335938 109.289062 198.65625 C 109.289062 202.046875 110.5 205.113281 111.707031 208.097656 C 111.789062 208.257812 111.871094 208.339844 112.113281 208.257812 C 113.726562 207.9375 115.339844 207.613281 116.871094 207.289062 C 118.808594 206.886719 120.746094 206.726562 122.761719 206.726562 C 125.34375 206.726562 127.84375 206.96875 130.425781 207.371094 C 132.363281 207.695312 134.21875 207.855469 136.152344 208.179688 C 138.25 208.5 140.429688 208.660156 142.527344 208.824219 C 145.429688 209.066406 148.417969 209.066406 151.320312 209.066406 C 153.335938 209.066406 155.355469 208.984375 157.289062 208.824219 C 164.714844 208.257812 171.652344 206.160156 177.863281 201.886719 C 180.203125 200.273438 182.21875 198.335938 183.347656 195.671875 C 185.527344 190.992188 184.800781 187.039062 182.460938 183.410156 Z M 58.625 195.429688 C 58.460938 195.511719 58.300781 195.671875 58.140625 195.671875 C 57.976562 195.671875 57.816406 195.671875 57.738281 195.511719 C 57.65625 195.351562 57.738281 195.269531 57.816406 195.1875 C 57.898438 195.027344 58.058594 194.867188 58.140625 194.703125 C 59.996094 192.929688 60.074219 190.75 59.269531 188.492188 C 59.1875 188.171875 59.027344 187.847656 58.867188 187.523438 C 58.785156 187.445312 58.703125 187.28125 58.785156 187.203125 C 58.945312 187.039062 59.027344 187.203125 59.1875 187.28125 C 59.429688 187.445312 59.59375 187.6875 59.753906 187.929688 C 60.480469 188.976562 60.800781 190.105469 60.800781 191.398438 C 60.800781 193.089844 60.074219 194.460938 58.625 195.429688 Z M 111.386719 186.152344 C 111.546875 186.074219 111.628906 186.316406 111.707031 186.394531 C 112.433594 187.605469 112.757812 188.894531 112.917969 190.269531 C 113 190.671875 113 191.074219 113 191.476562 C 112.917969 191.960938 112.839844 192.445312 112.757812 193.011719 C 112.757812 193.171875 112.675781 193.414062 112.433594 193.332031 C 112.273438 193.332031 112.191406 193.089844 112.191406 192.929688 C 112.191406 192.203125 112.113281 191.476562 112.113281 190.671875 C 112.113281 189.21875 111.789062 187.847656 111.304688 186.476562 C 111.386719 186.476562 111.226562 186.316406 111.386719 186.152344 Z M 110.984375 169.777344 C 112.757812 169.777344 114.613281 169.695312 116.386719 169.535156 C 118.890625 169.371094 121.308594 168.96875 123.808594 168.484375 C 127.039062 167.839844 130.265625 167.113281 133.410156 166.308594 C 133.8125 166.226562 134.21875 166.144531 134.539062 165.984375 C 134.703125 165.902344 134.945312 165.824219 134.945312 166.066406 C 135.023438 166.226562 134.78125 166.308594 134.621094 166.386719 C 133.570312 166.789062 132.523438 167.195312 131.472656 167.4375 C 128.570312 168.242188 125.664062 168.886719 122.761719 169.453125 C 121.390625 169.695312 119.9375 169.855469 118.566406 170.019531 C 117.757812 170.097656 116.953125 170.019531 115.824219 170.179688 C 114.695312 170.179688 113.402344 170.179688 112.03125 170.019531 C 111.707031 170.019531 111.304688 170.019531 110.984375 170.019531 C 110.820312 170.019531 110.660156 170.019531 110.660156 169.855469 C 110.660156 169.695312 110.902344 169.777344 110.984375 169.777344 Z M 107.917969 175.421875 C 108.5625 175.503906 109.207031 175.503906 109.933594 175.503906 C 111.628906 175.585938 113.324219 175.503906 115.015625 175.261719 C 115.582031 175.179688 116.226562 175.101562 116.792969 175.101562 C 116.953125 175.101562 117.195312 175.019531 117.195312 175.179688 C 117.195312 175.34375 116.953125 175.421875 116.792969 175.421875 C 115.984375 175.585938 115.179688 175.746094 114.371094 175.828125 C 113.160156 175.988281 112.03125 176.070312 110.820312 175.988281 C 109.449219 175.90625 108.078125 175.828125 106.707031 175.421875 C 106.625 175.421875 106.625 175.34375 106.464844 175.261719 C 107.03125 175.179688 107.433594 175.34375 107.917969 175.421875 Z M 103.964844 173.082031 C 104.851562 172.921875 105.738281 172.761719 106.625 173.082031 C 105.738281 173.324219 104.851562 173.082031 103.964844 173.082031 Z M 89.121094 166.386719 C 91.78125 167.195312 94.523438 168 97.269531 168.40625 C 98.882812 168.644531 100.496094 168.808594 102.027344 168.886719 C 103.480469 168.96875 104.933594 169.050781 106.382812 169.210938 C 106.546875 169.210938 106.867188 169.210938 106.789062 169.453125 C 106.789062 169.695312 106.546875 169.695312 106.304688 169.695312 C 104.207031 169.695312 102.027344 169.695312 99.929688 169.535156 C 95.734375 169.210938 91.78125 168.082031 87.910156 166.386719 C 87.585938 166.226562 87.183594 166.066406 86.941406 165.660156 C 87.746094 165.984375 88.472656 166.226562 89.121094 166.386719 Z M 85.488281 168.082031 C 85.328125 167.921875 85.085938 167.839844 84.925781 167.679688 C 84.84375 167.597656 84.761719 167.515625 84.84375 167.355469 C 84.925781 167.273438 85.003906 167.355469 85.085938 167.355469 C 88.394531 169.292969 91.941406 170.019531 95.652344 170.664062 C 97.429688 170.984375 99.125 171.390625 100.898438 171.792969 C 100.980469 171.792969 101.058594 171.792969 101.140625 171.875 C 101.222656 171.953125 101.382812 171.953125 101.300781 172.117188 C 101.300781 172.195312 101.140625 172.195312 101.058594 172.195312 C 100.980469 172.195312 100.898438 172.195312 100.738281 172.195312 C 100.011719 172.035156 99.125 171.953125 98.316406 171.792969 C 96.542969 171.46875 94.765625 171.148438 92.992188 170.824219 C 90.328125 170.339844 87.746094 169.613281 85.488281 168.082031 Z M 93.074219 173.082031 C 93.074219 173.164062 92.910156 173.246094 92.832031 173.164062 C 92.183594 172.921875 91.539062 172.839844 90.976562 172.519531 C 90.894531 172.4375 90.8125 172.4375 90.8125 172.359375 C 90.8125 172.277344 90.894531 172.277344 91.136719 172.277344 C 91.699219 172.4375 92.347656 172.679688 92.992188 172.921875 C 93.074219 172.921875 93.152344 173.003906 93.074219 173.082031 Z M 122.519531 176.550781 C 121.230469 176.875 119.9375 177.035156 118.566406 177.199219 C 116.226562 177.519531 113.886719 177.683594 111.46875 177.683594 C 107.351562 177.683594 103.398438 176.714844 99.527344 175.34375 C 98.15625 174.859375 96.785156 174.292969 95.492188 173.566406 C 95.332031 173.488281 95.171875 173.40625 95.089844 173.246094 C 95.816406 173.40625 96.460938 173.730469 97.105469 173.972656 C 100.089844 175.019531 103.078125 175.90625 106.222656 176.472656 C 108.480469 176.875 110.742188 176.957031 113.082031 176.875 C 114.9375 176.875 116.710938 176.714844 118.566406 176.550781 C 119.855469 176.472656 121.066406 176.230469 122.359375 176.070312 C 122.601562 176.070312 122.84375 176.070312 122.84375 176.230469 C 122.921875 176.472656 122.679688 176.472656 122.519531 176.550781 Z M 130.425781 174.695312 C 129.214844 175.101562 128.003906 175.34375 126.796875 175.585938 C 126.554688 175.664062 126.3125 175.828125 125.90625 175.585938 C 126.714844 175.179688 127.441406 175.019531 128.246094 174.859375 C 128.894531 174.695312 129.617188 174.535156 130.265625 174.375 C 130.425781 174.375 130.667969 174.292969 130.667969 174.457031 C 130.75 174.617188 130.507812 174.695312 130.425781 174.695312 Z M 131.636719 172.519531 C 130.992188 172.679688 130.34375 172.839844 129.78125 173.003906 C 128.085938 173.40625 126.3125 173.648438 124.535156 173.972656 C 124.375 173.972656 124.214844 174.050781 123.972656 173.808594 C 125.101562 173.566406 126.148438 173.324219 127.117188 173.082031 C 128.488281 172.761719 129.941406 172.4375 131.3125 172.117188 C 131.394531 172.117188 131.472656 172.117188 131.554688 172.117188 C 131.636719 172.117188 131.878906 172.035156 131.878906 172.277344 C 131.957031 172.4375 131.796875 172.519531 131.636719 172.519531 Z M 126.957031 171.308594 C 125.664062 171.550781 124.375 171.710938 123.085938 171.792969 C 122.195312 171.875 121.390625 171.953125 120.421875 171.953125 C 120.261719 171.953125 119.855469 171.875 119.535156 172.035156 C 119.453125 172.035156 119.292969 172.035156 119.292969 171.953125 C 119.292969 171.792969 119.375 171.792969 119.535156 171.792969 C 120.339844 171.792969 121.066406 171.710938 121.875 171.632812 C 123.488281 171.46875 125.019531 171.226562 126.554688 170.90625 C 129.941406 170.261719 133.167969 169.128906 136.394531 168.242188 C 136.636719 168.164062 136.960938 167.921875 137.042969 168.242188 C 137.121094 168.566406 136.71875 168.566406 136.476562 168.644531 C 133.410156 169.695312 130.183594 170.664062 126.957031 171.308594 Z M 112.355469 205.113281 C 111.386719 203.660156 110.820312 202.046875 110.742188 200.273438 C 110.742188 200.03125 110.660156 199.789062 110.660156 199.464844 C 110.742188 198.980469 110.742188 198.578125 110.820312 198.09375 C 110.820312 197.933594 110.820312 197.691406 110.984375 197.769531 C 111.144531 197.769531 111.144531 198.011719 111.144531 198.175781 C 111.226562 199.546875 111.386719 200.917969 111.871094 202.289062 C 112.191406 203.09375 112.515625 203.984375 112.839844 204.789062 C 112.917969 204.949219 113.082031 205.191406 112.839844 205.273438 C 112.597656 205.515625 112.515625 205.273438 112.355469 205.113281 Z M 113.160156 207.046875 C 112.839844 207.210938 112.839844 206.726562 112.675781 206.5625 C 112.597656 206.484375 112.597656 206.320312 112.515625 206.242188 C 112.515625 206.160156 112.515625 206.082031 112.675781 206 C 112.839844 206.082031 113 206.242188 113 206.402344 C 113.160156 206.644531 113.484375 206.96875 113.160156 207.046875 Z M 169.070312 201.320312 C 168.988281 201.5625 168.828125 201.644531 168.585938 201.5625 C 167.292969 201.402344 166.246094 200.753906 165.601562 199.625 C 165.035156 198.738281 164.792969 197.691406 164.875 196.558594 C 164.875 195.996094 164.875 195.429688 165.117188 194.867188 C 165.117188 194.703125 165.199219 194.542969 165.359375 194.625 C 165.519531 194.625 165.519531 194.785156 165.601562 194.945312 C 165.679688 195.914062 165.84375 196.964844 166.164062 197.933594 C 166.570312 198.980469 167.214844 199.707031 168.183594 200.273438 C 168.425781 200.433594 168.667969 200.59375 168.910156 200.753906 C 169.070312 200.917969 169.152344 201.078125 169.070312 201.320312 Z M 169.070312 201.320312 " fill-opacity="1" fill-rule="nonzero"/></g><path fill="#cb6ce6" d="M 121.550781 28.269531 C 121.066406 27.785156 120.421875 27.542969 119.777344 27.382812 C 117.355469 26.738281 114.855469 26.171875 112.433594 25.445312 C 111.386719 25.125 110.902344 25.445312 110.335938 26.253906 C 110.257812 26.414062 110.175781 26.496094 110.175781 26.574219 C 110.09375 26.898438 110.257812 27.140625 110.578125 27.300781 C 110.660156 27.300781 110.660156 27.300781 110.742188 27.382812 C 111.0625 27.460938 111.386719 27.542969 111.789062 27.625 C 113.242188 27.785156 114.613281 28.1875 115.984375 28.835938 C 115.984375 28.835938 116.066406 28.835938 116.066406 28.914062 C 116.144531 28.914062 116.226562 28.914062 116.226562 28.914062 C 116.386719 29.15625 116.710938 29.238281 116.953125 29.398438 C 117.277344 29.558594 117.515625 29.640625 117.679688 29.964844 C 118.566406 30.367188 119.613281 30.527344 120.664062 30.527344 C 120.824219 30.527344 120.988281 30.527344 121.066406 30.527344 C 121.390625 30.609375 121.710938 30.691406 121.953125 30.933594 C 121.953125 30.851562 121.953125 30.851562 122.035156 30.769531 C 122.035156 30.609375 122.117188 30.527344 122.117188 30.367188 C 122.4375 29.558594 122.277344 28.835938 121.550781 28.269531 Z M 112.839844 26.898438 C 112.597656 26.898438 112.355469 26.816406 112.113281 26.738281 C 111.871094 26.65625 111.628906 26.574219 111.386719 26.496094 C 111.304688 26.496094 111.226562 26.414062 111.226562 26.332031 C 111.226562 26.253906 111.304688 26.171875 111.386719 26.253906 C 111.949219 26.414062 112.515625 26.496094 113.082031 26.574219 C 113.242188 26.574219 113.402344 26.65625 113.5625 26.65625 C 113.644531 26.65625 113.726562 26.738281 113.886719 26.738281 C 113.96875 26.738281 113.96875 26.816406 114.128906 26.980469 C 113.644531 26.980469 113.242188 26.898438 112.839844 26.898438 Z M 118.726562 28.59375 C 117.839844 28.429688 117.035156 28.109375 116.308594 27.625 C 116.308594 27.542969 116.308594 27.542969 116.386719 27.460938 C 117.035156 27.703125 117.679688 27.945312 118.324219 28.269531 C 118.484375 28.351562 118.648438 28.429688 118.808594 28.429688 C 118.808594 28.511719 118.808594 28.511719 118.726562 28.59375 Z M 122.035156 30.125 C 121.953125 30.207031 121.875 30.125 121.875 30.125 C 121.550781 29.882812 121.148438 29.640625 120.746094 29.320312 C 121.230469 29.238281 121.953125 29.640625 122.117188 29.964844 C 122.117188 29.964844 122.117188 30.042969 122.035156 30.125 Z M 122.035156 30.125 " fill-opacity="1" fill-rule="nonzero"/><path fill="#e71111" d="M 123.648438 60.863281 C 123.164062 61.832031 122.679688 62.800781 122.035156 63.6875 C 121.792969 64.007812 121.550781 64.25 121.390625 64.574219 C 121.875 63.363281 122.4375 62.152344 122.921875 61.023438 C 123.085938 60.703125 123.40625 60.703125 123.648438 60.703125 C 123.730469 60.539062 123.648438 60.78125 123.648438 60.863281 Z M 123.648438 60.863281 " fill-opacity="1" fill-rule="nonzero"/><path fill="#e71111" d="M 99.847656 64.492188 C 98.960938 63.523438 98.15625 62.394531 97.589844 61.105469 C 97.511719 60.945312 97.269531 60.703125 97.511719 60.621094 C 97.671875 60.539062 98.074219 60.621094 98.234375 60.863281 C 98.316406 60.945312 98.316406 61.105469 98.398438 61.265625 C 98.882812 62.316406 99.367188 63.445312 99.847656 64.492188 Z M 99.847656 64.492188 " fill-opacity="1" fill-rule="nonzero"/><path fill="#e71111" d="M 128.8125 47.550781 C 128.652344 48.84375 128.328125 50.132812 127.84375 51.421875 C 127.761719 51.183594 127.761719 50.941406 127.683594 50.777344 C 127.359375 49.566406 126.472656 49.164062 125.34375 49.648438 C 124.859375 49.808594 124.457031 50.132812 123.972656 50.535156 C 123.972656 50.214844 123.972656 49.890625 123.890625 49.648438 C 123.730469 48.601562 123.730469 47.550781 123.890625 46.582031 C 123.972656 45.453125 123.972656 44.40625 123.730469 43.355469 C 123.164062 41.257812 122.117188 39.402344 120.746094 37.789062 C 118.808594 35.53125 116.386719 33.996094 113.484375 33.191406 C 112.515625 32.949219 111.46875 32.789062 110.742188 33.753906 C 110.578125 33.996094 110.5 33.753906 110.335938 33.675781 C 109.933594 33.273438 109.53125 33.03125 108.964844 33.03125 C 108.402344 33.03125 107.753906 33.109375 107.191406 33.351562 C 102.914062 34.722656 99.929688 37.464844 97.992188 41.417969 C 97.269531 42.953125 96.863281 44.566406 97.027344 46.261719 C 97.1875 47.710938 97.105469 49.164062 97.027344 50.617188 C 94.765625 49.003906 93.960938 49.246094 93.234375 51.503906 C 92.183594 48.921875 91.941406 46.179688 92.425781 43.597656 C 92.910156 41.015625 93.878906 38.675781 95.25 36.5 C 96.785156 33.996094 98.640625 31.898438 100.816406 30.042969 C 102.109375 28.996094 103.480469 27.945312 105.011719 27.382812 C 106.789062 26.738281 108.5625 26.414062 110.335938 27.625 C 110.335938 27.625 110.335938 27.542969 110.335938 27.542969 C 110.417969 27.542969 110.5 27.625 110.5 27.625 C 110.578125 27.625 110.578125 27.625 110.660156 27.703125 C 110.984375 27.785156 111.304688 27.867188 111.707031 27.945312 C 113.160156 28.109375 114.53125 28.511719 115.902344 29.15625 C 115.902344 29.15625 115.984375 29.15625 115.984375 29.238281 C 116.066406 29.238281 116.144531 29.238281 116.144531 29.238281 C 116.308594 29.480469 116.628906 29.558594 116.871094 29.722656 C 117.195312 29.882812 117.4375 29.964844 117.597656 30.285156 C 118.484375 30.691406 119.535156 30.851562 120.582031 30.851562 C 120.746094 30.851562 120.90625 30.851562 120.988281 30.851562 C 123.730469 33.351562 125.90625 36.257812 127.359375 39.726562 C 128.003906 41.257812 128.410156 42.792969 128.652344 44.40625 C 128.972656 45.292969 128.972656 46.421875 128.8125 47.550781 Z M 128.8125 47.550781 " fill-opacity="1" fill-rule="nonzero"/><path fill="#e71111" d="M 106.625 44.164062 C 106.140625 43.839844 105.417969 43.839844 104.851562 43.839844 C 104.207031 43.839844 103.640625 43.839844 102.996094 43.921875 C 102.429688 44 101.785156 44.164062 101.222656 44.324219 C 100.65625 44.566406 100.171875 44.890625 99.605469 45.210938 C 99.367188 45.371094 99.527344 45.777344 99.769531 45.613281 C 100.253906 45.453125 100.816406 45.292969 101.382812 45.210938 C 101.945312 45.050781 102.511719 44.96875 103.078125 44.890625 C 103.640625 44.808594 104.207031 44.808594 104.769531 44.808594 C 105.335938 44.808594 105.980469 45.050781 106.464844 44.890625 C 106.867188 44.96875 106.867188 44.40625 106.625 44.164062 Z M 106.625 44.164062 " fill-opacity="1" fill-rule="nonzero"/><path fill="#e71111" d="M 106.464844 49.648438 C 106.222656 49.730469 106.0625 49.890625 105.898438 50.050781 C 105.738281 50.214844 105.496094 50.292969 105.253906 50.457031 C 104.851562 50.699219 104.367188 50.777344 103.882812 50.777344 C 102.914062 50.859375 101.867188 50.375 101.222656 49.648438 C 101.058594 49.40625 100.65625 49.730469 100.816406 49.972656 C 101.542969 50.941406 102.671875 51.585938 103.882812 51.585938 C 104.449219 51.585938 105.09375 51.421875 105.65625 51.101562 C 106.140625 50.859375 106.789062 50.375 106.867188 49.808594 C 106.867188 49.648438 106.707031 49.566406 106.464844 49.648438 Z M 106.464844 49.648438 " fill-opacity="1" fill-rule="nonzero"/><path fill="#e71111" d="M 114.53125 44.164062 C 115.015625 43.839844 115.742188 43.839844 116.308594 43.839844 C 116.953125 43.839844 117.515625 43.839844 118.164062 43.921875 C 118.726562 44 119.375 44.164062 119.9375 44.324219 C 120.503906 44.566406 120.988281 44.890625 121.550781 45.210938 C 121.792969 45.371094 121.632812 45.777344 121.390625 45.613281 C 120.90625 45.453125 120.339844 45.292969 119.777344 45.210938 C 119.210938 45.050781 118.648438 44.96875 118.082031 44.890625 C 117.515625 44.808594 116.953125 44.808594 116.386719 44.808594 C 115.824219 44.808594 115.179688 45.050781 114.695312 44.890625 C 114.210938 44.96875 114.210938 44.40625 114.53125 44.164062 Z M 114.53125 44.164062 " fill-opacity="1" fill-rule="nonzero"/><path fill="#e71111" d="M 114.613281 49.648438 C 114.855469 49.730469 115.015625 49.890625 115.179688 50.050781 C 115.339844 50.214844 115.582031 50.292969 115.824219 50.457031 C 116.226562 50.699219 116.710938 50.777344 117.195312 50.777344 C 118.164062 50.859375 119.210938 50.375 119.855469 49.648438 C 120.019531 49.40625 120.421875 49.730469 120.261719 49.972656 C 119.535156 50.941406 118.40625 51.585938 117.195312 51.585938 C 116.628906 51.585938 115.984375 51.421875 115.421875 51.101562 C 114.9375 50.859375 114.289062 50.375 114.210938 49.808594 C 114.289062 49.648438 114.453125 49.566406 114.613281 49.648438 Z M 114.613281 49.648438 " fill-opacity="1" fill-rule="nonzero"/><path fill="#e71111" d="M 109.53125 58.925781 C 109.289062 58.683594 109.289062 58.28125 109.371094 57.957031 C 109.53125 57.230469 109.933594 56.507812 110.175781 55.699219 C 110.660156 54.246094 110.742188 52.714844 110.5 51.183594 C 110.5 51.019531 110.175781 51.019531 110.175781 51.261719 C 110.257812 53.117188 109.933594 54.972656 109.207031 56.667969 C 108.886719 57.394531 108.480469 58.199219 108.804688 59.007812 C 108.964844 59.410156 109.933594 60.296875 110.335938 59.652344 C 110.417969 59.570312 110.417969 59.410156 110.335938 59.328125 C 110.015625 59.089844 109.691406 59.167969 109.53125 58.925781 Z M 109.53125 58.925781 " fill-opacity="1" fill-rule="nonzero"/><path fill="#e71111" d="M 114.210938 63.765625 C 113.5625 64.007812 113 64.25 112.355469 64.414062 C 111.707031 64.574219 110.984375 64.734375 110.257812 64.734375 C 108.886719 64.816406 107.433594 64.492188 106.222656 63.847656 C 105.980469 63.6875 105.738281 64.089844 105.980469 64.25 C 107.273438 65.058594 108.722656 65.460938 110.257812 65.460938 C 111.707031 65.460938 113.402344 65.058594 114.453125 64.089844 C 114.613281 64.007812 114.453125 63.6875 114.210938 63.765625 Z M 114.210938 63.765625 " fill-opacity="1" fill-rule="nonzero"/><path fill="#e71111" d="M 111.871094 66.429688 C 111.46875 66.269531 110.902344 66.429688 110.5 66.429688 C 110.015625 66.429688 109.449219 66.347656 108.964844 66.269531 C 108.644531 66.1875 108.5625 66.589844 108.804688 66.671875 C 109.371094 66.832031 109.851562 66.996094 110.417969 66.996094 C 110.902344 66.996094 111.546875 66.996094 111.871094 66.671875 C 112.113281 66.671875 112.03125 66.511719 111.871094 66.429688 Z M 111.871094 66.429688 " fill-opacity="1" fill-rule="nonzero"/><path fill="#e71111" d="M 126.472656 23.507812 C 126.390625 25.285156 125.425781 26.738281 124.132812 27.945312 C 123.972656 28.109375 123.808594 28.1875 123.648438 28.351562 C 123.328125 28.59375 123.085938 28.914062 122.679688 28.996094 C 122.4375 28.996094 122.195312 28.511719 121.953125 28.351562 C 121.230469 27.703125 120.339844 27.382812 119.453125 27.140625 C 117.035156 26.496094 114.695312 25.929688 112.273438 25.285156 C 111.871094 25.203125 111.46875 25.203125 111.0625 25.285156 C 110.742188 25.285156 110.660156 25.203125 110.578125 24.960938 C 110.015625 23.269531 110.175781 21.574219 110.902344 20.039062 C 111.949219 18.023438 113.726562 16.976562 115.824219 16.328125 C 116.550781 16.085938 117.277344 16.007812 117.921875 16.007812 C 120.503906 15.925781 122.601562 16.652344 124.375 18.265625 C 125.828125 19.71875 126.632812 21.410156 126.472656 23.507812 Z M 126.472656 23.507812 " fill-opacity="1" fill-rule="nonzero"/></svg>