<svg width="16" height="16" viewBox="0 0 16 16" fill="none" xmlns="http://www.w3.org/2000/svg">
<path d="M7.99992 1.3335C11.6799 1.3335 14.6666 4.32016 14.6666 8.00016C14.6666 11.6802 11.6799 14.6668 7.99992 14.6668C4.31992 14.6668 1.33325 11.6802 1.33325 8.00016C1.33325 4.32016 4.31992 1.3335 7.99992 1.3335ZM7.99992 2.66683C5.05325 2.66683 2.66659 5.0535 2.66659 8.00016C2.66659 10.9468 5.05325 13.3335 7.99992 13.3335C10.9466 13.3335 13.3333 10.9468 13.3333 8.00016C13.3333 5.0535 10.9466 2.66683 7.99992 2.66683ZM7.99992 4.66683C9.21325 4.66683 10.2753 5.3155 10.8586 6.2855L9.71592 6.9715C9.53609 6.67166 9.28081 6.4242 8.97552 6.25379C8.67023 6.08339 8.3256 5.99599 7.976 6.00032C7.62639 6.00464 7.28403 6.10054 6.98305 6.27844C6.68207 6.45635 6.43299 6.71005 6.26063 7.01424C6.08828 7.31844 5.99868 7.6625 6.00077 8.01212C6.00286 8.36175 6.09657 8.70471 6.27255 9.00682C6.44853 9.30894 6.70063 9.55964 7.00372 9.73393C7.30681 9.90822 7.65029 10 7.99992 10.0002C8.34534 10.0004 8.68493 9.91109 8.98555 9.74097C9.28618 9.57085 9.53759 9.32572 9.71525 9.0295L10.8586 9.71483C10.4839 10.3406 9.91435 10.8261 9.2372 11.0971C8.56005 11.368 7.81273 11.4093 7.10985 11.2146C6.40697 11.02 5.78735 10.6002 5.34601 10.0195C4.90467 9.43888 4.666 8.72949 4.66658 8.00016C4.66659 6.16016 6.15992 4.66683 7.99992 4.66683Z" fill="white"/>
</svg>
