<svg width="3542" height="10307" viewBox="0 0 3542 10307" fill="none" xmlns="http://www.w3.org/2000/svg">
<g opacity="0.2" filter="url(#filter0_f_135_762)">
<ellipse cx="185.306" cy="183.927" rx="185.306" ry="183.927" transform="matrix(0.788043 0.61562 -0.642928 0.765926 2267.75 4912.46)" fill="url(#paint0_linear_135_762)"/>
<path d="M2441.16 5281.19C2376.03 5358.77 2258.03 5370.74 2177.59 5307.91C2097.16 5245.07 2084.76 5131.23 2149.89 5053.65C2215.02 4976.06 2333.02 4964.09 2413.45 5026.92C2493.89 5089.76 2506.29 5203.6 2441.16 5281.19Z" stroke="black"/>
</g>
<g opacity="0.2" filter="url(#filter1_f_135_762)">
<ellipse cx="185.306" cy="183.927" rx="185.306" ry="183.927" transform="matrix(0.788043 0.61562 -0.642928 0.765926 1437.21 5838.76)" fill="url(#paint1_linear_135_762)"/>
<path d="M1610.62 6207.48C1545.49 6285.07 1427.49 6297.04 1347.06 6234.21C1266.62 6171.37 1254.22 6057.53 1319.35 5979.94C1384.48 5902.35 1502.48 5890.39 1582.92 5953.22C1663.35 6016.06 1675.75 6129.9 1610.62 6207.48Z" stroke="black"/>
</g>
<g opacity="0.2" filter="url(#filter2_f_135_762)">
<ellipse cx="277.959" cy="275.891" rx="277.959" ry="275.891" transform="matrix(0.788043 0.61562 -0.642928 0.765926 3011.72 9542.14)" fill="url(#paint2_linear_135_762)"/>
<path d="M3272.03 10095.4C3174.25 10211.9 2997.09 10229.8 2876.33 10135.5C2755.57 10041.2 2736.95 9870.25 2834.73 9753.76C2932.52 9637.27 3109.68 9619.31 3230.44 9713.64C3351.2 9807.98 3369.82 9978.89 3272.03 10095.4Z" stroke="black"/>
</g>
<g opacity="0.2" filter="url(#filter3_f_135_762)">
<ellipse cx="370.612" cy="367.854" rx="370.612" ry="367.854" transform="matrix(0.788043 0.61562 -0.642928 0.765926 504.951 5004.91)" fill="url(#paint3_linear_135_762)"/>
<path d="M852.169 5742.66C721.731 5898.06 485.407 5922.02 324.323 5796.18C163.239 5670.34 138.404 5442.36 268.841 5286.97C399.279 5131.58 635.603 5107.61 796.687 5233.45C957.772 5359.29 982.607 5587.27 852.169 5742.66Z" stroke="black"/>
</g>
<g opacity="0.2" filter="url(#filter4_f_135_762)">
<ellipse cx="370.612" cy="367.854" rx="370.612" ry="367.854" transform="matrix(0.788043 0.61562 -0.642928 0.765926 516.225 6690.74)" fill="url(#paint4_linear_135_762)"/>
<path d="M863.442 7428.49C733.005 7583.88 496.681 7607.85 335.596 7482.01C174.512 7356.17 149.677 7128.19 280.115 6972.8C410.553 6817.4 646.877 6793.44 807.961 6919.28C969.045 7045.12 993.88 7273.1 863.442 7428.49Z" stroke="black"/>
</g>
<g opacity="0.2" filter="url(#filter5_f_135_762)">
<ellipse cx="370.612" cy="367.854" rx="370.612" ry="367.854" transform="matrix(0.788043 0.61562 -0.642928 0.765926 2957.1 7979.58)" fill="url(#paint5_linear_135_762)"/>
<path d="M3304.32 8717.33C3173.88 8872.73 2937.56 8896.69 2776.47 8770.85C2615.39 8645.01 2590.55 8417.03 2720.99 8261.64C2851.43 8106.25 3087.75 8082.28 3248.84 8208.12C3409.92 8333.96 3434.75 8561.94 3304.32 8717.33Z" stroke="black"/>
</g>
<g opacity="0.2" filter="url(#filter6_f_135_762)">
<ellipse cx="185.306" cy="183.927" rx="185.306" ry="183.927" transform="matrix(0.788043 0.61562 -0.642928 0.765926 2314.72 192.148)" fill="url(#paint6_linear_135_762)"/>
<path d="M2488.13 560.871C2423 638.459 2305 650.428 2224.57 587.592C2144.13 524.756 2131.73 410.919 2196.86 333.33C2261.99 255.742 2379.99 243.773 2460.43 306.609C2540.86 369.445 2553.26 483.282 2488.13 560.871Z" stroke="black"/>
</g>
<g opacity="0.2" filter="url(#filter7_f_135_762)">
<ellipse cx="277.959" cy="275.891" rx="277.959" ry="275.891" transform="matrix(0.788043 0.61562 -0.642928 0.765926 3058.69 2048.37)" fill="url(#paint7_linear_135_762)"/>
<path d="M3319.01 2601.61C3221.23 2718.1 3044.06 2736.07 2923.3 2641.73C2802.54 2547.39 2783.93 2376.48 2881.71 2259.99C2979.49 2143.5 3156.66 2125.53 3277.42 2219.87C3398.18 2314.21 3416.79 2485.12 3319.01 2601.61Z" stroke="black"/>
</g>
<g opacity="0.2" filter="url(#filter8_f_135_762)">
<ellipse cx="277.959" cy="275.891" rx="277.959" ry="275.891" transform="matrix(0.788043 0.61562 -0.642928 0.765926 405.489 3310.02)" fill="url(#paint8_linear_135_762)"/>
<path d="M665.804 3863.26C568.021 3979.75 390.858 3997.72 270.098 3903.38C149.339 3809.04 130.722 3638.13 228.505 3521.64C326.289 3405.15 503.452 3387.18 624.211 3481.52C744.971 3575.86 763.587 3746.77 665.804 3863.26Z" stroke="black"/>
</g>
<g opacity="0.2" filter="url(#filter9_f_135_762)">
<ellipse cx="370.612" cy="367.854" rx="370.612" ry="367.854" transform="matrix(0.788043 0.61562 -0.642928 0.765926 2912 690.645)" fill="url(#paint9_linear_135_762)"/>
<path d="M3259.22 1428.4C3128.78 1583.79 2892.46 1607.76 2731.37 1481.92C2570.29 1356.08 2545.45 1128.09 2675.89 972.702C2806.33 817.31 3042.65 793.345 3203.74 919.184C3364.82 1045.02 3389.66 1273.01 3259.22 1428.4Z" stroke="black"/>
</g>
<g opacity="0.2" filter="url(#filter10_f_135_762)">
<ellipse cx="370.612" cy="367.854" rx="370.612" ry="367.854" transform="matrix(0.788043 0.61562 -0.642928 0.765926 473.008 1622.38)" fill="url(#paint10_linear_135_762)"/>
<path d="M820.226 2360.14C689.788 2515.53 453.464 2539.49 292.38 2413.65C131.295 2287.81 106.461 2059.83 236.898 1904.44C367.336 1749.05 603.66 1725.08 764.744 1850.92C925.828 1976.76 950.663 2204.74 820.226 2360.14Z" stroke="black"/>
</g>
<g opacity="0.2" filter="url(#filter11_f_135_762)">
<ellipse cx="370.612" cy="367.854" rx="370.612" ry="367.854" transform="matrix(0.788043 0.61562 -0.642928 0.765926 2940.19 3743.26)" fill="url(#paint11_linear_135_762)"/>
<path d="M3287.4 4481.01C3156.97 4636.41 2920.64 4660.37 2759.56 4534.53C2598.47 4408.69 2573.64 4180.71 2704.08 4025.32C2834.51 3869.93 3070.84 3845.96 3231.92 3971.8C3393.01 4097.64 3417.84 4325.62 3287.4 4481.01Z" stroke="black"/>
</g>
<g opacity="0.2" filter="url(#filter12_f_135_762)">
<ellipse cx="370.612" cy="367.854" rx="370.612" ry="367.854" transform="matrix(0.788043 0.61562 -0.642928 0.765926 482.402 0)" fill="url(#paint12_linear_135_762)"/>
<path d="M829.62 737.753C699.183 893.145 462.858 917.111 301.774 791.271C140.69 665.432 115.855 437.449 246.293 282.057C376.73 126.665 613.054 102.7 774.139 228.539C935.223 354.378 960.058 582.362 829.62 737.753Z" stroke="black"/>
</g>
<g opacity="0.2" filter="url(#filter13_f_135_762)">
<ellipse cx="277.959" cy="275.891" rx="277.959" ry="275.891" transform="matrix(0.788043 0.61562 -0.642928 0.765926 2953.47 5965.65)" fill="url(#paint13_linear_135_762)"/>
<path d="M3213.78 6518.89C3116 6635.38 2938.84 6653.35 2818.08 6559.01C2697.32 6464.67 2678.7 6293.76 2776.48 6177.27C2874.27 6060.78 3051.43 6042.81 3172.19 6137.15C3292.95 6231.49 3311.57 6402.4 3213.78 6518.89Z" stroke="black"/>
</g>
<g opacity="0.2" filter="url(#filter14_f_135_762)">
<ellipse cx="277.959" cy="275.891" rx="277.959" ry="275.891" transform="matrix(0.788043 0.61562 -0.642928 0.765926 612.184 9030.96)" fill="url(#paint14_linear_135_762)"/>
<path d="M872.498 9584.19C774.715 9700.68 597.552 9718.65 476.793 9624.31C356.033 9529.98 337.417 9359.07 435.2 9242.58C532.983 9126.09 710.146 9108.12 830.905 9202.46C951.665 9296.79 970.282 9467.7 872.498 9584.19Z" stroke="black"/>
</g>
<defs>
<filter id="filter0_f_135_762" x="2103.61" y="4982.14" width="383.821" height="370.555" filterUnits="userSpaceOnUse" color-interpolation-filters="sRGB">
<feFlood flood-opacity="0" result="BackgroundImageFix"/>
<feBlend mode="normal" in="SourceGraphic" in2="BackgroundImageFix" result="shape"/>
<feGaussianBlur stdDeviation="2" result="effect1_foregroundBlur_135_762"/>
</filter>
<filter id="filter1_f_135_762" x="1273.08" y="5908.44" width="383.821" height="370.555" filterUnits="userSpaceOnUse" color-interpolation-filters="sRGB">
<feFlood flood-opacity="0" result="BackgroundImageFix"/>
<feBlend mode="normal" in="SourceGraphic" in2="BackgroundImageFix" result="shape"/>
<feGaussianBlur stdDeviation="2" result="effect1_foregroundBlur_135_762"/>
</filter>
<filter id="filter2_f_135_762" x="2767.52" y="9648.65" width="571.73" height="551.833" filterUnits="userSpaceOnUse" color-interpolation-filters="sRGB">
<feFlood flood-opacity="0" result="BackgroundImageFix"/>
<feBlend mode="normal" in="SourceGraphic" in2="BackgroundImageFix" result="shape"/>
<feGaussianBlur stdDeviation="2" result="effect1_foregroundBlur_135_762"/>
</filter>
<filter id="filter3_f_135_762" x="180.685" y="5148.26" width="759.641" height="733.111" filterUnits="userSpaceOnUse" color-interpolation-filters="sRGB">
<feFlood flood-opacity="0" result="BackgroundImageFix"/>
<feBlend mode="normal" in="SourceGraphic" in2="BackgroundImageFix" result="shape"/>
<feGaussianBlur stdDeviation="2" result="effect1_foregroundBlur_135_762"/>
</filter>
<filter id="filter4_f_135_762" x="191.958" y="6834.09" width="759.641" height="733.111" filterUnits="userSpaceOnUse" color-interpolation-filters="sRGB">
<feFlood flood-opacity="0" result="BackgroundImageFix"/>
<feBlend mode="normal" in="SourceGraphic" in2="BackgroundImageFix" result="shape"/>
<feGaussianBlur stdDeviation="2" result="effect1_foregroundBlur_135_762"/>
</filter>
<filter id="filter5_f_135_762" x="2632.83" y="8122.93" width="759.641" height="733.111" filterUnits="userSpaceOnUse" color-interpolation-filters="sRGB">
<feFlood flood-opacity="0" result="BackgroundImageFix"/>
<feBlend mode="normal" in="SourceGraphic" in2="BackgroundImageFix" result="shape"/>
<feGaussianBlur stdDeviation="2" result="effect1_foregroundBlur_135_762"/>
</filter>
<filter id="filter6_f_135_762" x="2150.59" y="261.823" width="383.821" height="370.555" filterUnits="userSpaceOnUse" color-interpolation-filters="sRGB">
<feFlood flood-opacity="0" result="BackgroundImageFix"/>
<feBlend mode="normal" in="SourceGraphic" in2="BackgroundImageFix" result="shape"/>
<feGaussianBlur stdDeviation="2" result="effect1_foregroundBlur_135_762"/>
</filter>
<filter id="filter7_f_135_762" x="2814.49" y="2154.88" width="571.73" height="551.833" filterUnits="userSpaceOnUse" color-interpolation-filters="sRGB">
<feFlood flood-opacity="0" result="BackgroundImageFix"/>
<feBlend mode="normal" in="SourceGraphic" in2="BackgroundImageFix" result="shape"/>
<feGaussianBlur stdDeviation="2" result="effect1_foregroundBlur_135_762"/>
</filter>
<filter id="filter8_f_135_762" x="161.289" y="3416.53" width="571.731" height="551.833" filterUnits="userSpaceOnUse" color-interpolation-filters="sRGB">
<feFlood flood-opacity="0" result="BackgroundImageFix"/>
<feBlend mode="normal" in="SourceGraphic" in2="BackgroundImageFix" result="shape"/>
<feGaussianBlur stdDeviation="2" result="effect1_foregroundBlur_135_762"/>
</filter>
<filter id="filter9_f_135_762" x="2587.74" y="833.995" width="759.641" height="733.111" filterUnits="userSpaceOnUse" color-interpolation-filters="sRGB">
<feFlood flood-opacity="0" result="BackgroundImageFix"/>
<feBlend mode="normal" in="SourceGraphic" in2="BackgroundImageFix" result="shape"/>
<feGaussianBlur stdDeviation="2" result="effect1_foregroundBlur_135_762"/>
</filter>
<filter id="filter10_f_135_762" x="148.741" y="1765.73" width="759.641" height="733.111" filterUnits="userSpaceOnUse" color-interpolation-filters="sRGB">
<feFlood flood-opacity="0" result="BackgroundImageFix"/>
<feBlend mode="normal" in="SourceGraphic" in2="BackgroundImageFix" result="shape"/>
<feGaussianBlur stdDeviation="2" result="effect1_foregroundBlur_135_762"/>
</filter>
<filter id="filter11_f_135_762" x="2615.92" y="3886.61" width="759.641" height="733.111" filterUnits="userSpaceOnUse" color-interpolation-filters="sRGB">
<feFlood flood-opacity="0" result="BackgroundImageFix"/>
<feBlend mode="normal" in="SourceGraphic" in2="BackgroundImageFix" result="shape"/>
<feGaussianBlur stdDeviation="2" result="effect1_foregroundBlur_135_762"/>
</filter>
<filter id="filter12_f_135_762" x="158.136" y="143.35" width="759.641" height="733.111" filterUnits="userSpaceOnUse" color-interpolation-filters="sRGB">
<feFlood flood-opacity="0" result="BackgroundImageFix"/>
<feBlend mode="normal" in="SourceGraphic" in2="BackgroundImageFix" result="shape"/>
<feGaussianBlur stdDeviation="2" result="effect1_foregroundBlur_135_762"/>
</filter>
<filter id="filter13_f_135_762" x="2709.27" y="6072.16" width="571.73" height="551.833" filterUnits="userSpaceOnUse" color-interpolation-filters="sRGB">
<feFlood flood-opacity="0" result="BackgroundImageFix"/>
<feBlend mode="normal" in="SourceGraphic" in2="BackgroundImageFix" result="shape"/>
<feGaussianBlur stdDeviation="2" result="effect1_foregroundBlur_135_762"/>
</filter>
<filter id="filter14_f_135_762" x="367.983" y="9137.47" width="571.731" height="551.833" filterUnits="userSpaceOnUse" color-interpolation-filters="sRGB">
<feFlood flood-opacity="0" result="BackgroundImageFix"/>
<feBlend mode="normal" in="SourceGraphic" in2="BackgroundImageFix" result="shape"/>
<feGaussianBlur stdDeviation="2" result="effect1_foregroundBlur_135_762"/>
</filter>
<linearGradient id="paint0_linear_135_762" x1="185.306" y1="0" x2="185.306" y2="367.854" gradientUnits="userSpaceOnUse">
<stop stop-color="#80D7DA"/>
<stop offset="1" stop-color="#FF89CA"/>
</linearGradient>
<linearGradient id="paint1_linear_135_762" x1="185.306" y1="0" x2="185.306" y2="367.854" gradientUnits="userSpaceOnUse">
<stop stop-color="#80D7DA"/>
<stop offset="1" stop-color="#FF89CA"/>
</linearGradient>
<linearGradient id="paint2_linear_135_762" x1="277.959" y1="0" x2="277.959" y2="551.781" gradientUnits="userSpaceOnUse">
<stop stop-color="#80D7DA"/>
<stop offset="1" stop-color="#FF89CA"/>
</linearGradient>
<linearGradient id="paint3_linear_135_762" x1="370.612" y1="0" x2="370.612" y2="735.708" gradientUnits="userSpaceOnUse">
<stop stop-color="#80D7DA"/>
<stop offset="1" stop-color="#FF89CA"/>
</linearGradient>
<linearGradient id="paint4_linear_135_762" x1="370.612" y1="0" x2="370.612" y2="735.708" gradientUnits="userSpaceOnUse">
<stop stop-color="#80D7DA"/>
<stop offset="1" stop-color="#FF89CA"/>
</linearGradient>
<linearGradient id="paint5_linear_135_762" x1="370.612" y1="0" x2="370.612" y2="735.708" gradientUnits="userSpaceOnUse">
<stop stop-color="#80D7DA"/>
<stop offset="1" stop-color="#FF89CA"/>
</linearGradient>
<linearGradient id="paint6_linear_135_762" x1="185.306" y1="0" x2="185.306" y2="367.854" gradientUnits="userSpaceOnUse">
<stop stop-color="#80D7DA"/>
<stop offset="1" stop-color="#FF89CA"/>
</linearGradient>
<linearGradient id="paint7_linear_135_762" x1="277.959" y1="0" x2="277.959" y2="551.781" gradientUnits="userSpaceOnUse">
<stop stop-color="#80D7DA"/>
<stop offset="1" stop-color="#FF89CA"/>
</linearGradient>
<linearGradient id="paint8_linear_135_762" x1="277.959" y1="0" x2="277.959" y2="551.781" gradientUnits="userSpaceOnUse">
<stop stop-color="#80D7DA"/>
<stop offset="1" stop-color="#FF89CA"/>
</linearGradient>
<linearGradient id="paint9_linear_135_762" x1="370.612" y1="0" x2="370.612" y2="735.708" gradientUnits="userSpaceOnUse">
<stop stop-color="#80D7DA"/>
<stop offset="1" stop-color="#FF89CA"/>
</linearGradient>
<linearGradient id="paint10_linear_135_762" x1="370.612" y1="0" x2="370.612" y2="735.708" gradientUnits="userSpaceOnUse">
<stop stop-color="#80D7DA"/>
<stop offset="1" stop-color="#FF89CA"/>
</linearGradient>
<linearGradient id="paint11_linear_135_762" x1="370.612" y1="0" x2="370.612" y2="735.708" gradientUnits="userSpaceOnUse">
<stop stop-color="#80D7DA"/>
<stop offset="1" stop-color="#FF89CA"/>
</linearGradient>
<linearGradient id="paint12_linear_135_762" x1="370.612" y1="0" x2="370.612" y2="735.708" gradientUnits="userSpaceOnUse">
<stop stop-color="#80D7DA"/>
<stop offset="1" stop-color="#FF89CA"/>
</linearGradient>
<linearGradient id="paint13_linear_135_762" x1="277.959" y1="0" x2="277.959" y2="551.781" gradientUnits="userSpaceOnUse">
<stop stop-color="#80D7DA"/>
<stop offset="1" stop-color="#FF89CA"/>
</linearGradient>
<linearGradient id="paint14_linear_135_762" x1="277.959" y1="0" x2="277.959" y2="551.781" gradientUnits="userSpaceOnUse">
<stop stop-color="#80D7DA"/>
<stop offset="1" stop-color="#FF89CA"/>
</linearGradient>
</defs>
</svg>
