<svg width="381" height="400" viewBox="0 0 381 400" fill="none" xmlns="http://www.w3.org/2000/svg">
<g opacity="0.8">
<path d="M299.5 274.729C299.875 252.5 322.146 243.75 309.938 221.729C305.896 214.542 301.5 209.833 297.292 205.792C296.125 201.979 293.563 197.354 290.979 192.875C290.604 192.292 290.313 191.708 289.958 191.104C290.021 190.896 290.104 190.667 290.104 190.521C290.75 188.333 291.417 186.125 290.917 182.021C290.458 177.979 287.604 174.146 284.729 171.292C284.583 170.042 284.292 168.646 283.625 166.958C282.458 163.729 279.667 161.083 276.729 159.042C269.729 140.604 252.688 131.271 238.063 133.562C233.583 134.208 222.563 138.396 217.917 141.333C213.292 144.271 202.479 156.458 202.333 161.521C201.833 174.292 210.875 178.125 212.271 189.062C213.667 200 204.104 200.812 210.271 210.417C216.521 219.958 214.833 233.979 213 245C211.167 256.021 210.938 268.792 214.979 275.687C219.021 282.583 245.188 305.854 271.583 304.771C297.958 303.667 316.917 315.708 322.438 318.562C328.104 321.5 299.146 296.979 299.5 274.729ZM290.25 193.312C292.521 197.271 294.813 201.25 296.042 204.687C293.708 202.417 291.417 200.354 289.354 198.083C289.063 195.521 289.292 193.75 289.667 192.208C289.875 192.583 290.021 192.958 290.25 193.312ZM290.167 182.083C290.604 185.979 290.021 188.104 289.438 190.167C288.271 188.104 287.229 186.187 286.5 184.437C284.667 180.25 284.729 177.896 284.875 175.479C284.958 174.521 284.958 173.646 284.958 172.604C287.375 175.25 289.729 178.562 290.167 182.083ZM282.896 167.25C283.333 168.437 283.625 169.458 283.771 170.417C281.792 168.583 279.875 167.187 278.854 166.437C278.417 164.312 277.896 162.271 277.229 160.354C279.729 162.187 281.938 164.542 282.896 167.25ZM279.146 167.542C280.396 168.437 282.167 169.896 284.063 171.667C284.208 173.062 284.146 174.229 284.063 175.396C283.917 177.833 283.771 180.396 285.771 184.729C286.646 186.708 287.813 188.917 289.146 191.187C288.708 192.812 288.333 194.5 288.563 197.062C284.063 191.771 280.688 185.25 279.875 173.417C279.729 171.437 279.438 169.458 279.146 167.542Z" fill="black" fill-opacity="0.6"/>
<path d="M280.979 342.417C280.833 340.438 279.521 338.896 279 339.188C279 339.188 278.917 339.479 278.771 339.854C278.479 338.021 277.312 336.771 276.875 337C276.729 337.063 272.458 353.292 273.187 353.959C273.625 354.313 275.542 350.417 277.021 346.75C275.979 351.167 274.958 355.854 275.333 356.146C275.771 356.521 277.75 352.479 279.229 348.729C278.042 353.438 276.792 359.021 277.229 359.375C277.979 360.042 282.75 348.729 282.979 346.313C283.187 344.042 281.646 342.271 280.979 342.417Z" fill="#D18965" fill-opacity="0.6"/>
<path d="M252.312 275.834C251.354 270.396 249.812 256.229 247.25 251.604C244.667 247.063 236.292 231.125 233.146 231.938C230.271 232.667 231.083 236.854 233.062 241.542C235.042 246.25 238.125 250.584 236.375 254.334C234.604 258.063 227.479 265.334 228.354 270.771C229.25 276.209 241 277.813 241.875 281.938C242.771 286.042 243.646 333.917 243.729 334.709C243.875 335.604 226.75 321.125 222.333 318.042C219.021 315.771 216.312 314.167 214.979 313.271C208.875 320.479 196.083 335 190 341.021C195.208 344.917 209.396 355.563 215.792 360.479C223.729 366.584 249.75 378.188 258.125 380.021C266.583 381.854 275.479 380.959 277.312 377.875C284.062 366.354 271.583 330.604 266.729 317.604C261.875 304.625 253.354 281.271 252.312 275.834Z" fill="#B57250" fill-opacity="0.6"/>
<mask id="mask0_121_689" style="mask-type:luminance" maskUnits="userSpaceOnUse" x="74" y="13" width="217" height="371">
<path d="M74.6667 13.9585H291V384H74.6667V13.9585Z" fill="white"/>
</mask>
<g mask="url(#mask0_121_689)">
<path d="M281.063 325.459C280.688 320.917 276.271 288.542 272.167 276.417C268.042 264.375 257.021 230.75 252.458 222.834C247.917 214.98 244.021 207.417 237.917 201.605C231.813 195.73 222.042 188.48 219.979 186.563C217.104 183.855 220.208 176.355 222.479 172.917C228.938 163.146 232.479 172.917 237.979 165.563C241.813 160.417 236.229 158.438 235.188 156.396C233.146 152.209 235.708 149.771 239.896 147.73C242.167 146.542 240.854 144.209 241.958 142.73C243.792 140.23 244.896 137.959 242.104 137.23C240.042 136.646 233.583 136.855 231.813 137.667C230.042 138.48 228.292 139.792 226.292 138.48C224.313 137.146 220.063 133.563 218.292 134.73C216.521 135.896 216.896 138.688 215.417 138.625C213.958 138.542 212.563 137.959 211.896 138.98C211.229 140.021 211.167 140.896 211.167 140.896C211.167 140.896 209.396 139.5 208.813 139.938C208.229 140.459 208.229 141.334 206.896 141.48C205.583 141.625 203.583 142.73 202.417 145.23C201.313 147.73 207.625 156.396 207.479 159.542C207.333 162.709 205.125 175.834 201.604 178.855C198.083 181.792 195.792 183.771 193.667 182.813C191.542 181.855 191.167 181.271 191.313 178.563C191.458 175.834 191.021 162.125 189.688 157.042C188.375 151.98 188.896 146.771 189.688 142.146C190.5 137.521 194.917 118.355 196.542 111.167C198.229 103.98 198.875 66.0837 199.625 62.7087C200.354 59.417 200.438 55.9587 203.875 55.5212C207.333 55.0837 215.063 55.7296 217.854 52.9379C220.708 50.2296 223 45.6045 222.333 44.7921C221.75 43.9796 219.021 45.3754 217.625 46.5629C216.229 47.7295 213.875 49.4171 212.563 47.9587C211.167 46.4796 211.375 42.0837 213.667 40.167C215.938 38.2712 218.146 38.042 219.25 39.667C220.271 41.3545 221.958 43.9796 222.563 43.7712C223.146 43.542 223.958 39.1462 223.208 37.9796C222.563 36.7921 219.688 34.3754 218.729 34.2921C217.771 34.2295 213 36.1254 213.438 35.1879C213.958 34.2295 227.396 21.667 226.229 19.1045C225.042 16.542 211.083 32.7504 211.083 32.7504C211.083 32.7504 217.771 17.042 216.313 15.7295C214.833 14.3962 208.813 30.042 208.813 30.042C208.813 30.042 208.521 17.2712 207.417 17.2712C206.313 17.2712 205.271 29.6045 203.813 33.1879C202.333 36.8754 192.792 48.2504 191.458 50.5212C190.063 52.7921 184.479 82.4587 183.458 88.4796C182.417 94.5004 180.875 113.73 178.958 117.542C177.063 121.375 170 151.542 168.667 161.167C167.354 170.771 168.313 190.084 167.271 192C166.333 193.896 155.813 200 152.292 206.834C148.75 213.646 145.813 238.396 145.813 246.542C145.813 254.688 146.188 281.042 149.125 289.563C152.063 298.084 154.854 303.292 152.875 304.771C150.813 306.23 94.7293 334.271 83.4168 351.167C72.1043 368.042 73.5626 376.563 81.7293 381.042C89.8751 385.521 189.188 379.563 198.146 379.792C207.042 380.021 221.083 379.271 225.646 379.563C230.188 379.792 239.021 381.563 240.479 380.813C241.958 380.084 240.271 377 237.542 376.709C234.833 376.48 232.479 375.25 230.854 373.625C229.25 372.021 222.708 368.771 217.708 367.167C212.771 365.542 209.25 365.396 206.458 361.73C203.583 357.98 199.625 352.188 194.542 352.188C189.479 352.188 185.5 358.292 183.75 360.48C181.979 362.688 179.771 362.25 173.458 362.105C167.125 361.959 151.542 359.021 145.458 358.355C139.354 357.771 133.542 358.125 133.542 358.125C133.542 358.125 164.333 352.188 173.375 347.271C182.417 342.355 187.708 339.334 187.708 339.334C187.708 339.334 188.229 339.709 189.042 340.375C194.771 334.063 207.771 319.667 214.167 312.771C213.958 312.625 213.813 312.48 213.813 312.396C213.583 311.875 215.417 299.917 209.688 291.98C204.021 284.063 194.333 280.105 191.458 278.25C188.604 276.417 183 270.25 183.458 266.667C183.813 263.063 198.813 248.021 203 244.271C207.188 240.521 225.854 232.521 228.354 232C230.854 231.5 248.792 258.875 254.604 282.084C257.979 295.521 273.042 323.917 272.833 327.375C272.542 332.875 273.271 335.813 270.542 341.625C269 344.855 267.396 348.73 268.646 349.917C269.958 351.084 271.938 347.271 273.188 345.063C274.375 342.855 275.771 340 277.167 341.021C278.563 342.063 282.458 344.417 281.938 348.146C281.354 351.896 277.75 360.855 278.479 362.167C279.229 363.5 286.063 349.48 286.125 345.292C286.646 341.313 281.417 330.021 281.063 325.459Z" fill="#D18965" fill-opacity="0.6"/>
</g>
<path d="M192.271 180.021C191.104 180.021 167.937 191.708 165.375 192.875C162.792 194.042 153.687 202.792 151.479 205.583C149.354 208.375 146.187 227.167 145.229 231.646C144.271 236.125 144.354 242.438 144.937 242.938C145.521 243.459 168.375 251.313 175.437 255.646C182.5 259.979 185.437 264.021 187.417 263.438C189.396 262.834 205.417 245.958 204.396 245.229C203.375 244.479 198.812 237.063 197.187 231.792C195.583 226.5 195.937 210.938 198.083 207.042C200.208 203.146 211.229 193.896 216.083 193.542C220.937 193.104 228.875 192.958 228.875 192.958C228.875 192.958 226.75 191.042 226.437 190.958C226.229 190.896 213.375 191.854 209.479 193.896C205.583 195.958 195 203.375 193.437 203.896C191.896 204.396 183.458 205.292 175.958 206.167C168.458 207.042 163.375 209.771 163.083 209.104C162.792 208.521 162.729 200.875 164.854 197.729C166.979 194.563 173.083 190.958 176.833 188.979C180.5 187 192.271 180.021 192.271 180.021Z" fill="#635633" fill-opacity="0.6"/>
<path d="M147.062 285.458C147.354 286.271 153.396 301.687 152.292 303.292C151.187 304.833 131.271 315.25 127.729 316.958C124.208 318.646 110.542 325.312 111.354 326.792C112.146 328.25 125.083 333.833 129.583 341.625C134.062 349.396 141.333 357.542 142.729 357.542C144.125 357.542 163.75 353 170.229 350.729C176.687 348.437 186.833 341.542 187.562 341.771C188.292 341.979 207.625 356.896 210.354 359.458C213.062 362.021 224.604 368.125 225.708 368.333C226.812 368.562 240.042 331.479 239.896 330.167C239.687 328.833 215.354 312.687 215.562 311.146C215.792 309.604 213.583 291.771 207.854 286.479C202.125 281.187 191.75 276.5 189.479 274.729C187.125 272.979 185.583 269.229 185.208 269.146C184.854 269.083 170.729 267.833 164.042 271.146C157.354 274.375 147.062 285.458 147.062 285.458Z" fill="#635633" fill-opacity="0.6"/>
</g>
</svg>
