<svg xmlns="http://www.w3.org/2000/svg" xmlns:xlink="http://www.w3.org/1999/xlink" width="300" zoomAndPan="magnify" viewBox="0 0 224.87999 225" height="300" preserveAspectRatio="xMidYMid meet" version="1.0"><defs><clipPath id="192a6f7b7f"><path d="M 39.328125 31.34375 L 185.5 31.34375 L 185.5 194 L 39.328125 194 Z M 39.328125 31.34375 " clip-rule="nonzero"/></clipPath></defs><g clip-path="url(#192a6f7b7f)"><path fill="#220953" d="M 182.652344 130.9375 C 181.890625 129.589844 180.578125 128.570312 179.085938 128.101562 C 178.5 127.925781 177.800781 127.867188 177.273438 128.21875 C 177.15625 127.691406 176.542969 127.339844 176.019531 127.488281 C 175.609375 127.605469 175.316406 127.984375 175.171875 128.421875 C 175.054688 128.832031 175.054688 129.269531 175.054688 129.707031 C 175.082031 130.671875 175.140625 131.609375 175.230469 132.574219 C 174.441406 133.332031 174.46875 134.441406 174.671875 135.523438 C 174.878906 136.578125 175.257812 137.65625 175.082031 138.710938 C 174.9375 139.585938 174.441406 140.347656 173.882812 141.046875 C 173.5625 141.429688 173.242188 141.808594 172.804688 142.011719 C 172.480469 141.046875 172.304688 139.996094 172.304688 138.972656 C 172.304688 138.417969 172.363281 137.832031 172.21875 137.277344 C 172.070312 136.722656 171.691406 136.195312 171.167969 136.050781 C 170.699219 135.933594 170.171875 135.90625 169.910156 136.285156 C 169.617188 136.664062 169.558594 137.160156 169.53125 137.597656 C 169.472656 138.476562 169.382812 139.9375 169.441406 140.8125 C 167.601562 140.230469 163.597656 136.636719 160.820312 134.824219 C 158.597656 133.363281 155.675781 132.980469 154.507812 131.988281 C 153.339844 130.996094 153.339844 129.183594 151.261719 124.886719 C 149.1875 120.589844 146.820312 107.789062 146.820312 107.789062 C 146.234375 105.480469 142.671875 93.820312 139.632812 91.394531 C 136.882812 89.199219 134.457031 89.113281 131.972656 89.347656 C 129.082031 89.609375 126.1875 88.238281 124.578125 85.8125 C 123 83.386719 122.5625 80.34375 122.5625 77.453125 C 122.5625 76.371094 122.652344 75.261719 123 74.265625 C 124.140625 72.980469 125.105469 71.488281 125.867188 69.824219 C 125.953125 70.085938 126.128906 70.351562 126.363281 70.523438 C 126.859375 70.875 127.472656 70.789062 127.882812 70.351562 C 128.320312 69.851562 128.378906 69.179688 128.464844 68.566406 C 128.582031 67.867188 128.875 67.253906 129.109375 66.578125 C 129.460938 65.644531 129.605469 64.621094 129.605469 63.628906 C 130.394531 61.757812 130.804688 59.710938 130.804688 57.578125 C 130.804688 50.710938 126.363281 44.804688 120.019531 42.203125 C 120.546875 41.210938 120.839844 40.070312 120.839844 38.902344 C 120.839844 34.78125 117.242188 31.421875 112.800781 31.421875 C 108.445312 31.421875 104.851562 34.78125 104.851562 38.902344 C 104.851562 40.101562 105.144531 41.210938 105.671875 42.207031 C 99.355469 44.804688 94.914062 50.710938 94.914062 57.578125 C 94.914062 59.476562 95.265625 61.289062 95.878906 62.984375 C 95.761719 64.183594 95.910156 65.441406 96.316406 66.578125 C 96.550781 67.253906 96.84375 67.867188 96.960938 68.566406 C 97.046875 69.179688 97.105469 69.851562 97.546875 70.351562 C 97.953125 70.789062 98.566406 70.875 99.066406 70.523438 C 99.445312 70.261719 99.621094 69.824219 99.648438 69.386719 C 100.203125 70.671875 100.878906 71.871094 101.636719 72.949219 C 101.636719 72.949219 103.59375 80.023438 103.273438 83.328125 C 102.953125 86.601562 99.386719 90.195312 97.71875 90.195312 C 96.054688 90.195312 84.539062 88.851562 81.265625 92.855469 C 77.992188 96.886719 76.152344 105.890625 75.65625 113.078125 C 75.15625 120.269531 73.8125 133.800781 72.148438 134.96875 C 70.480469 136.136719 67.121094 136.957031 64.722656 138.5625 C 62.328125 140.171875 59.023438 142.449219 57.59375 142.335938 C 56.132812 142.21875 55.3125 142.507812 55.253906 141.339844 C 55.195312 140.316406 55.167969 139.207031 55.195312 138.183594 C 55.195312 137.160156 55.195312 136.109375 54.847656 135.144531 C 54.523438 134.179688 53.824219 133.273438 52.828125 132.953125 C 52.59375 132.863281 52.363281 132.835938 52.097656 132.894531 C 51.6875 132.980469 51.398438 133.363281 51.25 133.769531 C 51.132812 134.179688 51.132812 134.589844 51.191406 135.027344 C 51.339844 136.867188 51.71875 138.710938 51.425781 140.523438 C 51.046875 139.761719 50.636719 139.441406 49.964844 138.914062 C 49.496094 138.5625 48.972656 138.273438 48.648438 137.773438 C 48.269531 137.191406 48.242188 136.460938 48.242188 135.757812 C 48.210938 134.355469 48.210938 132.980469 48.183594 131.578125 C 48.183594 131.34375 48.183594 131.109375 48.09375 130.878906 C 48.007812 130.671875 47.800781 130.46875 47.570312 130.46875 C 47.511719 130.46875 47.511719 130.496094 47.453125 130.496094 C 47.394531 130.117188 47.363281 129.765625 47.246094 129.386719 C 47.128906 129.035156 46.953125 128.683594 46.664062 128.453125 C 46.371094 128.246094 46.019531 128.160156 45.667969 128.1875 C 45.316406 128.21875 44.996094 128.394531 44.734375 128.628906 C 44.296875 128.394531 43.796875 128.363281 43.332031 128.480469 C 43.214844 128.511719 43.097656 128.539062 43.039062 128.628906 C 42.949219 128.335938 42.628906 128.101562 42.335938 127.984375 C 42.015625 127.839844 41.636719 127.78125 41.285156 127.78125 C 41.082031 127.78125 40.847656 127.808594 40.671875 127.925781 C 40.4375 128.070312 40.292969 128.363281 40.203125 128.65625 C 40.058594 129.125 39.96875 129.621094 39.941406 130.117188 C 39.910156 130.996094 39.648438 131.84375 39.617188 132.71875 C 39.558594 134.441406 39.5 136.167969 39.414062 137.890625 C 39.355469 139.121094 39.328125 140.347656 39.5 141.546875 C 39.675781 142.742188 40.117188 143.941406 40.90625 144.875 C 41.488281 145.550781 42.308594 145.753906 43.066406 146.222656 C 44.9375 147.359375 46.777344 148.5 48.648438 149.640625 C 46.75 153.207031 46.722656 157.589844 48.09375 161.390625 C 49.46875 165.1875 52.097656 168.433594 55.136719 171.09375 C 58.175781 173.753906 61.625 175.886719 65.074219 177.988281 C 67.089844 179.21875 69.109375 180.472656 71.125 181.703125 C 70.015625 182.550781 69.546875 184.097656 70.160156 185.324219 C 69.488281 185.355469 68.84375 185.882812 68.726562 186.554688 C 68.609375 187.226562 68.992188 187.957031 69.605469 188.21875 C 69.3125 188.453125 69.195312 188.890625 69.3125 189.242188 C 69.429688 189.59375 69.75 189.886719 70.132812 189.914062 C 70.015625 190.324219 70.304688 190.761719 70.6875 190.9375 C 71.066406 191.113281 72.789062 192.457031 73.199219 192.398438 C 75.421875 192.222656 101.460938 189.5625 104.734375 189.535156 C 110.40625 189.476562 118.179688 191.199219 123.820312 191.902344 C 132.382812 192.953125 147.550781 193.566406 151.410156 193.390625 C 155.265625 193.21875 160.90625 192.046875 164.328125 190.234375 C 164.707031 190.03125 164.152344 192.28125 164.09375 191.871094 C 164.269531 191.640625 164.414062 191.375 164.472656 191.082031 C 164.53125 190.792969 164.503906 190.46875 164.328125 190.234375 C 164.589844 189.738281 164.792969 189.039062 164.738281 188.480469 C 164.707031 187.925781 164.386719 187.34375 163.890625 187.109375 C 163.246094 186.789062 162.484375 187.019531 161.785156 186.847656 C 161.257812 184.976562 159.828125 183.28125 158.042969 182.550781 L 157.898438 182.199219 C 160.351562 181.234375 162.808594 180.269531 165.058594 178.925781 C 167.132812 177.699219 169.03125 176.148438 170.902344 174.601562 C 172.101562 173.636719 173.269531 172.613281 174.527344 171.707031 C 179.730469 167.9375 182.242188 160.777344 180.519531 154.578125 C 180.253906 153.644531 179.90625 152.738281 179.378906 151.921875 C 178.851562 151.132812 178.179688 150.488281 177.507812 149.84375 C 177.710938 149.230469 178.179688 148.851562 178.765625 148.558594 C 180.898438 147.417969 182.710938 145.753906 184.523438 144.144531 C 184.84375 143.855469 185.164062 143.5625 185.339844 143.183594 C 185.515625 142.800781 185.546875 142.363281 185.546875 141.953125 C 185.546875 138.097656 184.523438 134.269531 182.652344 130.9375 Z M 94.300781 144.703125 C 93.890625 151.304688 88.425781 158.640625 88.425781 158.640625 L 76.152344 149.582031 C 76.152344 149.582031 80.566406 148.382812 82.699219 145.578125 C 84.832031 142.773438 88.574219 133.449219 88.425781 126.230469 C 88.425781 126.230469 94.679688 138.097656 94.300781 144.703125 Z M 148.429688 151.6875 C 146.292969 153.292969 136.679688 160.746094 136.679688 160.746094 C 136.679688 160.746094 132.558594 151.277344 132.414062 144.671875 C 132.265625 138.066406 136.679688 126.203125 136.679688 126.203125 C 136.679688 126.203125 140.800781 136.867188 143.957031 141.546875 C 147.082031 146.222656 155.5 148.355469 155.5 148.355469 C 155.5 148.355469 150.5625 150.109375 148.429688 151.6875 Z M 148.429688 151.6875 " fill-opacity="1" fill-rule="nonzero"/></g></svg>