<svg xmlns="http://www.w3.org/2000/svg" xmlns:xlink="http://www.w3.org/1999/xlink" width="800" zoomAndPan="magnify" viewBox="0 0 600 599.999999" height="800" preserveAspectRatio="xMidYMid meet" version="1.0"><defs><clipPath id="8cb1e37079"><path d="M 105 83.46875 L 494.925781 83.46875 L 494.925781 516 L 105 516 Z M 105 83.46875 " clip-rule="nonzero"/></clipPath></defs><g clip-path="url(#8cb1e37079)"><path fill="#220953" d="M 487.347656 349.203125 C 485.320312 345.617188 481.8125 342.886719 477.832031 341.636719 C 476.273438 341.171875 474.402344 341.015625 473 341.949219 C 472.6875 340.546875 471.050781 339.609375 469.644531 340 C 468.554688 340.3125 467.773438 341.328125 467.382812 342.496094 C 467.070312 343.585938 467.070312 344.757812 467.070312 345.925781 C 467.148438 348.5 467.304688 350.996094 467.539062 353.570312 C 465.433594 355.597656 465.511719 358.558594 466.058594 361.445312 C 466.605469 364.253906 467.617188 367.136719 467.148438 369.945312 C 466.761719 372.285156 465.433594 374.3125 463.953125 376.183594 C 463.09375 377.199219 462.238281 378.210938 461.066406 378.757812 C 460.210938 376.183594 459.742188 373.375 459.742188 370.648438 C 459.742188 369.164062 459.898438 367.605469 459.507812 366.125 C 459.117188 364.644531 458.105469 363.238281 456.699219 362.847656 C 455.453125 362.539062 454.050781 362.460938 453.347656 363.472656 C 452.566406 364.488281 452.410156 365.8125 452.332031 366.980469 C 452.179688 369.320312 451.945312 373.21875 452.101562 375.558594 C 447.1875 374 436.503906 364.410156 429.09375 359.574219 C 423.167969 355.675781 415.371094 354.660156 412.25 352.007812 C 409.132812 349.359375 409.132812 344.523438 403.59375 333.058594 C 398.058594 321.597656 391.742188 287.441406 391.742188 287.441406 C 390.183594 281.28125 380.667969 250.167969 372.558594 243.695312 C 365.230469 237.84375 358.757812 237.609375 352.128906 238.234375 C 344.40625 238.9375 336.6875 235.273438 332.398438 228.800781 C 328.1875 222.328125 327.019531 214.214844 327.019531 206.496094 C 327.019531 203.609375 327.25 200.648438 328.1875 197.996094 C 331.230469 194.566406 333.800781 190.589844 335.828125 186.144531 C 336.0625 186.84375 336.53125 187.546875 337.15625 188.015625 C 338.480469 188.949219 340.117188 188.714844 341.210938 187.546875 C 342.378906 186.222656 342.535156 184.429688 342.769531 182.789062 C 343.082031 180.917969 343.863281 179.28125 344.484375 177.488281 C 345.421875 174.992188 345.8125 172.261719 345.8125 169.613281 C 347.917969 164.621094 349.007812 159.160156 349.007812 153.46875 C 349.007812 135.144531 337.15625 119.390625 320.234375 112.449219 C 321.636719 109.800781 322.417969 106.757812 322.417969 103.640625 C 322.417969 92.644531 312.824219 83.675781 300.972656 83.675781 C 289.351562 83.675781 279.761719 92.644531 279.761719 103.640625 C 279.761719 106.835938 280.539062 109.800781 281.945312 112.449219 C 265.101562 119.390625 253.246094 135.144531 253.246094 153.46875 C 253.246094 158.539062 254.183594 163.371094 255.820312 167.894531 C 255.507812 171.09375 255.898438 174.445312 256.992188 177.488281 C 257.613281 179.28125 258.394531 180.917969 258.707031 182.789062 C 258.941406 184.429688 259.097656 186.222656 260.265625 187.546875 C 261.359375 188.71875 262.996094 188.949219 264.320312 188.015625 C 265.335938 187.3125 265.800781 186.144531 265.878906 184.972656 C 267.363281 188.40625 269.15625 191.601562 271.183594 194.488281 C 271.183594 194.488281 276.40625 213.359375 275.550781 222.171875 C 274.691406 230.90625 265.179688 240.496094 260.734375 240.496094 C 256.289062 240.496094 225.5625 236.910156 216.832031 247.59375 C 208.097656 258.355469 203.183594 282.371094 201.859375 301.554688 C 200.53125 320.738281 196.945312 356.84375 192.5 359.964844 C 188.054688 363.082031 179.085938 365.265625 172.691406 369.554688 C 166.296875 373.84375 157.484375 379.925781 153.664062 379.613281 C 149.765625 379.304688 147.582031 380.082031 147.425781 376.964844 C 147.269531 374.234375 147.191406 371.269531 147.269531 368.542969 C 147.269531 365.8125 147.269531 363.003906 146.335938 360.433594 C 145.476562 357.859375 143.605469 355.441406 140.953125 354.582031 C 140.332031 354.347656 139.707031 354.269531 139.003906 354.425781 C 137.914062 354.660156 137.132812 355.675781 136.742188 356.765625 C 136.429688 357.859375 136.429688 358.949219 136.585938 360.121094 C 136.976562 365.03125 137.992188 369.945312 137.210938 374.78125 C 136.199219 372.753906 135.105469 371.894531 133.3125 370.492188 C 132.0625 369.554688 130.660156 368.777344 129.804688 367.449219 C 128.789062 365.890625 128.710938 363.941406 128.710938 362.070312 C 128.632812 358.328125 128.632812 354.660156 128.554688 350.917969 C 128.554688 350.292969 128.554688 349.671875 128.320312 349.046875 C 128.085938 348.5 127.542969 347.953125 126.917969 347.953125 C 126.761719 347.953125 126.761719 348.03125 126.605469 348.03125 C 126.449219 347.019531 126.371094 346.082031 126.058594 345.070312 C 125.746094 344.132812 125.28125 343.199219 124.5 342.574219 C 123.71875 342.027344 122.785156 341.792969 121.847656 341.871094 C 120.914062 341.949219 120.054688 342.417969 119.351562 343.042969 C 118.183594 342.417969 116.859375 342.339844 115.609375 342.652344 C 115.296875 342.730469 114.988281 342.808594 114.832031 343.042969 C 114.597656 342.261719 113.738281 341.636719 112.957031 341.328125 C 112.101562 340.9375 111.085938 340.78125 110.152344 340.78125 C 109.605469 340.78125 108.980469 340.859375 108.515625 341.171875 C 107.890625 341.558594 107.5 342.339844 107.265625 343.121094 C 106.875 344.367188 106.640625 345.691406 106.566406 347.019531 C 106.488281 349.359375 105.785156 351.621094 105.707031 353.960938 C 105.550781 358.558594 105.394531 363.160156 105.160156 367.761719 C 105.003906 371.039062 104.925781 374.3125 105.394531 377.507812 C 105.863281 380.707031 107.03125 383.902344 109.136719 386.398438 C 110.699219 388.191406 112.882812 388.738281 114.910156 389.988281 C 119.898438 393.027344 124.8125 396.070312 129.804688 399.109375 C 124.734375 408.625 124.65625 420.320312 128.320312 430.460938 C 131.988281 440.597656 139.003906 449.253906 147.113281 456.347656 C 155.226562 463.445312 164.425781 469.136719 173.628906 474.753906 C 179.007812 478.027344 184.390625 481.378906 189.769531 484.65625 C 186.808594 486.917969 185.558594 491.050781 187.195312 494.324219 C 185.402344 494.402344 183.6875 495.808594 183.375 497.601562 C 183.0625 499.394531 184.078125 501.34375 185.714844 502.046875 C 184.9375 502.667969 184.625 503.839844 184.9375 504.773438 C 185.246094 505.710938 186.105469 506.492188 187.121094 506.570312 C 186.808594 507.660156 187.585938 508.832031 188.601562 509.296875 C 189.613281 509.765625 194.214844 513.351562 195.308594 513.195312 C 201.234375 512.730469 270.714844 505.632812 279.449219 505.554688 C 294.578125 505.398438 315.320312 510 330.371094 511.871094 C 353.21875 514.679688 393.691406 516.316406 403.984375 515.847656 C 414.277344 515.378906 429.328125 512.261719 438.453125 507.425781 C 439.46875 506.878906 437.984375 512.886719 437.828125 511.792969 C 438.296875 511.167969 438.6875 510.46875 438.84375 509.6875 C 439 508.910156 438.921875 508.050781 438.453125 507.425781 C 439.15625 506.101562 439.699219 504.230469 439.542969 502.746094 C 439.46875 501.265625 438.609375 499.707031 437.285156 499.082031 C 435.566406 498.226562 433.539062 498.847656 431.667969 498.378906 C 430.265625 493.390625 426.445312 488.867188 421.6875 486.917969 L 421.296875 485.980469 C 427.847656 483.410156 434.398438 480.835938 440.402344 477.246094 C 445.9375 473.972656 451.007812 469.839844 456 465.707031 C 459.195312 463.132812 462.316406 460.402344 465.667969 457.988281 C 479.550781 447.925781 486.253906 428.820312 481.65625 412.289062 C 480.953125 409.792969 480.015625 407.375 478.613281 405.191406 C 477.210938 403.085938 475.417969 401.371094 473.621094 399.65625 C 474.167969 398.019531 475.417969 397.003906 476.976562 396.226562 C 482.667969 393.183594 487.503906 388.738281 492.339844 384.449219 C 493.195312 383.671875 494.054688 382.890625 494.523438 381.875 C 494.988281 380.863281 495.066406 379.691406 495.066406 378.601562 C 495.066406 368.308594 492.339844 358.09375 487.347656 349.203125 Z M 251.609375 385.929688 C 250.519531 403.554688 235.933594 423.128906 235.933594 423.128906 L 203.183594 398.953125 C 203.183594 398.953125 214.957031 395.757812 220.652344 388.269531 C 226.34375 380.785156 236.324219 355.910156 235.933594 336.648438 C 235.933594 336.648438 252.625 368.308594 251.609375 385.929688 Z M 396.03125 404.570312 C 390.339844 408.859375 364.683594 428.742188 364.683594 428.742188 C 364.683594 428.742188 353.6875 403.476562 353.296875 385.855469 C 352.90625 368.230469 364.683594 336.570312 364.683594 336.570312 C 364.683594 336.570312 375.679688 365.03125 384.101562 377.507812 C 392.445312 389.988281 414.902344 395.679688 414.902344 395.679688 C 414.902344 395.679688 401.722656 400.359375 396.03125 404.570312 Z M 396.03125 404.570312 " fill-opacity="1" fill-rule="nonzero"/></g></svg>