<svg width="281" height="257" viewBox="0 0 281 257" fill="none" xmlns="http://www.w3.org/2000/svg">
<g opacity="0.3">
<mask id="mask0_30_3174" style="mask-type:luminance" maskUnits="userSpaceOnUse" x="17" y="46" width="248" height="165">
<path d="M17.2259 46.3L264.506 46.3V210.78L17.2259 210.78L17.2259 46.3Z" fill="white"/>
</mask>
<g mask="url(#mask0_30_3174)">
<path d="M264.345 106.441C264.491 106.039 264.418 105.597 264.154 105.249C263.876 104.901 263.437 104.701 262.969 104.701C262.588 104.701 233.259 104.888 203.769 115.797C209.725 87.1255 204.032 60.6491 203.959 60.3145C203.871 59.8861 203.564 59.5381 203.139 59.3641C202.715 59.1901 202.217 59.2169 201.808 59.431C201.53 59.5783 182.006 69.9252 163.946 87.8349C155.633 64.3033 142.227 47.1432 142.037 46.9023C141.759 46.5543 141.319 46.3401 140.851 46.3401C140.397 46.3401 139.944 46.5543 139.68 46.9023C139.475 47.1432 126.084 64.3033 117.756 87.8483C99.6963 69.9252 80.1727 59.5783 79.88 59.431C79.4848 59.2169 78.9872 59.1901 78.5628 59.3775C78.1384 59.5515 77.831 59.8995 77.7432 60.3145C77.67 60.6625 71.9769 87.1388 77.9335 115.797C48.4577 104.888 19.1137 104.701 18.7478 104.701C18.2795 104.701 17.8405 104.901 17.5624 105.249C17.2843 105.597 17.2111 106.039 17.3575 106.441C17.5038 106.842 31.9197 145.754 64.264 169.245C38.6666 174.92 18.7625 188.159 18.5137 188.319C18.1332 188.574 17.9136 188.975 17.9136 189.403C17.9283 189.832 18.1478 190.233 18.543 190.474C18.8503 190.675 50.4774 210.753 85.0463 210.753C85.339 210.753 85.6463 210.753 85.939 210.753C110.995 210.499 134.119 195.4 140.851 190.595C147.583 195.4 170.707 210.499 195.763 210.753C196.056 210.753 196.363 210.753 196.656 210.753C231.225 210.753 262.837 190.688 263.159 190.474C263.554 190.233 263.774 189.832 263.774 189.403C263.789 188.975 263.569 188.574 263.189 188.319C262.94 188.159 243.036 174.92 217.438 169.245C249.797 145.754 264.198 106.842 264.345 106.441ZM201.471 62.7238C202.656 69.363 206.023 92.6001 200.534 117.042C193.143 119.973 185.811 123.614 178.991 128.112C175.391 130.481 172.068 133.158 169.01 136.022C169.917 131.659 170.444 127.201 170.444 122.691C170.444 111.54 168.19 100.658 164.956 90.7663C179.869 75.6408 196.158 65.7623 201.471 62.7238ZM114.171 122.691C114.171 112.411 116.147 102.345 119.03 93.1221C126.055 100.591 132.626 109.225 137.412 118.862C138.114 120.254 138.729 121.66 139.314 123.092C133.68 137.669 133.446 153.624 134.631 165.979C130.401 157.747 124.489 148.283 116.615 139.918C115.093 134.336 114.171 128.54 114.171 122.691ZM165.102 139.918C157.228 148.283 151.315 157.747 147.086 165.979C148.271 153.624 148.037 137.655 142.402 123.092C142.973 121.66 143.603 120.254 144.305 118.862C149.091 109.225 155.662 100.591 162.687 93.1221C165.585 102.358 167.546 112.411 167.546 122.691C167.546 128.54 166.609 134.336 165.102 139.918ZM145.871 175.215C149.354 167.197 154.93 156.422 163.024 146.517C158.165 160.009 150.481 171.614 145.271 178.561C145.476 177.517 145.681 176.406 145.871 175.215ZM143.046 174.532C142.198 176.513 141.466 178.334 140.851 179.927C140.251 178.334 139.519 176.513 138.656 174.519C136.724 162.833 135.304 144.362 140.851 127.335C146.413 144.362 144.978 162.833 143.046 174.532ZM135.846 175.215C136.036 176.406 136.241 177.517 136.446 178.561C131.236 171.614 123.537 160.009 118.693 146.517C126.786 156.408 132.363 167.184 135.846 175.215ZM135.656 182.162C123.772 175.737 99.55 160.585 88.8076 138.954C85.778 132.863 83.5535 126.532 81.9436 120.254C88.5002 122.972 94.9691 126.264 101.028 130.253C105.829 133.426 110.131 137.16 113.966 141.176C118.971 159.085 129.743 174.586 135.656 182.162ZM167.751 141.162C171.585 137.16 175.888 133.426 180.689 130.253C186.748 126.264 193.217 122.972 199.773 120.241C198.163 126.532 195.939 132.85 192.909 138.954C182.167 160.558 157.945 175.724 146.061 182.162C151.974 174.586 162.746 159.072 167.751 141.162ZM140.851 50.0211C144.378 54.8666 154.974 70.3401 161.707 90.1238C154.052 98.048 146.837 107.324 141.641 117.765C141.378 118.313 141.115 118.862 140.851 119.424C140.602 118.862 140.339 118.313 140.061 117.765C134.88 107.324 127.65 98.0346 120.01 90.1238C126.743 70.3401 137.339 54.8666 140.851 50.0211ZM80.2312 62.7238C85.5585 65.7623 101.848 75.6408 116.761 90.7663C113.512 100.658 111.258 111.54 111.258 122.691C111.258 127.188 111.8 131.659 112.707 136.022C109.634 133.158 106.312 130.481 102.711 128.112C95.8911 123.614 88.5588 119.973 81.1679 117.042C75.6796 92.6001 79.0458 69.363 80.2312 62.7238ZM20.8261 107.404C28.1731 107.672 53.5948 109.278 78.636 118.916C80.319 125.997 82.7339 133.171 86.1586 140.051C92.8469 153.517 104.555 164.52 115.473 172.578C106.516 169.205 96.1106 166.595 85.4122 166.702C79.4555 166.769 73.5867 167.425 67.9521 168.482C39.0033 148.457 24.119 115.436 20.8261 107.404ZM136.182 186.03C123.815 186.03 93.4031 184.504 71.1719 170.624C75.8113 169.874 80.5971 169.406 85.4414 169.352C85.6463 169.352 85.8366 169.352 86.0415 169.352C106.985 169.352 127.269 180.435 136.182 186.03ZM85.9098 208.089C85.6171 208.103 85.339 208.103 85.0463 208.103C55.995 208.103 28.978 193.473 21.9676 189.363C27.4706 185.99 45.4721 175.697 67.2642 171.333C67.5277 171.507 67.7765 171.695 68.0399 171.869C91.0468 187.034 123.333 188.681 136.256 188.681C137.104 188.681 137.865 188.667 138.524 188.667C138.553 188.721 138.583 188.761 138.612 188.814C131.572 193.7 109.253 207.862 85.9098 208.089ZM259.749 189.363C252.739 193.473 225.722 208.089 196.671 208.089C196.378 208.089 196.085 208.089 195.807 208.089C172.449 207.862 150.145 193.7 143.105 188.801C143.134 188.748 143.164 188.707 143.178 188.654C143.851 188.667 144.612 188.667 145.447 188.667C158.384 188.667 190.685 187.021 213.662 171.855C213.926 171.681 214.189 171.507 214.453 171.333C236.23 175.697 254.246 185.99 259.749 189.363ZM145.534 186.03C154.535 180.368 175.098 169.138 196.275 169.352C201.105 169.406 205.891 169.874 210.53 170.624C188.328 184.491 157.901 186.03 145.534 186.03ZM213.765 168.482C208.13 167.425 202.261 166.769 196.305 166.702C185.592 166.608 175.171 169.218 166.214 172.605C177.132 164.547 188.87 153.531 195.558 140.051C198.983 133.171 201.398 125.997 203.081 118.916C228.122 109.278 253.558 107.672 260.876 107.404C257.583 115.436 242.714 148.457 213.765 168.482Z" fill="url(#paint0_linear_30_3174)"/>
</g>
</g>
<defs>
<linearGradient id="paint0_linear_30_3174" x1="140.851" y1="46.3401" x2="140.851" y2="210.753" gradientUnits="userSpaceOnUse">
<stop stop-color="#FF89CA"/>
<stop offset="1" stop-color="#80D7DA"/>
</linearGradient>
</defs>
</svg>
