<svg width="483" height="455" viewBox="0 0 483 455" fill="none" xmlns="http://www.w3.org/2000/svg">
<g opacity="0.3">
<mask id="mask0_116_512" style="mask-type:luminance" maskUnits="userSpaceOnUse" x="29" y="81" width="426" height="292">
<path d="M29.625 81.8892L454.09 81.8892L454.09 372.798L29.625 372.798L29.625 81.8892Z" fill="white"/>
</mask>
<g mask="url(#mask0_116_512)">
<path d="M453.813 188.257C454.064 187.547 453.939 186.766 453.487 186.15C453.009 185.535 452.256 185.18 451.452 185.18C450.799 185.18 400.454 185.511 349.832 204.806C360.057 154.095 350.285 107.268 350.159 106.676C350.008 105.918 349.481 105.303 348.752 104.995C348.024 104.687 347.17 104.735 346.466 105.113C345.989 105.374 312.476 123.674 281.475 155.35C267.206 113.731 244.194 83.3804 243.867 82.9543C243.39 82.3387 242.636 81.96 241.832 81.96C241.053 81.96 240.275 82.3387 239.822 82.9543C239.471 83.3804 216.484 113.731 202.189 155.374C171.188 123.674 137.675 105.374 137.173 105.113C136.495 104.735 135.641 104.687 134.912 105.019C134.183 105.326 133.656 105.942 133.505 106.676C133.38 107.291 123.607 154.119 133.832 204.806C83.2356 185.511 32.8656 185.18 32.2375 185.18C31.4336 185.18 30.68 185.535 30.2026 186.15C29.7253 186.766 29.5997 187.547 29.8509 188.257C30.1021 188.968 54.8475 257.789 110.368 299.337C66.4288 309.375 32.2627 332.789 31.8356 333.073C31.1824 333.522 30.8056 334.233 30.8056 334.99C30.8307 335.748 31.2075 336.458 31.8858 336.884C32.4134 337.239 86.7025 372.751 146.041 372.751C146.544 372.751 147.071 372.751 147.574 372.751C190.583 372.301 230.276 345.596 241.832 337.097C253.388 345.596 293.081 372.301 336.091 372.751C336.593 372.751 337.121 372.751 337.623 372.751C396.962 372.751 451.226 337.263 451.778 336.884C452.457 336.458 452.833 335.748 452.833 334.99C452.859 334.233 452.482 333.522 451.829 333.073C451.402 332.789 417.235 309.375 373.297 299.337C428.842 257.789 453.562 188.968 453.813 188.257ZM345.888 110.937C347.923 122.68 353.701 163.778 344.28 207.007C331.594 212.192 319.008 218.631 307.301 226.586C301.12 230.776 295.418 235.511 290.167 240.577C291.725 232.86 292.629 224.976 292.629 216.998C292.629 197.277 288.76 178.03 283.208 160.535C308.808 133.783 336.769 116.311 345.888 110.937ZM196.034 216.998C196.034 198.816 199.426 181.013 204.375 164.701C216.434 177.912 227.713 193.182 235.928 210.227C237.134 212.689 238.189 215.175 239.194 217.708C229.522 243.489 229.12 271.709 231.155 293.56C223.895 279.001 213.745 262.263 200.23 247.467C197.617 237.594 196.034 227.343 196.034 216.998ZM283.46 247.467C269.944 262.263 259.794 279.001 252.534 293.56C254.569 271.709 254.167 243.466 244.495 217.708C245.475 215.175 246.555 212.689 247.761 210.227C255.976 193.182 267.256 177.912 279.314 164.701C284.289 181.037 287.655 198.816 287.655 216.998C287.655 227.343 286.047 237.594 283.46 247.467ZM250.449 309.896C256.428 295.715 266 276.657 279.892 259.138C271.552 283.002 258.363 303.527 249.419 315.814C249.771 313.968 250.122 312.003 250.449 309.896ZM245.6 308.688C244.143 312.192 242.887 315.412 241.832 318.229C240.802 315.412 239.546 312.192 238.064 308.665C234.748 287.997 232.311 255.326 241.832 225.213C251.379 255.326 248.917 287.997 245.6 308.688ZM233.24 309.896C233.567 312.003 233.919 313.968 234.27 315.814C225.327 303.527 212.113 283.002 203.797 259.138C217.69 276.633 227.261 295.691 233.24 309.896ZM232.914 322.183C212.514 310.819 170.937 284.02 152.498 245.762C147.297 234.99 143.479 223.792 140.715 212.689C151.97 217.495 163.074 223.319 173.475 230.374C181.715 235.985 189.101 242.59 195.683 249.692C204.274 281.368 222.764 308.783 232.914 322.183ZM288.007 249.668C294.589 242.59 301.975 235.985 310.215 230.374C320.615 223.319 331.719 217.495 342.974 212.665C340.211 223.792 336.392 234.967 331.192 245.762C312.752 283.972 271.175 310.795 250.776 322.183C260.925 308.783 279.415 281.344 288.007 249.668ZM241.832 88.4704C247.887 97.0405 266.075 124.408 277.631 159.398C264.492 173.414 252.107 189.82 243.189 208.286C242.736 209.256 242.284 210.227 241.832 211.221C241.405 210.227 240.953 209.256 240.475 208.286C231.582 189.82 219.172 173.39 206.058 159.398C217.614 124.408 235.803 97.0405 241.832 88.4704ZM137.776 110.937C146.92 116.311 174.881 133.783 200.481 160.535C194.904 178.03 191.035 197.277 191.035 216.998C191.035 224.952 191.965 232.86 193.522 240.577C188.246 235.511 182.544 230.776 176.364 226.586C164.657 218.631 152.07 212.192 139.384 207.007C129.963 163.778 135.741 122.68 137.776 110.937ZM35.8049 189.962C48.4162 190.435 92.0535 193.276 135.038 210.322C137.927 222.845 142.072 235.535 147.95 247.703C159.431 271.52 179.529 290.98 198.27 305.232C182.895 299.266 165.034 294.649 146.669 294.839C136.444 294.957 126.37 296.117 116.698 297.987C67.0067 262.571 41.4574 204.166 35.8049 189.962ZM233.818 329.024C212.59 329.024 160.386 326.326 122.225 301.775C130.189 300.45 138.404 299.621 146.719 299.526C147.071 299.526 147.398 299.526 147.749 299.526C183.699 299.526 218.519 319.129 233.818 329.024ZM147.523 368.04C147.021 368.063 146.544 368.063 146.041 368.063C96.1735 368.063 49.798 342.187 37.7644 334.919C47.2104 328.953 78.1107 310.748 115.518 303.03C115.97 303.338 116.397 303.669 116.849 303.977C156.341 330.8 211.761 333.712 233.944 333.712C235.401 333.712 236.707 333.688 237.838 333.688C237.888 333.783 237.938 333.854 237.988 333.949C225.905 342.59 187.593 367.637 147.523 368.04ZM445.925 334.919C433.891 342.187 387.516 368.04 337.648 368.04C337.146 368.04 336.643 368.04 336.166 368.04C296.071 367.637 257.785 342.59 245.701 333.925C245.751 333.83 245.801 333.759 245.827 333.665C246.982 333.688 248.289 333.688 249.72 333.688C271.929 333.688 327.373 330.776 366.815 303.953C367.267 303.646 367.719 303.338 368.172 303.03C405.554 310.748 436.479 328.953 445.925 334.919ZM249.871 329.024C265.321 319.01 300.618 299.147 336.97 299.526C345.26 299.621 353.475 300.45 361.439 301.775C323.329 326.302 271.099 329.024 249.871 329.024ZM366.991 297.987C357.319 296.117 347.245 294.957 337.02 294.839C318.631 294.673 300.744 299.29 285.369 305.279C304.11 291.027 324.258 271.543 335.739 247.703C341.617 235.535 345.763 222.845 348.652 210.322C391.636 193.276 435.298 190.435 447.859 189.962C442.207 204.166 416.683 262.571 366.991 297.987Z" fill="url(#paint0_linear_116_512)"/>
</g>
</g>
<defs>
<linearGradient id="paint0_linear_116_512" x1="241.833" y1="81.96" x2="241.833" y2="372.751" gradientUnits="userSpaceOnUse">
<stop stop-color="#FF89CA"/>
<stop offset="1" stop-color="#80D7DA"/>
</linearGradient>
</defs>
</svg>
