<svg width="31" height="30" viewBox="0 0 31 30" fill="none" xmlns="http://www.w3.org/2000/svg">
<path d="M8.63104 14.375C7.87568 14.375 7.12771 14.2295 6.42984 13.9468C5.73198 13.6641 5.09788 13.2498 4.56375 12.7275C4.02963 12.2051 3.60594 11.5851 3.31687 10.9026C3.02781 10.2201 2.87903 9.48869 2.87903 8.75C2.87903 8.01131 3.02781 7.27986 3.31687 6.59741C3.60594 5.91495 4.02963 5.29485 4.56375 4.77252C5.09788 4.25019 5.73198 3.83586 6.42984 3.55318C7.12771 3.2705 7.87568 3.125 8.63104 3.125C10.1566 3.125 11.6196 3.71763 12.6983 4.77252C13.777 5.82742 14.3831 7.25816 14.3831 8.75C14.3831 10.2418 13.777 11.6726 12.6983 12.7275C11.6196 13.7824 10.1566 14.375 8.63104 14.375ZM9.27016 26.875C7.74463 26.875 6.28158 26.2824 5.20287 25.2275C4.12416 24.1726 3.51814 22.7418 3.51814 21.25C3.51814 19.7582 4.12416 18.3274 5.20287 17.2725C6.28158 16.2176 7.74463 15.625 9.27016 15.625C10.7957 15.625 12.2587 16.2176 13.3374 17.2725C14.4162 18.3274 15.0222 19.7582 15.0222 21.25C15.0222 22.7418 14.4162 24.1726 13.3374 25.2275C12.2587 26.2824 10.7957 26.875 9.27016 26.875ZM22.0524 14.375C21.2971 14.375 20.5491 14.2295 19.8512 13.9468C19.1533 13.6641 18.5192 13.2498 17.9851 12.7275C17.451 12.2051 17.0273 11.5851 16.7382 10.9026C16.4492 10.2201 16.3004 9.48869 16.3004 8.75C16.3004 8.01131 16.4492 7.27986 16.7382 6.59741C17.0273 5.91495 17.451 5.29485 17.9851 4.77252C18.5192 4.25019 19.1533 3.83586 19.8512 3.55318C20.5491 3.2705 21.2971 3.125 22.0524 3.125C23.5779 3.125 25.041 3.71763 26.1197 4.77252C27.1984 5.82742 27.8044 7.25816 27.8044 8.75C27.8044 10.2418 27.1984 11.6726 26.1197 12.7275C25.041 13.7824 23.5779 14.375 22.0524 14.375ZM22.0524 26.875C20.5269 26.875 19.0638 26.2824 17.9851 25.2275C16.9064 24.1726 16.3004 22.7418 16.3004 21.25C16.3004 19.7582 16.9064 18.3274 17.9851 17.2725C19.0638 16.2176 20.5269 15.625 22.0524 15.625C23.5779 15.625 25.041 16.2176 26.1197 17.2725C27.1984 18.3274 27.8044 19.7582 27.8044 21.25C27.8044 22.7418 27.1984 24.1726 26.1197 25.2275C25.041 26.2824 23.5779 26.875 22.0524 26.875ZM8.63104 11.875C9.47856 11.875 10.2914 11.5458 10.8906 10.9597C11.4899 10.3737 11.8266 9.5788 11.8266 8.75C11.8266 7.9212 11.4899 7.12634 10.8906 6.54029C10.2914 5.95424 9.47856 5.625 8.63104 5.625C7.78353 5.625 6.97072 5.95424 6.37144 6.54029C5.77215 7.12634 5.43548 7.9212 5.43548 8.75C5.43548 9.5788 5.77215 10.3737 6.37144 10.9597C6.97072 11.5458 7.78353 11.875 8.63104 11.875ZM9.27016 24.375C10.1177 24.375 10.9305 24.0458 11.5298 23.4597C12.129 22.8737 12.4657 22.0788 12.4657 21.25C12.4657 20.4212 12.129 19.6263 11.5298 19.0403C10.9305 18.4542 10.1177 18.125 9.27016 18.125C8.42264 18.125 7.60984 18.4542 7.01055 19.0403C6.41127 19.6263 6.07459 20.4212 6.07459 21.25C6.07459 22.0788 6.41127 22.8737 7.01055 23.4597C7.60984 24.0458 8.42264 24.375 9.27016 24.375ZM22.0524 11.875C22.8999 11.875 23.7127 11.5458 24.312 10.9597C24.9113 10.3737 25.248 9.5788 25.248 8.75C25.248 7.9212 24.9113 7.12634 24.312 6.54029C23.7127 5.95424 22.8999 5.625 22.0524 5.625C21.2049 5.625 20.3921 5.95424 19.7928 6.54029C19.1935 7.12634 18.8569 7.9212 18.8569 8.75C18.8569 9.5788 19.1935 10.3737 19.7928 10.9597C20.3921 11.5458 21.2049 11.875 22.0524 11.875ZM22.0524 24.375C22.8999 24.375 23.7127 24.0458 24.312 23.4597C24.9113 22.8737 25.248 22.0788 25.248 21.25C25.248 20.4212 24.9113 19.6263 24.312 19.0403C23.7127 18.4542 22.8999 18.125 22.0524 18.125C21.2049 18.125 20.3921 18.4542 19.7928 19.0403C19.1935 19.6263 18.8569 20.4212 18.8569 21.25C18.8569 22.0788 19.1935 22.8737 19.7928 23.4597C20.3921 24.0458 21.2049 24.375 22.0524 24.375Z" fill="#220953"/>
</svg>
