<svg xmlns="http://www.w3.org/2000/svg" xmlns:xlink="http://www.w3.org/1999/xlink" width="300" zoomAndPan="magnify" viewBox="0 0 224.87999 225" height="300" preserveAspectRatio="xMidYMid meet" version="1.0"><defs><clipPath id="03bb2d5c2e"><path d="M 46 44.679688 L 179.644531 44.679688 L 179.644531 180.355469 L 46 180.355469 Z M 46 44.679688 " clip-rule="nonzero"/></clipPath></defs><g clip-path="url(#03bb2d5c2e)"><path fill="#e71111" d="M 155.128906 56.066406 C 156.1875 56.066406 157.21875 56.195312 158.203125 56.4375 L 155.851562 58.785156 C 155.613281 58.765625 155.371094 58.757812 155.128906 58.757812 C 149.507812 58.757812 144.949219 63.316406 144.949219 68.9375 C 144.949219 74.558594 149.507812 79.113281 155.128906 79.113281 C 160.75 79.113281 165.304688 74.558594 165.304688 68.9375 C 165.304688 68.722656 165.300781 68.507812 165.285156 68.296875 L 167.648438 65.9375 C 167.875 66.898438 168 67.902344 168 68.9375 C 168 76.042969 162.238281 81.808594 155.128906 81.808594 C 148.019531 81.808594 142.257812 76.042969 142.257812 68.9375 C 142.257812 61.828125 148.019531 56.066406 155.128906 56.066406 Z M 124.957031 83.003906 C 127 81.785156 129.644531 82.453125 130.863281 84.5 C 132.082031 86.542969 131.414062 89.1875 129.367188 90.402344 L 120.535156 95.683594 C 119.472656 96.316406 118.25 96.441406 117.144531 96.125 L 111.203125 94.550781 L 112.050781 103.652344 L 122.816406 107.28125 C 124.410156 107.816406 125.484375 109.191406 125.710938 110.75 L 127.988281 126.660156 C 128.328125 129.015625 126.691406 131.203125 124.335938 131.542969 C 121.980469 131.882812 119.792969 130.25 119.453125 127.890625 L 117.554688 114.601562 L 112.972656 113.054688 C 113.109375 114.441406 113.277344 115.429688 112.519531 116.734375 L 102.761719 135.035156 C 101.640625 137.132812 99.03125 137.921875 96.9375 136.804688 C 94.839844 135.683594 94.046875 133.074219 95.167969 130.976562 L 104.378906 113.699219 C 103.621094 105.949219 102.78125 96.976562 102.023438 89.226562 C 101.730469 86.269531 104.496094 83.859375 107.417969 84.636719 L 117.675781 87.355469 Z M 137.355469 134.511719 L 115.332031 134.511719 C 114.097656 134.511719 113.097656 135.511719 113.097656 136.742188 L 113.097656 148.28125 L 93.308594 148.28125 C 92.074219 148.28125 91.074219 149.28125 91.074219 150.515625 L 91.074219 162.050781 L 71.285156 162.050781 C 70.050781 162.050781 69.050781 163.050781 69.050781 164.285156 L 69.050781 175.824219 L 49.261719 175.824219 C 48.027344 175.824219 47.027344 176.824219 47.027344 178.054688 C 47.027344 179.289062 48.027344 180.289062 49.261719 180.289062 L 71.285156 180.289062 C 72.515625 180.289062 73.515625 179.289062 73.515625 178.054688 L 73.515625 166.519531 L 93.308594 166.519531 C 94.539062 166.519531 95.539062 165.519531 95.539062 164.285156 L 95.539062 152.746094 L 115.332031 152.746094 C 116.5625 152.746094 117.5625 151.746094 117.5625 150.515625 L 117.5625 138.976562 L 137.355469 138.976562 C 138.585938 138.976562 139.585938 137.976562 139.585938 136.742188 C 139.585938 135.511719 138.585938 134.511719 137.355469 134.511719 Z M 90.539062 75.304688 C 90.585938 76.140625 91.105469 76.914062 91.933594 77.246094 C 93.074219 77.703125 94.371094 77.152344 94.828125 76.007812 L 96.792969 71.148438 C 97.335938 69.796875 96.453125 68.3125 95.03125 68.113281 L 89.839844 67.382812 C 88.621094 67.214844 87.496094 68.066406 87.328125 69.285156 C 87.203125 70.164062 87.617188 70.996094 88.3125 71.453125 L 73.503906 80.003906 C 72.4375 80.617188 72.070312 81.976562 72.683594 83.039062 C 73.292969 84.105469 74.652344 84.472656 75.71875 83.859375 Z M 81.621094 70.785156 C 81.164062 71.929688 79.867188 72.484375 78.722656 72.027344 C 77.894531 71.691406 77.375 70.917969 77.328125 70.082031 L 62.507812 78.636719 C 61.445312 79.25 60.085938 78.882812 59.472656 77.820312 C 58.863281 76.753906 59.230469 75.394531 60.292969 74.785156 L 75.105469 66.230469 C 74.40625 65.773438 73.996094 64.941406 74.117188 64.0625 C 74.285156 62.84375 75.410156 61.992188 76.628906 62.160156 L 81.824219 62.890625 C 83.246094 63.089844 84.128906 64.574219 83.585938 65.925781 Z M 105.746094 66.25 C 109.464844 64.796875 113.65625 66.632812 115.109375 70.355469 C 116.5625 74.074219 114.722656 78.265625 111.003906 79.71875 C 107.285156 81.171875 103.09375 79.332031 101.640625 75.613281 C 100.1875 71.894531 102.023438 67.703125 105.746094 66.25 Z M 87.523438 104.628906 C 88.855469 106.59375 91.550781 107.109375 93.515625 105.777344 L 98.785156 102.203125 C 98.476562 98.9375 98.164062 95.675781 97.847656 92.410156 L 88.671875 98.636719 C 86.707031 99.96875 86.191406 102.667969 87.523438 104.628906 Z M 87.707031 110.300781 L 79.804688 115.023438 C 78.742188 115.652344 77.519531 115.777344 76.417969 115.464844 L 70.472656 113.886719 L 71.324219 122.988281 L 82.089844 126.617188 C 83.683594 127.152344 84.757812 128.53125 84.980469 130.085938 L 87.257812 145.996094 C 87.597656 148.351562 85.964844 150.539062 83.609375 150.878906 C 81.253906 151.21875 79.066406 149.585938 78.726562 147.230469 L 76.824219 133.9375 L 72.246094 132.394531 C 72.382812 133.777344 72.550781 134.765625 71.792969 136.070312 L 62.035156 154.371094 C 60.914062 156.46875 58.304688 157.261719 56.207031 156.140625 C 54.109375 155.019531 53.320312 152.410156 54.4375 150.316406 L 63.652344 133.035156 C 62.890625 125.285156 62.054688 116.3125 61.296875 108.5625 C 61.003906 105.609375 63.765625 103.199219 66.691406 103.976562 L 76.949219 106.691406 L 82.402344 103.429688 C 82.582031 104.722656 83.050781 105.992188 83.828125 107.136719 C 84.820312 108.597656 86.179688 109.667969 87.707031 110.300781 Z M 65.015625 85.585938 C 68.734375 84.132812 72.929688 85.972656 74.382812 89.691406 C 75.832031 93.410156 73.996094 97.601562 70.277344 99.054688 C 66.558594 100.507812 62.363281 98.671875 60.910156 94.953125 C 59.460938 91.230469 61.296875 87.039062 65.015625 85.585938 Z M 46.792969 123.96875 C 48.128906 125.929688 50.824219 126.449219 52.789062 125.113281 L 58.058594 121.539062 C 57.746094 118.273438 57.433594 115.011719 57.117188 111.746094 L 47.941406 117.972656 C 45.980469 119.308594 45.460938 122.003906 46.792969 123.96875 Z M 178.941406 52.671875 C 179.410156 52.203125 179.175781 51.402344 178.523438 51.261719 L 174.382812 50.371094 C 174.054688 50.300781 173.8125 50.058594 173.738281 49.726562 L 172.847656 45.585938 C 172.707031 44.9375 171.90625 44.699219 171.4375 45.171875 L 164.882812 51.726562 C 164.675781 51.933594 164.59375 52.207031 164.65625 52.496094 L 165.328125 55.625 L 157.300781 63.652344 C 156.632812 63.375 155.898438 63.222656 155.128906 63.222656 C 151.972656 63.222656 149.414062 65.78125 149.414062 68.9375 C 149.414062 72.089844 151.972656 74.648438 155.128906 74.648438 C 158.285156 74.648438 160.839844 72.089844 160.839844 68.9375 C 160.839844 68.191406 160.699219 67.480469 160.4375 66.828125 L 168.488281 58.78125 L 171.617188 59.457031 C 171.902344 59.515625 172.175781 59.4375 172.382812 59.230469 Z M 155.128906 48.90625 C 144.066406 48.90625 135.097656 57.875 135.097656 68.9375 C 135.097656 80 144.066406 88.964844 155.128906 88.964844 C 166.191406 88.964844 175.15625 79.996094 175.15625 68.9375 C 175.15625 66.972656 174.875 65.078125 174.347656 63.285156 C 173.550781 63.726562 172.648438 63.953125 171.734375 63.941406 C 172.207031 65.523438 172.464844 67.199219 172.464844 68.9375 C 172.464844 78.511719 164.703125 86.273438 155.128906 86.273438 C 145.554688 86.273438 137.792969 78.511719 137.792969 68.9375 C 137.792969 59.363281 145.554688 51.601562 155.128906 51.601562 C 156.882812 51.601562 158.574219 51.859375 160.167969 52.34375 C 160.164062 51.429688 160.394531 50.53125 160.839844 49.734375 C 159.03125 49.195312 157.113281 48.90625 155.128906 48.90625 Z M 155.128906 48.90625 " fill-opacity="1" fill-rule="evenodd"/></g></svg>