<svg xmlns="http://www.w3.org/2000/svg" xmlns:xlink="http://www.w3.org/1999/xlink" width="300" zoomAndPan="magnify" viewBox="0 0 224.87999 225" height="300" preserveAspectRatio="xMidYMid meet" version="1.0"><defs><clipPath id="ceb67bcd5f"><path d="M 23.285156 41.734375 L 201.691406 41.734375 L 201.691406 183.410156 L 23.285156 183.410156 Z M 23.285156 41.734375 " clip-rule="nonzero"/></clipPath></defs><g clip-path="url(#ceb67bcd5f)"><path fill="#cb6ce6" d="M 201.445312 68.972656 C 201.410156 68.054688 201.121094 67.597656 200.082031 67.605469 C 197.085938 67.617188 194.089844 67.507812 191.09375 67.5 C 190.25 67.5 189.871094 67.328125 189.878906 66.359375 C 189.886719 65.042969 189.746094 63.71875 189.367188 62.4375 C 189.191406 61.828125 188.921875 61.300781 188.195312 61.304688 C 187.535156 61.308594 187.421875 60.96875 187.390625 60.390625 C 187.304688 58.824219 187.175781 57.261719 187.015625 55.703125 C 186.828125 53.867188 186.613281 52.035156 186.101562 50.253906 C 185.910156 49.597656 185.636719 49.007812 184.78125 49.015625 C 182.429688 49.027344 180.078125 49.023438 177.726562 49.011719 C 177.148438 49.007812 176.988281 49.253906 177.128906 49.792969 C 177.589844 51.515625 177.585938 53.316406 177.925781 55.046875 C 178.210938 56.511719 177.546875 57.191406 176.484375 57.855469 C 176.324219 57.457031 176.429688 57.125 176.488281 56.792969 C 176.699219 55.628906 176.902344 54.464844 177.121094 53.300781 C 177.167969 53.046875 177.199219 52.804688 176.933594 52.660156 C 176.601562 52.484375 176.542969 52.804688 176.382812 52.96875 C 175.949219 53.414062 175.855469 53.980469 175.765625 54.550781 C 175.203125 58.167969 174.878906 61.808594 174.726562 65.464844 C 174.707031 66.007812 174.617188 66.335938 173.996094 66.292969 C 173.457031 66.253906 173.246094 66.578125 173.234375 67.0625 C 173.222656 67.507812 173.230469 67.957031 173.230469 68.582031 C 172.90625 68.058594 173.261719 67.59375 172.894531 67.179688 C 172.789062 67.472656 172.617188 67.726562 172.628906 67.972656 C 172.664062 68.75 172.21875 68.765625 171.628906 68.757812 C 164.414062 68.652344 157.199219 68.570312 149.984375 68.472656 C 149.621094 68.46875 149.234375 68.554688 148.882812 68.359375 C 149.261719 67.578125 149.089844 67.25 148.199219 67.207031 C 147.230469 67.160156 146.289062 66.917969 145.277344 67.027344 C 144.714844 67.085938 144.269531 67.070312 143.992188 67.554688 C 143.566406 68.289062 142.960938 68.453125 142.15625 68.445312 C 134.699219 68.351562 127.242188 68.289062 119.785156 68.222656 C 117.875 68.207031 117.664062 68.019531 117.488281 66.0625 C 117.472656 65.855469 117.476562 65.644531 117.460938 65.4375 C 117.292969 62.976562 117.953125 60.652344 118.617188 58.328125 C 118.667969 58.148438 118.617188 57.894531 118.976562 58.046875 C 119.8125 58.402344 120.105469 57.800781 120.328125 57.191406 C 120.582031 56.511719 120.65625 55.734375 121.027344 55.140625 C 121.296875 54.714844 121.554688 54.410156 121.339844 53.90625 C 120.792969 52.636719 120.785156 51.292969 120.691406 49.941406 C 120.539062 47.691406 119.648438 45.726562 118.011719 44.113281 C 116.332031 42.457031 114.371094 41.738281 111.996094 41.875 C 110.496094 41.964844 109.179688 42.441406 108.039062 43.277344 C 105.785156 44.921875 104.519531 47.195312 104.453125 50.023438 C 104.394531 52.4375 103.167969 53.972656 101.054688 54.941406 C 100.296875 55.289062 99.554688 55.664062 98.808594 56.039062 C 98.742188 56.074219 98.597656 56.128906 98.691406 56.265625 C 98.90625 56.414062 99.101562 56.027344 99.316406 56.234375 C 99.226562 56.496094 98.820312 56.480469 98.820312 56.824219 C 99.085938 56.742188 99.328125 56.671875 99.574219 56.597656 C 98.761719 57.699219 97.777344 58.640625 96.75 59.414062 C 95.683594 60.214844 94.257812 60.308594 92.898438 59.371094 C 93.328125 60.289062 94.023438 60.546875 94.792969 60.707031 C 94.957031 60.742188 95.320312 60.527344 95.234375 60.996094 C 95.101562 61.742188 95.226562 62.242188 96.144531 61.792969 C 96.195312 62.226562 95.617188 62.292969 95.71875 62.792969 C 96.71875 62.742188 97.28125 61.597656 98.511719 61.691406 C 97.773438 62.46875 97.144531 63.152344 96.492188 63.808594 C 95.40625 64.902344 94.371094 66.042969 93.820312 67.507812 C 93.59375 68.117188 93.242188 68.25 92.65625 68.246094 C 90.183594 68.230469 87.707031 68.246094 85.234375 68.261719 C 84.800781 68.265625 84.449219 68.152344 84.074219 67.910156 C 83.417969 67.476562 82.722656 66.914062 81.992188 66.820312 C 80.980469 66.691406 79.914062 66.925781 78.878906 67.050781 C 78.546875 67.09375 78.035156 67.226562 78.0625 67.582031 C 78.148438 68.742188 77.320312 68.398438 76.78125 68.402344 C 69.253906 68.453125 61.726562 68.46875 54.199219 68.542969 C 53.269531 68.554688 52.582031 68.535156 52.542969 67.398438 C 52.542969 67.382812 52.441406 67.367188 52.371094 67.347656 C 52.328125 67.65625 52.289062 67.960938 52.25 68.261719 C 52.164062 68.117188 52.140625 67.976562 52.148438 67.839844 C 52.234375 66.421875 52.238281 66.394531 50.804688 66.160156 C 50.277344 66.074219 50.332031 65.734375 50.308594 65.40625 C 50.210938 63.980469 50.15625 62.550781 50.03125 61.128906 C 49.800781 58.5625 49.632812 55.984375 48.988281 53.476562 C 48.886719 53.085938 48.789062 52.5 48.269531 52.617188 C 47.78125 52.722656 48.023438 53.261719 48.085938 53.613281 C 48.542969 56.292969 48.820312 58.996094 49.082031 61.699219 C 49.109375 61.972656 49.363281 62.433594 48.964844 62.5 C 48.511719 62.570312 47.988281 62.453125 47.566406 62.261719 C 47.4375 62.203125 47.546875 61.621094 47.554688 61.277344 C 47.558594 61.101562 47.664062 61.019531 47.824219 61.105469 C 48.632812 61.53125 48.390625 60.878906 48.347656 60.558594 C 48.207031 59.488281 48.003906 58.429688 47.863281 57.359375 C 47.816406 56.992188 47.957031 56.453125 47.433594 56.480469 C 47 56.507812 47.175781 57.046875 47.15625 57.363281 C 47.003906 59.789062 46.980469 62.226562 46.546875 64.628906 C 46.589844 62.75 46.636719 60.871094 46.777344 58.996094 C 47 55.980469 47.203125 52.953125 47.949219 50.003906 C 48.152344 49.199219 47.945312 48.953125 47.117188 48.988281 C 45.382812 49.054688 43.636719 49.183594 41.914062 49.03125 C 39.496094 48.816406 39.230469 48.902344 38.667969 51.234375 C 38.617188 51.4375 38.574219 51.640625 38.539062 51.847656 C 38.085938 54.5625 37.753906 57.289062 37.640625 60.042969 C 37.617188 60.554688 37.726562 61.242188 36.871094 61.257812 C 36.09375 61.269531 35.796875 61.773438 35.621094 62.429688 C 35.257812 63.785156 35.15625 65.179688 35.085938 66.566406 C 35.050781 67.289062 34.8125 67.492188 34.101562 67.484375 C 31.382812 67.457031 28.664062 67.476562 25.945312 67.511719 C 23.550781 67.542969 23.324219 67.816406 23.527344 70.238281 C 23.53125 70.273438 23.53125 70.308594 23.535156 70.34375 C 23.570312 71.234375 23.96875 71.609375 24.921875 71.578125 C 27.882812 71.476562 30.847656 71.496094 33.808594 71.386719 C 34.8125 71.351562 35.261719 71.5625 35.1875 72.667969 C 35.105469 73.921875 35.367188 75.164062 35.65625 76.386719 C 35.773438 76.886719 35.921875 77.554688 36.519531 77.570312 C 37.6875 77.601562 37.757812 78.316406 37.777344 79.179688 C 37.789062 79.734375 37.867188 80.289062 37.933594 80.84375 C 38.269531 83.671875 38.46875 86.53125 39.359375 89.265625 C 39.722656 90.371094 41.089844 90.941406 42.132812 90.5625 C 42.429688 90.453125 42.09375 89.953125 42.53125 90.078125 C 43.988281 90.503906 43.988281 90.511719 45.289062 89.996094 C 45.441406 89.9375 45.472656 90.039062 45.515625 90.097656 C 46.03125 90.8125 46.789062 90.46875 47.445312 90.554688 C 48.152344 90.644531 48.226562 90.359375 48.105469 89.707031 C 47.652344 87.285156 47.195312 84.863281 47.101562 82.382812 C 47.382812 82.359375 47.324219 82.941406 47.746094 82.597656 C 48.261719 82.175781 48.601562 82.359375 48.617188 83 C 48.644531 83.953125 48.390625 84.859375 48.175781 85.777344 C 48.09375 86.117188 48.078125 86.515625 48.550781 86.609375 C 48.984375 86.691406 49.089844 86.308594 49.15625 86.027344 C 49.34375 85.214844 49.511719 84.394531 49.617188 83.566406 C 50.011719 80.523438 50.210938 77.464844 50.285156 74.398438 C 50.292969 74.015625 50.175781 73.398438 50.832031 73.519531 C 52.222656 73.777344 52.296875 73.035156 52.136719 72.003906 C 52.085938 71.679688 52.128906 71.339844 52.128906 71.007812 L 52.285156 70.96875 C 52.414062 71.207031 52.539062 71.445312 52.664062 71.679688 C 52.359375 70.488281 53.179688 70.617188 53.855469 70.617188 C 61.171875 70.585938 68.492188 70.558594 75.8125 70.535156 C 76.03125 70.535156 76.289062 70.445312 76.503906 70.703125 C 76.414062 70.890625 76.320312 71.070312 76.234375 71.253906 C 75.484375 72.890625 75.28125 74.488281 76.363281 76.109375 C 76.984375 77.039062 77.199219 78.15625 77.453125 79.242188 C 78.464844 83.503906 79.339844 87.804688 80.816406 91.945312 C 82.230469 95.921875 84.066406 99.703125 86.339844 103.269531 C 86.816406 104.019531 87.414062 104.453125 88.335938 104.199219 C 90.105469 103.714844 91.734375 103.019531 92.917969 101.5 C 94.164062 99.898438 95.25 98.203125 96.238281 96.4375 C 97.125 94.851562 97.933594 93.226562 98.75 91.285156 C 99.023438 92.179688 99.246094 92.796875 99.398438 93.429688 C 99.730469 94.816406 99.710938 96.277344 99.84375 97.667969 C 99.996094 99.277344 100.253906 100.878906 100.53125 102.457031 C 100.824219 104.132812 100.652344 105.519531 99.644531 106.949219 C 97.992188 109.292969 97.269531 112.121094 95.992188 114.671875 C 95.289062 116.074219 94.324219 116.976562 92.804688 117.425781 C 90.796875 118.015625 88.929688 118.933594 87.207031 120.164062 C 82.992188 123.167969 80.53125 127.46875 78.347656 131.980469 C 78.160156 132.375 78.132812 132.855469 78.082031 133.300781 C 77.824219 135.550781 77.601562 137.796875 77.09375 140.011719 C 76.335938 143.339844 76.25 146.695312 76.738281 150.078125 C 77.550781 155.699219 78.902344 161.207031 80.058594 166.757812 C 80.605469 169.378906 80.703125 170.664062 80.328125 171.828125 C 80.324219 171.855469 80.320312 171.878906 80.316406 171.90625 C 80.304688 171.945312 80.289062 171.980469 80.273438 172.019531 C 80.257812 172.046875 80.246094 172.074219 80.234375 172.101562 C 80.230469 172.113281 80.226562 172.121094 80.222656 172.132812 C 80.222656 172.128906 80.222656 172.128906 80.222656 172.128906 C 80.21875 172.128906 80.21875 172.128906 80.21875 172.128906 C 80.179688 172.191406 80.136719 172.242188 80.089844 172.292969 C 80.085938 172.296875 80.085938 172.296875 80.085938 172.300781 C 80.0625 172.367188 80.027344 172.421875 79.976562 172.46875 C 79.9375 172.515625 79.886719 172.546875 79.832031 172.566406 C 79.789062 172.59375 79.742188 172.617188 79.691406 172.632812 C 79.683594 172.632812 79.671875 172.636719 79.660156 172.636719 C 79.695312 172.644531 79.734375 172.652344 79.769531 172.660156 C 78.976562 172.785156 78.632812 173.179688 78.714844 174.003906 C 78.742188 174.265625 78.484375 174.570312 78.328125 174.839844 C 77.324219 176.53125 76.539062 178.390625 74.609375 179.34375 C 74.164062 179.5625 73.785156 180.03125 73.953125 180.644531 C 74.007812 180.84375 73.949219 180.921875 73.839844 181.074219 C 73.238281 181.898438 73.386719 182.433594 74.34375 182.628906 C 77.234375 183.21875 80.152344 183.261719 83.074219 182.878906 C 83.386719 182.839844 83.792969 182.8125 83.890625 182.503906 C 84.152344 181.71875 84.847656 181.769531 85.425781 181.636719 C 86 181.503906 86.585938 181.398438 87.109375 181.117188 C 87.382812 180.96875 87.738281 180.800781 87.660156 180.433594 C 87.308594 178.726562 87.171875 176.992188 87.050781 175.261719 C 87.042969 175.195312 86.992188 175.132812 86.957031 175.074219 C 85.972656 173.492188 85.769531 171.714844 85.898438 169.941406 C 86.167969 166.1875 86.546875 162.414062 87.472656 158.78125 C 88.648438 154.171875 88.78125 149.648438 87.667969 145.054688 C 87.292969 143.5 86.847656 141.957031 86.769531 140.34375 C 86.730469 139.476562 86.792969 138.558594 87.625 138.125 C 89.519531 137.128906 91.300781 135.785156 93.515625 135.578125 C 97 135.246094 100.125 134 103.015625 132.089844 C 104.496094 131.109375 105.996094 130.15625 107.421875 129.101562 C 108.984375 127.949219 110.796875 127.21875 112.621094 127.101562 C 114.398438 126.988281 116.089844 127.960938 117.605469 128.976562 C 118.792969 129.769531 119.925781 130.644531 121.121094 131.421875 C 123.722656 133.105469 126.328125 134.929688 129.480469 135.273438 C 132.257812 135.578125 134.847656 136.238281 137.324219 137.523438 C 138.703125 138.242188 139.261719 138.929688 139.074219 140.464844 C 138.960938 141.359375 138.808594 142.253906 138.609375 143.132812 C 137.714844 147.015625 136.855469 150.929688 137.539062 154.914062 C 138.175781 158.625 138.683594 162.34375 139.027344 166.085938 C 139.328125 169.347656 139.414062 172.5625 137.683594 175.53125 C 137.394531 176.03125 137.421875 176.625 137.539062 177.167969 C 137.65625 177.707031 137.578125 178.117188 137.292969 178.621094 C 136.390625 180.203125 136.773438 181.148438 138.355469 181.539062 C 139.277344 181.765625 140.386719 181.566406 140.929688 182.667969 C 140.964844 182.742188 141.109375 182.78125 141.210938 182.792969 C 144.335938 183.222656 147.453125 183.261719 150.5625 182.632812 C 150.996094 182.542969 151.378906 182.125 151.171875 181.828125 C 150.617188 181.035156 150.824219 179.851562 149.867188 179.292969 C 148.140625 178.28125 147.105469 176.707031 146.308594 174.9375 C 146.179688 174.644531 145.980469 174.351562 145.957031 174.0625 C 145.949219 174.050781 145.941406 174.042969 145.933594 174.03125 C 145.875 173.921875 145.820312 173.8125 145.765625 173.699219 C 145.746094 173.660156 145.726562 173.617188 145.703125 173.582031 C 145.691406 173.566406 145.679688 173.554688 145.667969 173.542969 C 145.566406 173.433594 145.453125 173.332031 145.335938 173.226562 C 144.796875 172.855469 144.175781 172.425781 144.03125 171.757812 C 144.023438 171.707031 144.019531 171.65625 144.019531 171.605469 C 143.859375 171.191406 144.128906 170.585938 144.148438 170.082031 C 144.164062 169.769531 144.207031 169.457031 144.28125 169.152344 C 145.042969 166.152344 145.816406 163.15625 146.585938 160.160156 C 147.503906 156.585938 148.324219 152.992188 148.945312 149.351562 C 149.644531 145.253906 148.894531 141.253906 148.277344 137.21875 C 147.835938 134.34375 147.625 131.53125 146.082031 128.871094 C 143.128906 123.777344 139.417969 119.628906 133.671875 117.859375 C 131.148438 117.082031 129.488281 115.671875 128.453125 113.351562 C 128.296875 113 128.097656 112.671875 127.945312 112.320312 C 126.8125 109.726562 125.484375 107.246094 123.707031 105.03125 C 123.382812 104.625 123.335938 104.195312 123.34375 103.675781 C 123.371094 101.644531 124.214844 99.695312 123.933594 97.632812 C 123.890625 97.316406 124.035156 96.933594 124.195312 96.640625 C 124.441406 96.1875 124.449219 95.808594 124.351562 95.28125 C 124.089844 93.863281 124.449219 92.515625 125.261719 91.148438 C 125.414062 91.488281 125.496094 91.675781 125.574219 91.863281 C 127.023438 95.230469 128.800781 98.40625 130.933594 101.398438 C 132.199219 103.167969 133.933594 104.027344 135.9375 104.535156 C 136.734375 104.738281 137.390625 104.539062 137.835938 103.824219 C 140.445312 99.632812 143.292969 95.570312 145.027344 90.894531 C 146.042969 88.15625 146.945312 85.378906 147.945312 82.632812 C 148.796875 80.292969 149.351562 77.820312 150.902344 75.769531 C 151.351562 75.171875 151.421875 74.449219 151.339844 73.675781 C 151.230469 72.640625 150.808594 71.703125 150.492188 70.730469 C 150.628906 70.695312 150.695312 70.660156 150.761719 70.664062 C 157.730469 70.730469 164.703125 70.816406 171.671875 70.859375 C 172.492188 70.867188 172.714844 71.1875 172.597656 71.917969 C 172.585938 72 172.644531 72.09375 172.699219 72.292969 C 172.871094 71.96875 172.992188 71.738281 173.179688 71.390625 C 173.179688 71.835938 173.242188 72.132812 173.167969 72.386719 C 172.882812 73.335938 173.125 73.792969 174.179688 73.59375 C 174.601562 73.515625 174.730469 73.726562 174.71875 74.121094 C 174.707031 74.605469 174.722656 75.097656 174.742188 75.582031 C 174.855469 78.890625 175.011719 82.199219 175.550781 85.46875 C 175.640625 86.007812 175.707031 86.773438 176.457031 86.601562 C 177.125 86.445312 176.703125 85.796875 176.625 85.359375 C 176.171875 82.75 176.003906 80.109375 175.75 77.285156 C 176.015625 77.941406 176.394531 77.863281 176.785156 77.792969 C 177.261719 77.699219 177.402344 77.96875 177.171875 78.3125 C 176.488281 79.332031 176.679688 80.484375 176.601562 81.589844 C 176.570312 82.039062 176.410156 82.757812 176.992188 82.8125 C 177.394531 82.847656 177.363281 82.101562 177.4375 81.679688 C 177.738281 79.996094 177.628906 78.253906 178.230469 76.339844 C 178.230469 76.78125 178.238281 76.953125 178.230469 77.125 C 178.050781 81.371094 177.667969 85.601562 176.839844 89.777344 C 176.703125 90.476562 176.84375 90.65625 177.511719 90.582031 C 178.152344 90.511719 179.0625 90.199219 179.375 90.335938 C 180.769531 90.941406 182.132812 90.3125 183.503906 90.535156 C 185.035156 90.78125 185.328125 90.414062 185.78125 88.902344 C 185.863281 88.636719 185.929688 88.363281 185.992188 88.09375 C 186.65625 85.132812 187.027344 82.128906 187.277344 79.105469 C 187.308594 78.714844 187.101562 78.078125 187.808594 78.066406 C 188.828125 78.050781 189.074219 77.320312 189.277344 76.574219 C 189.65625 75.1875 189.773438 73.761719 189.800781 72.332031 C 189.816406 71.648438 190.066406 71.46875 190.742188 71.484375 C 193.460938 71.558594 196.179688 71.570312 198.898438 71.597656 C 201.550781 71.625 201.539062 71.625 201.445312 68.972656 Z M 47.039062 81.464844 C 46.640625 78.710938 46.628906 76.21875 46.539062 73.730469 C 46.980469 76.203125 47.09375 78.695312 47.039062 81.464844 Z M 94.101562 73.683594 C 92.398438 75.484375 91.632812 77.699219 91.773438 80.082031 C 91.957031 83.164062 91.246094 85.917969 89.671875 88.527344 C 89.246094 89.226562 89.023438 90.046875 88.652344 90.960938 C 87.03125 88.386719 85.445312 85.949219 84.476562 83.179688 C 83.722656 81.015625 82.761719 78.925781 82.210938 76.6875 C 82.011719 75.875 82.203125 75.261719 82.777344 74.710938 C 83.328125 74.179688 83.847656 73.609375 84.4375 73.125 C 85.050781 72.628906 85.402344 72.050781 85.390625 71.253906 C 85.386719 70.828125 85.503906 70.523438 86.039062 70.527344 C 88.429688 70.542969 90.820312 70.535156 93.316406 70.535156 C 93.105469 71.046875 92.625 71.121094 92.691406 71.6875 C 93.164062 71.050781 94.199219 71.554688 94.378906 70.464844 C 95.050781 71.765625 94.949219 72.789062 94.101562 73.683594 Z M 143.894531 78.988281 C 142.035156 83.410156 139.585938 87.476562 136.652344 91.257812 C 135.976562 92.132812 135.953125 92.121094 135.550781 91.097656 C 134.992188 89.671875 134.441406 88.242188 133.703125 86.902344 C 132.808594 85.28125 132.359375 83.582031 132.425781 81.710938 C 132.519531 78.878906 131.617188 76.375 129.667969 74.277344 C 128.667969 73.203125 127.425781 72.515625 125.96875 72.660156 C 123.808594 72.878906 122.242188 71.890625 120.734375 70.445312 C 124.019531 70.445312 127.214844 70.433594 130.410156 70.449219 C 133.960938 70.464844 137.515625 70.519531 141.066406 70.515625 C 141.769531 70.515625 142.097656 70.679688 142.003906 71.4375 C 141.910156 72.179688 142.230469 72.734375 142.769531 73.265625 C 145.152344 75.609375 145.175781 75.941406 143.894531 78.988281 Z M 143.894531 78.988281 " fill-opacity="1" fill-rule="nonzero"/></g></svg>