<svg width="101" height="100" viewBox="0 0 101 100" fill="none" xmlns="http://www.w3.org/2000/svg">
<mask id="mask0_10_843" style="mask-type:luminance" maskUnits="userSpaceOnUse" x="12" y="58" width="77" height="23">
<path d="M12.5365 58.6667H88.5365V80.599H12.5365V58.6667Z" fill="white"/>
</mask>
<g mask="url(#mask0_10_843)">
<path d="M88.5365 70.2552C88.5365 70.5938 88.4792 70.9271 88.3542 71.2657C88.2344 71.599 88.0521 71.9323 87.8073 72.2605C87.5677 72.5938 87.2656 72.9219 86.9011 73.2396C86.5417 73.5625 86.1198 73.8802 85.6458 74.1927C85.1719 74.5052 84.6406 74.8073 84.0521 75.1042C83.4636 75.4011 82.8281 75.6875 82.1354 75.9688C81.4427 76.25 80.7031 76.5209 79.9115 76.7813C79.125 77.0417 78.2865 77.2917 77.4063 77.5313C76.5313 77.7657 75.6094 77.9948 74.6458 78.2084C73.6823 78.4219 72.6875 78.6198 71.6511 78.8073C70.6146 78.9948 69.5469 79.1667 68.4531 79.3282C67.3542 79.4844 66.2292 79.6302 65.0781 79.7605C63.9323 79.8855 62.7604 80 61.5677 80.099C60.3802 80.198 59.1719 80.2761 57.9531 80.3438C56.7292 80.4115 55.5 80.4584 54.2656 80.4896C53.0261 80.5261 51.7813 80.5417 50.5365 80.5417C49.2917 80.5417 48.0521 80.5261 46.8125 80.4896C45.5729 80.4584 44.3438 80.4115 43.125 80.3438C41.9063 80.2761 40.6979 80.198 39.5104 80.099C38.3177 80 37.1458 79.8855 35.9948 79.7605C34.849 79.6302 33.724 79.4844 32.625 79.3282C31.5261 79.1667 30.4636 78.9948 29.4271 78.8073C28.3906 78.6198 27.3958 78.4219 26.4323 78.2084C25.4688 77.9948 24.5469 77.7657 23.6667 77.5313C22.7865 77.2917 21.9531 77.0417 21.1667 76.7813C20.375 76.5209 19.6354 76.25 18.9427 75.9688C18.25 75.6875 17.6146 75.4011 17.0261 75.1042C16.4375 74.8073 15.9063 74.5052 15.4323 74.1927C14.9531 73.8802 14.5365 73.5625 14.1771 73.2396C13.8125 72.9219 13.5104 72.5938 13.2708 72.2605C13.0261 71.9323 12.8438 71.599 12.724 71.2657C12.599 70.9271 12.5365 70.5938 12.5365 70.2552C12.5365 69.9219 12.599 69.5834 12.724 69.25C12.8438 68.9115 13.0261 68.5782 13.2708 68.25C13.5104 67.9219 13.8125 67.5938 14.1771 67.2709C14.5365 66.948 14.9531 66.6302 15.4323 66.323C15.9063 66.0105 16.4375 65.7032 17.0261 65.4063C17.6146 65.1094 18.25 64.823 18.9427 64.5417C19.6354 64.2605 20.375 63.9948 21.1667 63.7344C21.9531 63.474 22.7865 63.224 23.6667 62.9844C24.5469 62.7448 25.4688 62.5209 26.4323 62.3073C27.3958 62.0938 28.3906 61.8907 29.4271 61.7032C30.4636 61.5157 31.5261 61.3438 32.625 61.1875C33.724 61.0261 34.849 60.8855 35.9948 60.7552C37.1458 60.625 38.3177 60.5105 39.5104 60.4167C40.6979 60.3177 41.9063 60.2344 43.125 60.1719C44.3438 60.1042 45.5729 60.0521 46.8125 60.0209C48.0521 59.9896 49.2917 59.974 50.5365 59.974C51.7813 59.974 53.0261 59.9896 54.2656 60.0209C55.5 60.0521 56.7292 60.1042 57.9531 60.1719C59.1719 60.2344 60.3802 60.3177 61.5677 60.4167C62.7604 60.5105 63.9323 60.625 65.0781 60.7552C66.2292 60.8855 67.3542 61.0261 68.4531 61.1875C69.5469 61.3438 70.6146 61.5157 71.6511 61.7032C72.6875 61.8907 73.6823 62.0938 74.6458 62.3073C75.6094 62.5209 76.5313 62.7448 77.4063 62.9844C78.2865 63.224 79.125 63.474 79.9115 63.7344C80.7031 63.9948 81.4427 64.2605 82.1354 64.5417C82.8281 64.823 83.4636 65.1094 84.0521 65.4063C84.6406 65.7032 85.1719 66.0105 85.6458 66.323C86.1198 66.6302 86.5417 66.948 86.9011 67.2709C87.2656 67.5938 87.5677 67.9219 87.8073 68.25C88.0521 68.5782 88.2344 68.9115 88.3542 69.25C88.4792 69.5834 88.5365 69.9219 88.5365 70.2552Z" fill="#4E725B"/>
</g>
<path d="M84.4792 69.5052C84.4792 69.7812 84.4271 70.0625 84.3177 70.3385C84.2083 70.6146 84.0469 70.8906 83.8281 71.1666C83.6146 71.4375 83.3438 71.7083 83.0208 71.9739C82.6979 72.2448 82.3229 72.5052 81.8958 72.7604C81.474 73.0208 81 73.2708 80.474 73.5156C79.9479 73.7656 79.3802 74 78.7604 74.2344C78.1458 74.4635 77.4844 74.6875 76.7761 74.9062C76.0729 75.1198 75.3281 75.3281 74.5417 75.526C73.7552 75.7239 72.9323 75.9062 72.0729 76.0833C71.2135 76.2604 70.3229 76.4271 69.3958 76.5833C68.474 76.7396 67.5208 76.8802 66.5417 77.0104C65.5573 77.1458 64.5573 77.2656 63.526 77.3698C62.5 77.4791 61.4531 77.5729 60.3906 77.651C59.3281 77.7344 58.25 77.8021 57.1615 77.8541C56.0677 77.9114 54.974 77.9479 53.8646 77.9791C52.7604 78.0052 51.651 78.0156 50.5365 78.0156C49.4271 78.0156 48.3177 78.0052 47.2135 77.9791C46.1042 77.9479 45.0052 77.9114 43.9167 77.8541C42.8281 77.8021 41.75 77.7344 40.6875 77.651C39.6198 77.5729 38.5781 77.4791 37.5469 77.3698C36.5208 77.2656 35.5208 77.1458 34.5365 77.0104C33.5573 76.8802 32.6042 76.7396 31.6823 76.5833C30.7552 76.4271 29.8646 76.2604 29.0052 76.0833C28.1458 75.9062 27.3229 75.7239 26.5365 75.526C25.75 75.3281 25.0052 75.1198 24.3021 74.9062C23.5938 74.6875 22.9323 74.4635 22.3177 74.2344C21.6979 74 21.1302 73.7656 20.6042 73.5156C20.0781 73.2708 19.6042 73.0208 19.1771 72.7604C18.7552 72.5052 18.3802 72.2448 18.0573 71.9739C17.7344 71.7083 17.4635 71.4375 17.25 71.1666C17.0313 70.8906 16.8698 70.6146 16.7604 70.3385C16.651 70.0625 16.5938 69.7812 16.5938 69.5052C16.5938 69.2239 16.651 68.9479 16.7604 68.6719C16.8698 68.3906 17.0313 68.1146 17.25 67.8437C17.4635 67.5677 17.7344 67.2969 18.0573 67.0312C18.3802 66.7656 18.7552 66.5052 19.1771 66.2448C19.6042 65.9896 20.0781 65.7344 20.6042 65.4896C21.1302 65.2448 21.6979 65.0052 22.3177 64.776C22.9323 64.5416 23.5938 64.3177 24.3021 64.1041C25.0052 63.8854 25.75 63.6823 26.5365 63.4844C27.3229 63.2864 28.1458 63.0989 29.0052 62.9219C29.8646 62.7448 30.7552 62.5781 31.6823 62.4219C32.6042 62.2708 33.5573 62.125 34.5365 61.9948C35.5208 61.8646 36.5208 61.7448 37.5469 61.6354C38.5781 61.5312 39.6198 61.4375 40.6875 61.3541C41.75 61.276 42.8281 61.2083 43.9167 61.151C45.0052 61.0989 46.1042 61.0573 47.2135 61.0312C48.3177 61.0052 49.4271 60.9896 50.5365 60.9896C51.651 60.9896 52.7604 61.0052 53.8646 61.0312C54.974 61.0573 56.0677 61.0989 57.1615 61.151C58.25 61.2083 59.3281 61.276 60.3906 61.3541C61.4531 61.4375 62.5 61.5312 63.526 61.6354C64.5573 61.7448 65.5573 61.8646 66.5417 61.9948C67.5208 62.125 68.474 62.2708 69.3958 62.4219C70.3229 62.5781 71.2135 62.7448 72.0729 62.9219C72.9323 63.0989 73.7552 63.2864 74.5417 63.4844C75.3281 63.6823 76.0729 63.8854 76.7761 64.1041C77.4844 64.3177 78.1458 64.5416 78.7604 64.776C79.3802 65.0052 79.9479 65.2448 80.474 65.4896C81 65.7344 81.474 65.9896 81.8958 66.2448C82.3229 66.5052 82.6979 66.7656 83.0208 67.0312C83.3438 67.2969 83.6146 67.5677 83.8281 67.8437C84.0469 68.1146 84.2083 68.3906 84.3177 68.6719C84.4271 68.9479 84.4792 69.2239 84.4792 69.5052Z" fill="#C97061"/>
<mask id="mask1_10_843" style="mask-type:luminance" maskUnits="userSpaceOnUse" x="39" y="12" width="21" height="23">
<path d="M39.1667 12.5989H59.1667V34.6666H39.1667V12.5989Z" fill="white"/>
</mask>
<g mask="url(#mask1_10_843)">
<path d="M58.3802 28.9947C56.5052 26.3541 60.0052 25.427 57.8958 22.6041C55.3906 20.427 56.8333 17.3229 54.9062 14.9322C53.224 12.8489 49.7552 12.651 47.5625 13.9583C43.9792 13.1458 42.6406 16.125 42.2969 19.1197C41.8698 20.4791 40.7604 21.4947 40.4583 22.9114C40.0625 24.1302 40.9635 25.2864 40.7552 26.4791C40.1615 27.7864 39.7708 29.25 40.4427 30.625C41.7187 35.4791 62.151 35.4687 58.3802 28.9947Z" fill="#AF7146"/>
</g>
<path d="M53.8646 30.4531C53.4323 30.1927 52.9167 29.9948 52.4427 29.8438C51.599 29.5833 51.0156 28.8125 50.9844 27.9323L50.8906 25.4896C50.8906 25.4896 49.1875 25.4063 48.3281 25.3281C48.099 25.375 47.4635 25.1719 47.4219 25.4323C47.2344 29.6146 47.776 28.7969 44.2188 30.724C45.7344 35.9271 52.2656 37.4948 53.974 31.2135C54.0417 31.224 53.9323 30.5052 53.8646 30.4531Z" fill="#FDAE9C"/>
<path d="M56.0521 39.0573C57.7135 38.7448 59.5521 37.2083 61.1302 37.4323C61.901 40.3281 62.6146 43.3438 63.1771 46.2813C66.4792 49.1875 68.0885 53.4688 70.75 56.9063C70.7917 56.9063 70.8281 56.9636 70.8073 57.0052C70.8333 57.0417 70.8073 57.099 70.7604 57.0833C70.3594 57.4583 69.151 59.6823 68.7864 59.5C65.2448 56.0208 61.0469 52.8958 58.776 48.3802C57.4427 45.6771 56.7396 42.2917 56.0521 39.2656C55.9635 39.2344 55.9375 39.099 56.0521 39.0573Z" fill="#FDAE9C"/>
<path d="M56.3854 39.6459L61.1302 37.4323C61.1302 37.4323 60.224 31.7344 54.2969 30.3021L49.3333 29.3854L44.3646 30.3021C38.4427 31.7344 37.5365 37.4323 37.5365 37.4323L42.2813 39.6459C42.0781 42.8386 42.7083 47.9688 42.7083 47.9688L42.6563 48.0729C40.0886 53.0313 40.8281 54.3906 40.0729 58.0677L40.0261 58.2813L49.3333 65.5156L58.1823 57.6771L58.0833 52.7865C57.4792 51.1302 56.7604 49.5156 55.9427 47.9584C55.9427 47.9584 56.5886 42.8386 56.3854 39.6459Z" fill="#FDAE9C"/>
<path d="M44.0677 31.4792C44.4427 31.5104 44.8177 31.5573 45.1875 31.6094C45.5625 31.6615 45.9323 31.724 46.3073 31.7917C46.6719 31.8698 47.0469 31.9479 47.4062 32.0729C47.4948 32.1042 47.5885 32.1354 47.6771 32.1875C47.6979 32.1979 47.7187 32.2084 47.7396 32.224C47.7656 32.2396 47.7864 32.2604 47.8073 32.2813C47.8385 32.3281 47.8594 32.3646 47.8906 32.4063C47.9896 32.5677 48.0833 32.7292 48.151 32.9167C48.1562 32.9323 48.1458 32.9479 48.1302 32.9531C48.1146 32.9584 48.0989 32.9531 48.0937 32.9375C48.0104 32.7761 47.9062 32.6146 47.7969 32.4688C47.7708 32.4323 47.7396 32.3854 47.7135 32.3594C47.7083 32.349 47.6927 32.3386 47.6719 32.3281C47.6562 32.3125 47.6354 32.3073 47.6198 32.2969C47.5364 32.2604 47.4531 32.2292 47.3646 32.2031C47.0104 32.099 46.6406 32.0209 46.276 31.9531C45.9062 31.875 45.5364 31.8125 45.1667 31.75L44.0573 31.5469C44.0417 31.5469 44.026 31.5261 44.0312 31.5104C44.0312 31.4896 44.0521 31.4792 44.0677 31.4792ZM50.1406 32.9531C50.1562 32.9636 50.1771 32.9584 50.1875 32.9427V32.9375C50.2708 32.7761 50.375 32.6198 50.4844 32.4688C50.5104 32.4323 50.5364 32.3906 50.5625 32.3594C50.5729 32.349 50.5885 32.3386 50.6042 32.3281C50.6198 32.3177 50.6406 32.3073 50.6614 32.2969C50.7396 32.2604 50.8281 32.2292 50.9167 32.2031C51.2708 32.099 51.6354 32.0209 52.0052 31.9531C52.3698 31.875 52.7396 31.8125 53.1094 31.7448L54.2187 31.5469C54.2344 31.5417 54.2448 31.5261 54.2448 31.5104C54.2448 31.4948 54.2292 31.4844 54.2135 31.4844C53.8333 31.5156 53.4635 31.5573 53.0885 31.6094C52.7135 31.6615 52.3437 31.724 51.9739 31.7917C51.6042 31.8698 51.2344 31.9427 50.8698 32.0677C50.7812 32.099 50.6927 32.1354 50.5989 32.1823C50.5781 32.1979 50.5573 32.2084 50.5364 32.224C50.5156 32.2396 50.4896 32.2552 50.4687 32.2813C50.4323 32.3281 50.4167 32.3646 50.3854 32.4011C50.2864 32.5677 50.1927 32.7292 50.125 32.9115C50.1198 32.9271 50.125 32.9479 50.1406 32.9531Z" fill="#C97061"/>
<path d="M61.1094 37.3177C61.1094 37.3177 60.3854 36.4062 60.2344 37.3177C60.0104 38.651 61.6719 39.526 61.6719 39.526L61.1094 37.3177Z" fill="#4E725B"/>
<path d="M53.7708 20.7396C53.6719 20.1302 53.5104 19.5156 53.3385 18.9219C53.1667 18.3333 52.9531 17.7552 52.6406 17.2187C52.375 16.7604 52.026 16.3333 51.6042 16.0052C51.1406 15.651 50.6146 15.4479 50.0521 15.3437C49.0573 15.151 47.9219 15.1198 47.0469 15.6302C47.0156 15.6458 46.9896 15.6666 46.9635 15.6823C46.2969 15.9739 45.7135 16.4635 45.2813 17.0312C44.6146 17.8906 44.276 18.9583 44.1875 20.0573C44.099 21.1927 44.2188 22.4531 44.776 23.4948C45.2969 24.4635 46.1667 25.2344 47.1719 25.6719C48.2656 26.151 49.4792 26.2552 50.6146 26.0208C51.6667 25.8073 52.8438 25.2969 53.3594 24.3125C53.625 23.8021 53.7552 23.2031 53.8177 22.6302C53.8906 22.0052 53.8802 21.3698 53.7708 20.7396Z" fill="#FDAE9C"/>
<path d="M64.4479 68.8958C58.7656 65.6927 51.3594 63.3229 45.1563 63.4479C44.8125 65.2916 44.6198 67.25 44.6406 69.1042C46.6615 69.4479 49.1198 69.2291 51.2865 69.4323C54.099 69.526 56.8854 70.0312 59.7031 69.9583C61.2865 69.7135 62.6667 71.3437 64.2344 70.7083C64.9688 70.4323 65.2448 69.2656 64.4479 68.8958Z" fill="#FDAE9C"/>
<path d="M46.0417 65.9166C45.9375 65.2239 45.7344 64.5521 45.474 63.901C45.9635 64.026 44.6354 62.5208 44.5521 62.4062C43.1823 60.8281 42.1615 55.0208 40.2604 54.4739C36.625 55.75 25.5365 60.5729 26.0052 65.5416C26.151 66.7969 26.5052 68.2656 27.6771 68.9479C30.1042 70.5521 34.4896 71.0625 37.7656 70.3854C39.9479 70.125 43.2917 69.7083 45.5 69.4323C46.1458 68.4739 46.1771 67.0677 46.0417 65.9166Z" fill="#4E725B"/>
<path d="M40.6406 52.724C40.6406 52.724 39.8281 55.25 40.0885 57.8438C40.0885 57.8438 41.0521 64.6458 49.6094 64.6458C49.724 64.6458 49.8438 64.6406 49.9583 64.6406C55.625 64.5052 59.7031 59.3958 58.4531 54.1458L58.1823 53.0104C58.1823 53.0104 49.0052 51.2656 40.6406 52.724Z" fill="#4E725B"/>
<path d="M41.5417 50.4896C41.5417 50.4896 51.0573 53.3229 57.1823 50.5364L58.1823 53.0573C58.1823 53.0573 51.5781 57.2083 40.6406 52.7552L41.5417 50.4896Z" fill="#27392E"/>
<path d="M71.026 65.3854C70.7396 61.9531 69.5 60.875 66.9635 59.7084C64.8437 58.8438 60.7604 54.8906 58.4531 54.25C56.6614 53.75 49.3854 59.5156 49.4739 59.7865C50.1771 61.9375 50.9219 64.3594 51.151 66.4115C56.1354 68.0313 60.3385 69.875 65.4739 70.8542C67.75 71.2917 70.2031 69.625 71.026 65.3854Z" fill="#4E725B"/>
<path d="M33.1302 59.0208C33.1302 59.1823 33.0729 59.3177 32.9583 59.4323C32.8437 59.5469 32.7083 59.5989 32.5469 59.5989C32.3906 59.5989 32.25 59.5469 32.1406 59.4323C32.026 59.3177 31.9688 59.1823 31.9688 59.0208C31.9688 58.8594 32.026 58.7239 32.1406 58.6146C32.25 58.5 32.3906 58.4427 32.5469 58.4427C32.7083 58.4427 32.8437 58.5 32.9583 58.6146C33.0729 58.7239 33.1302 58.8594 33.1302 59.0208Z" fill="#27392E"/>
<path d="M30.4792 56.3906C30.4792 56.5521 30.4219 56.6875 30.3073 56.8021C30.1979 56.9167 30.0625 56.974 29.901 56.974C29.7396 56.974 29.6042 56.9167 29.4896 56.8021C29.3802 56.6875 29.3229 56.5521 29.3229 56.3906C29.3229 56.2344 29.3802 56.099 29.4896 55.9844C29.6042 55.8698 29.7396 55.8125 29.901 55.8125C30.0625 55.8125 30.1979 55.8698 30.3073 55.9844C30.4219 56.099 30.4792 56.2344 30.4792 56.3906Z" fill="#27392E"/>
<path d="M42.7031 39.0573C42.4844 38.9791 42.25 38.9323 42.0312 38.8593C41.8125 38.7916 41.6042 38.7187 41.3906 38.6406C40.9583 38.4791 40.5312 38.3021 40.0989 38.1302C39.6823 37.9635 39.2604 37.8021 38.8333 37.6771C38.4271 37.5521 37.974 37.4166 37.5521 37.4323C37.5469 37.4323 37.5417 37.4323 37.5364 37.4323C37.526 37.4375 37.5104 37.4375 37.5104 37.4375L37.4896 37.5156C37.4896 37.5156 37.2656 38.5468 37.2083 39.1666C37.151 39.7552 37.0364 40.3333 36.9583 40.9166C36.8021 42.0677 36.6406 43.2135 36.4844 44.3594C36.4427 44.6875 36.3958 45.0104 36.3542 45.3385C36.3125 45.6406 36.25 45.9687 36.2812 46.2812C35.9792 46.5521 35.6927 46.8437 35.4271 47.151C34.8906 47.7708 34.4219 48.4479 34 49.151C33.0365 50.7656 32.2969 52.5104 31.3698 54.1458C31.099 54.6198 30.8125 55.0781 30.5312 55.5469C30.3906 55.776 30.2552 56.0104 30.1146 56.2448C29.9896 56.4635 29.849 56.6771 29.7448 56.9062C29.7031 56.9062 29.6719 56.9583 29.6979 57V57.0052C29.6979 57.0104 29.6927 57.0104 29.6927 57.0156C29.6771 57.0521 29.7135 57.0937 29.75 57.0833C29.8073 57.1666 29.8802 57.2448 29.9479 57.3229C30.0417 57.4375 30.1354 57.5521 30.2292 57.6614C30.4167 57.8854 30.6042 58.1094 30.7917 58.3333C30.9792 58.5573 31.1615 58.7864 31.3437 59.0104C31.4323 59.125 31.526 59.2396 31.6146 59.3541C31.6979 59.4583 31.75 59.5521 31.8906 59.526C31.8958 59.526 31.901 59.526 31.901 59.526C31.9219 59.526 31.9427 59.5156 31.9635 59.5C32.3698 59.1354 32.7396 58.7239 33.1146 58.3281C33.4844 57.9375 33.8542 57.5469 34.2292 57.1614C34.9531 56.4062 35.6875 55.6562 36.3906 54.8802C37.6354 53.5104 38.8802 52.1406 39.8333 50.5469C40.1042 50.1041 40.3437 49.6406 40.5573 49.1666C40.6667 48.9271 40.7708 48.6823 40.8698 48.4375C40.875 48.4166 40.8802 48.3958 40.8906 48.3802C40.901 48.401 40.9427 48.4114 40.9531 48.3802C41.0729 48.1094 41.1719 47.8437 41.2448 47.5521C41.3229 47.2552 41.3906 46.9479 41.4583 46.6458C41.5937 46.0521 41.724 45.4531 41.8437 44.8594C42.0885 43.651 42.3073 42.4323 42.4896 41.2135C42.5417 40.8593 42.5937 40.5104 42.6406 40.1562C42.6615 39.9896 42.6823 39.8177 42.7031 39.6458C42.7187 39.5208 42.7344 39.3958 42.7187 39.2656C42.8073 39.2343 42.8177 39.0989 42.7031 39.0573Z" fill="#FDAE9C"/>
<path d="M31.1927 56.2552C31.1927 56.4166 31.1354 56.5521 31.0261 56.6666C30.9115 56.7812 30.7761 56.8333 30.6146 56.8333C30.4531 56.8333 30.3177 56.7812 30.2031 56.6666C30.0938 56.5521 30.0365 56.4166 30.0365 56.2552C30.0365 56.0989 30.0938 55.9583 30.2031 55.8489C30.3177 55.7344 30.4531 55.6771 30.6146 55.6771C30.7761 55.6771 30.9115 55.7344 31.0261 55.8489C31.1354 55.9583 31.1927 56.0989 31.1927 56.2552Z" fill="#27392E"/>
<path d="M32.1354 56.8333C32.1354 56.9948 32.0833 57.1302 31.9687 57.2448C31.8542 57.3594 31.7187 57.4166 31.5573 57.4166C31.401 57.4166 31.2604 57.3594 31.151 57.2448C31.0364 57.1302 30.9792 56.9948 30.9792 56.8333C30.9792 56.6771 31.0364 56.5416 31.151 56.4271C31.2604 56.3125 31.401 56.2552 31.5573 56.2552C31.7187 56.2552 31.8542 56.3125 31.9687 56.4271C32.0833 56.5416 32.1354 56.6771 32.1354 56.8333Z" fill="#27392E"/>
<path d="M32.8229 57.5521C32.8229 57.7135 32.7656 57.8489 32.6562 57.9635C32.5417 58.0729 32.4062 58.1302 32.2448 58.1302C32.0833 58.1302 31.9479 58.0729 31.8333 57.9635C31.7239 57.8489 31.6667 57.7135 31.6667 57.5521C31.6667 57.3906 31.7239 57.2552 31.8333 57.1406C31.9479 57.0312 32.0833 56.9739 32.2448 56.9739C32.4062 56.9739 32.5417 57.0312 32.6562 57.1406C32.7656 57.2552 32.8229 57.3906 32.8229 57.5521Z" fill="#27392E"/>
<path d="M33.2969 58.4427C33.2969 58.6041 33.2448 58.7396 33.1302 58.8541C33.0156 58.9635 32.8802 59.0208 32.7188 59.0208C32.5625 59.0208 32.4219 58.9635 32.3125 58.8541C32.1979 58.7396 32.1406 58.6041 32.1406 58.4427C32.1406 58.2812 32.1979 58.1458 32.3125 58.0312C32.4219 57.9219 32.5625 57.8646 32.7188 57.8646C32.8802 57.8646 33.0156 57.9219 33.1302 58.0312C33.2448 58.1458 33.2969 58.2812 33.2969 58.4427Z" fill="#27392E"/>
<path d="M32.1198 59.0312C31.6042 58.3125 31.0625 57.1354 30.2761 56.8281C28.8386 56.7344 27.1354 56.2969 26.0521 57.5104C25.2813 57.5156 24.1719 58.3385 25.099 59C24.8802 59.1719 24.7865 59.4271 24.7188 59.6823C24.6042 59.3958 24.3594 59.0781 23.9844 59.2969C23.7396 59.4375 23.7813 60.3177 23.7136 60.6875C23.6302 61.151 23.599 61.1094 23.5573 61.7656C23.5 62.5625 24.1667 63.2604 24.9167 62.5417C25.3177 63.0469 26.1771 62.9792 26.4688 62.3958C26.8906 62.6771 27.5052 62.6406 27.8333 62.2344C29.1354 62.7656 31.3386 60.375 32.0625 59.4062C32.1146 59.375 32.1615 59.0989 32.1198 59.0312Z" fill="#FDAE9C"/>
<path d="M68.5781 59.0313C68.7812 58.6146 69.0104 58.2188 69.2656 57.8385C69.3906 57.651 69.5208 57.474 69.6562 57.2969C69.7187 57.2083 69.7865 57.125 69.8594 57.0417C69.9323 56.9583 70.0052 56.849 70.1094 56.8021C70.1458 56.7813 70.1927 56.7969 70.2135 56.8281C70.3698 56.7865 70.5365 56.776 70.7031 56.7656C70.9219 56.7552 71.1406 56.7448 71.3594 56.7344C71.7812 56.7188 72.2031 56.7031 72.625 56.6875C73.0104 56.6719 73.3437 56.7188 73.6823 56.9323C73.9635 57.1094 74.25 57.2917 74.5 57.5104C74.5365 57.5156 74.5729 57.5208 74.6094 57.526C74.7187 57.5469 74.8229 57.5729 74.9323 57.6042C75.1198 57.6615 75.3125 57.724 75.4844 57.8281C75.6458 57.9271 75.7865 58.0677 75.849 58.25C75.9115 58.4219 75.901 58.6302 75.8125 58.7865C75.7656 58.8646 75.6875 58.9479 75.599 59C75.6667 59.0417 75.7292 59.1146 75.7656 59.1563C75.8646 59.2708 75.9375 59.4063 75.9948 59.5417C76.0156 59.5885 76.0312 59.6354 76.0469 59.6823C76.1354 59.3958 76.2604 59.1042 76.5885 59.0938C77.0208 59.0833 77.3125 59.5469 77.4167 59.9167C77.5469 60.3802 77.5208 60.8802 77.5156 61.3542C77.5156 61.6094 77.5573 61.8542 77.4687 62.1042C77.401 62.3021 77.2865 62.4792 77.1146 62.6094C76.9323 62.7448 76.6927 62.7969 76.4635 62.7396C76.3385 62.7083 76.2031 62.6458 76.1302 62.5417C75.9844 62.724 75.776 62.8542 75.5365 62.8854C75.2969 62.9115 75.0417 62.8385 74.8437 62.6927C74.7344 62.6198 74.6458 62.526 74.5729 62.4167C74.5677 62.4115 74.5677 62.4063 74.5625 62.3958C74.5208 62.4271 74.4792 62.4479 74.4375 62.4688C74.224 62.5729 73.9792 62.6094 73.7396 62.5573C73.5312 62.5104 73.3333 62.3958 73.1823 62.2344C72.8906 62.3958 72.474 62.3281 72.1719 62.2031C71.7031 62.0052 71.2917 61.651 70.8906 61.3385C70.4635 60.9948 70.0469 60.6406 69.6406 60.2708C69.4427 60.0885 69.25 59.9063 69.0573 59.7135C68.9167 59.5781 68.7031 59.401 68.6354 59.2031C68.5833 59.1667 68.5469 59.099 68.5781 59.0313Z" fill="#FDAE9C"/>
<path d="M52.3021 61.349L51.1511 66.4115C51.1511 66.4115 48.3594 65.3021 45.4896 64.1719C42.6927 63.0677 39.9479 62.8073 39.4844 62.6771C38.9271 62.5 37.849 62.2032 37.2917 62.0834C36.8281 61.9844 36.5104 61.5521 36.0625 61.4271C35.6146 61.2969 35.1771 61.1407 34.7552 60.9219C34.6511 60.7865 34.5886 60.5313 34.7552 60.3177C34.8802 60.198 35.1042 59.9896 35.5208 59.8542C35.9479 59.7709 36.4531 59.8542 36.4531 59.8542C36.4531 59.8542 36.5886 59.6407 36.974 59.3959C37.1667 59.2761 37.8229 59.3959 37.8229 59.3959C37.8229 59.3959 37.9323 58.8021 39.1094 58.9115C39.9636 58.9948 39.6198 58.7448 40.5104 59.0209C41.4688 59.3177 43.5573 58.9167 43.5573 58.9167C43.5573 58.9167 44.8281 58.3438 45.25 58.2709C45.7396 58.1823 46.9063 58.1407 47.2917 58.5834C47.7917 59.1563 47.7969 60.1146 47.6615 60.7761C49.1354 60.9688 52.3021 61.349 52.3021 61.349Z" fill="#FDAE9C"/>
<path d="M46.1771 18.6771C46.4427 18.4896 46.7292 18.3386 47.0365 18.2188C47.224 18.1406 47.4219 18.0834 47.6302 18.0729C47.6771 18.0729 47.7344 18.0781 47.7604 18.1198C47.7969 18.1771 47.7344 18.2448 47.6771 18.2813C47.3542 18.4948 47.0156 18.6875 46.6615 18.8594C46.5 18.9427 46.224 19.099 46.0313 19.0521C45.776 18.9896 46.0938 18.7344 46.1771 18.6771Z" fill="#C97061"/>
<path d="M45.2865 20.8698C45.4167 21.0625 45.5156 21.2708 45.5781 21.4844C45.6458 21.6979 45.6771 21.901 45.6667 22.1042C45.6615 22.3021 45.6198 22.4844 45.5417 22.6406C45.4687 22.7969 45.3594 22.9219 45.224 23.0104C45.0885 23.099 44.9323 23.151 44.7552 23.1563C44.5833 23.1667 44.401 23.1354 44.2135 23.0625C44.0313 22.9844 43.849 22.8802 43.6823 22.7344C43.5104 22.5885 43.3594 22.4167 43.2344 22.224C43.1042 22.0313 43.0104 21.8281 42.9427 21.6146C42.8802 21.401 42.849 21.1927 42.8542 20.9948C42.8594 20.7917 42.901 20.6146 42.9792 20.4583C43.0573 20.3021 43.1615 20.1771 43.2969 20.0885C43.4375 19.9948 43.5885 19.9479 43.7656 19.9375C43.9427 19.9323 44.1198 19.9635 44.3073 20.0365C44.4948 20.1094 44.6719 20.2188 44.8438 20.3646C45.0104 20.5104 45.1615 20.6771 45.2865 20.8698Z" fill="#FDAE9C"/>
<path d="M54.6563 20.0365C54.8073 20.1094 54.9375 20.224 55.0417 20.3646C55.1458 20.5104 55.2188 20.6823 55.2604 20.875C55.2969 21.0677 55.3021 21.2708 55.2708 21.4844C55.2396 21.6979 55.1771 21.9063 55.0781 22.1094C54.9844 22.3073 54.8594 22.4844 54.7136 22.6406C54.5625 22.8021 54.4011 22.9219 54.224 23.0104C54.0469 23.099 53.8698 23.151 53.6927 23.1563C53.5156 23.1667 53.349 23.1354 53.1927 23.0573C53.0417 22.9844 52.9115 22.875 52.8073 22.7292C52.7031 22.5833 52.6302 22.4167 52.5938 22.2188C52.5521 22.026 52.5469 21.8229 52.5781 21.6094C52.6094 21.3958 52.6719 21.1875 52.7708 20.9896C52.8646 20.7865 52.9896 20.6094 53.1354 20.4531C53.2865 20.2969 53.4479 20.1719 53.625 20.0833C53.8021 19.9948 53.9792 19.9479 54.1563 19.9375C54.3385 19.9323 54.5 19.9635 54.6563 20.0365Z" fill="#FDAE9C"/>
<path d="M47.3958 20.6927C47.3333 20.9115 46.8594 20.9427 46.3281 20.7708C45.8021 20.5937 45.4271 20.2812 45.4896 20.0625C45.5521 19.8437 46.0313 19.8125 46.5573 19.9844C47.0833 20.1615 47.4583 20.4792 47.3958 20.6927ZM51.5521 20.099C51.0886 20.2656 50.7761 20.5625 50.8594 20.7604C50.9375 20.9531 51.375 20.9792 51.8386 20.8125C52.3021 20.6458 52.6094 20.349 52.5313 20.151C52.4531 19.9583 52.0104 19.9323 51.5521 20.099Z" fill="#C97061" fill-opacity="0.5"/>
<path d="M51.7292 18.6771C51.4427 18.4896 51.1406 18.3386 50.8281 18.2188C50.6302 18.1406 50.4271 18.0834 50.2187 18.0729C50.1719 18.0729 50.1146 18.0781 50.0937 18.1198C50.0625 18.1771 50.1302 18.2448 50.1927 18.2813C50.5365 18.4948 50.8958 18.6875 51.2604 18.8594C51.4323 18.9427 51.724 19.099 51.9115 19.0521C52.1615 18.9896 51.8229 18.7344 51.7292 18.6771Z" fill="#C97061"/>
<path d="M50.2813 16.9323C50.6823 17.0469 51.125 17.0781 51.4688 17.3177C52.2448 17.9583 52.6458 19.3021 53.5625 19.7448C55.0625 20.4687 53.0677 15.7396 51.7135 14.7812C49.099 13.4531 46.9167 15.4687 50.2813 16.9323Z" fill="#AF7146"/>
<path d="M47.4011 17.3542C46.8281 17.7135 46.2188 17.75 45.4115 17.5156C45.9896 17.1979 46.3073 16.526 46.7344 16.0417C46.0208 16.8542 45.0833 17.4687 44.0521 17.7864C45.0104 16.0208 46.8958 13.9687 49.0729 14.4427C49.3646 14.7864 48.75 16.0625 48.5156 16.2812C48.2292 16.5521 47.7344 17.151 47.4011 17.3542Z" fill="#AF7146"/>
<path d="M53.7344 33.5156L54.2969 30.3021L52.9844 29.8906C52.9844 29.8906 52.7708 37.4323 49.3333 37.4323C45.8958 37.4323 45.6823 29.8906 45.6823 29.8906L44.3646 30.3021L44.9323 33.5156C45.0989 34.4531 44.8489 35.4219 44.25 36.1667C43.2344 37.4323 41.7708 39.4948 41.8021 40.8646C41.8542 42.9635 42.3437 45.6458 42.3437 45.6458L42.7239 47.9583L43.9323 48.2344C47.4844 49.0521 51.1823 49.0521 54.7344 48.2344L55.9427 47.9583L56.3229 45.6458C56.3229 45.6458 56.8125 42.9635 56.8594 40.8646C56.8958 39.4948 55.4323 37.4323 54.4167 36.1667C53.8177 35.4219 53.5677 34.4531 53.7344 33.5156Z" fill="#27392E"/>
<path d="M37.6927 36.7812L37.9635 37.9375H39.1354L38.1667 38.6354L38.3229 40.1667L37.2656 38.7448C37.2656 38.7448 37.4323 37.5573 37.6927 36.7812Z" fill="#4E725B"/>
<path d="M52.7448 32.2188L53.9271 32.4219L53.7344 33.5156L52.5521 33.2344L52.7448 32.2188ZM45.9219 32.2188L44.7396 32.4219L44.9323 33.5156L46.1146 33.2344L45.9219 32.2188ZM55.9427 47.9583L56.1927 46.4375C51.1823 48.6719 42.5156 46.7031 42.5156 46.7031L42.7083 47.9688C50.0469 50.3385 55.9427 47.9583 55.9427 47.9583Z" fill="#AF7146"/>
<path d="M44.3542 22.3333C44.224 22.2865 44.1094 22.1927 44.026 22.0833C43.9375 21.974 43.8698 21.8437 43.849 21.6979C43.8385 21.625 43.8437 21.5469 43.8698 21.4688C43.8958 21.3958 43.9479 21.3177 44.0208 21.2813C44.099 21.2292 44.1771 21.2135 44.2604 21.2083C44.1823 21.1302 44.099 21.0573 44.0104 20.9948C43.8698 20.901 43.7083 20.8333 43.5365 20.8125C43.5156 20.8125 43.5052 20.7969 43.5052 20.776C43.5052 20.7604 43.5208 20.7448 43.5365 20.7448C43.724 20.7344 43.9167 20.7865 44.0781 20.8802C44.2448 20.974 44.3854 21.1042 44.5052 21.2448C44.5312 21.276 44.5312 21.3229 44.4948 21.3542C44.4792 21.3698 44.4583 21.375 44.4375 21.3698H44.4323C44.3125 21.3594 44.1927 21.3646 44.1042 21.4115C44.0208 21.4583 43.9792 21.5677 43.9948 21.6823C44.0208 21.9115 44.1667 22.1458 44.3802 22.2813C44.3958 22.2917 44.401 22.3073 44.3906 22.3229C44.3802 22.3333 44.3646 22.3385 44.3542 22.3333ZM54.1354 21.2708C54.0573 21.224 53.9687 21.2135 53.8854 21.2083C53.9583 21.125 54.0365 21.0521 54.1198 20.9896C54.2552 20.8958 54.4062 20.8281 54.5729 20.8125C54.5885 20.8073 54.6042 20.7969 54.6042 20.7813C54.6042 20.7656 54.5937 20.75 54.5729 20.75C54.3958 20.7344 54.2083 20.7865 54.0521 20.8802C53.8958 20.974 53.7604 21.1042 53.6562 21.2448C53.6406 21.2604 53.6354 21.2813 53.6406 21.3021C53.6406 21.3437 53.6823 21.375 53.724 21.3698H53.7292C53.849 21.3594 53.9687 21.3646 54.0573 21.4115C54.151 21.4583 54.1979 21.5573 54.2031 21.6667C54.2135 21.8958 54.0833 22.1458 53.8802 22.276C53.8646 22.2865 53.8594 22.3021 53.8646 22.3177C53.875 22.3385 53.8906 22.3438 53.9115 22.3385C54.0417 22.2865 54.1458 22.1875 54.224 22.0677C54.3021 21.9531 54.3542 21.8125 54.3542 21.6667C54.3542 21.5208 54.2812 21.349 54.1354 21.2708ZM46.9792 20.0208C47.1094 20.0625 47.25 20.0833 47.3906 20.0885C47.5312 20.0885 47.6719 20.0625 47.8021 20.0104C47.9323 19.9583 48.0573 19.875 48.1406 19.7656C48.151 19.7552 48.151 19.7396 48.1458 19.7292C48.1354 19.7135 48.1146 19.7135 48.099 19.724C47.9948 19.7917 47.8802 19.8438 47.7604 19.8802C47.6354 19.9115 47.5156 19.9271 47.3906 19.9271C47.2656 19.9271 47.1354 19.9063 47.0104 19.8854C46.8854 19.8594 46.7604 19.8281 46.6302 19.7969C46.6146 19.7917 46.599 19.7969 46.5937 19.8125C46.5833 19.8281 46.5885 19.849 46.6042 19.8594C46.7187 19.9271 46.8437 19.9844 46.9792 20.0208ZM51.6302 19.7969C51.5 19.8281 51.375 19.8646 51.25 19.8854C51.1198 19.9063 50.9948 19.9271 50.8698 19.9271C50.7448 19.9271 50.6198 19.9063 50.5 19.875C50.3802 19.8438 50.2656 19.7917 50.1615 19.7187C50.151 19.7083 50.1302 19.7083 50.1198 19.7187C50.1042 19.7344 50.1042 19.7552 50.1146 19.7708C50.2031 19.8802 50.3229 19.9583 50.4583 20.0104C50.5885 20.0625 50.7292 20.0885 50.8698 20.0885C51.0104 20.0833 51.151 20.0625 51.2812 20.0208C51.4115 19.9792 51.5365 19.9271 51.6562 19.8542C51.6667 19.849 51.6719 19.8333 51.6667 19.8229C51.6615 19.8073 51.6458 19.7969 51.6302 19.7969ZM48.474 21.2396C48.5573 21.1354 48.6667 21.0521 48.7865 21C48.9062 20.9531 49.0365 20.9219 49.1667 20.9219C49.2969 20.9219 49.4271 20.9479 49.5469 20.9948C49.6667 21.0417 49.776 21.125 49.8542 21.2344C49.8594 21.2448 49.875 21.25 49.8906 21.2448C49.9062 21.2396 49.9167 21.224 49.9062 21.2083C49.8594 21.0625 49.7448 20.9427 49.6094 20.8698C49.474 20.7917 49.3177 20.7604 49.1667 20.7604C49.0104 20.7656 48.8542 20.7969 48.724 20.875C48.5885 20.9479 48.474 21.0625 48.4115 21.2031C48.4062 21.2135 48.4115 21.2344 48.4219 21.2448C48.4375 21.2552 48.4583 21.2552 48.474 21.2396ZM50.875 22.3802C50.599 22.5104 50.3125 22.6094 50.0156 22.6719C49.7187 22.7292 49.4219 22.7604 49.1198 22.7448C48.8177 22.7344 48.5208 22.6875 48.2292 22.6042C47.9375 22.526 47.6562 22.4115 47.3854 22.2708C47.3698 22.2604 47.3542 22.2656 47.3437 22.2813C47.3333 22.2969 47.3333 22.3177 47.349 22.3281C47.6042 22.5052 47.8906 22.6458 48.1875 22.7396C48.4844 22.8385 48.7969 22.8906 49.1146 22.9063C49.4271 22.9167 49.7448 22.8854 50.0469 22.8073C50.349 22.724 50.6458 22.6042 50.9062 22.4323C50.9167 22.4271 50.9219 22.4063 50.9167 22.3958C50.9062 22.3802 50.8906 22.375 50.875 22.3802ZM49.125 26.224C49.3073 26.224 49.4896 26.2135 49.6667 26.1771C49.849 26.1406 50.0208 26.0938 50.1875 26.0104C50.1979 26.0052 50.2083 25.9896 50.2031 25.974C50.1979 25.9583 50.1823 25.9479 50.1667 25.9531C49.4792 26.1146 48.776 26.0937 48.0937 25.9063C48.0781 25.9063 48.0625 25.9115 48.0573 25.9271C48.0469 25.9427 48.0521 25.9635 48.0677 25.974C48.2292 26.0573 48.4062 26.1146 48.5833 26.1563C48.7604 26.1979 48.9427 26.2188 49.125 26.224ZM41.5312 38.7552C41.6094 39.224 41.6875 39.6979 41.776 40.1719C41.776 40.1875 41.7917 40.1979 41.8073 40.1927C41.8229 40.1927 41.8385 40.1771 41.8333 40.1615C41.7865 39.6823 41.7292 39.2083 41.6667 38.7344L41.4792 37.3073L41.2656 35.8854C41.1875 35.4167 41.1094 34.9427 41.026 34.4688C41.0208 34.4531 41.0052 34.4375 40.9844 34.4427C40.9687 34.4427 40.9531 34.4583 40.9531 34.4792C41.0052 34.9583 41.0625 35.4323 41.125 35.9063L41.3177 37.3333L41.3646 37.6563C41.3177 37.5677 41.276 37.474 41.2344 37.3854C41.1562 37.1979 41.0729 37.0156 41.0104 36.8229C40.9427 36.6354 40.8854 36.4427 40.8281 36.25C40.7708 36.0573 40.724 35.8594 40.6719 35.6667V35.6615C40.6719 35.6458 40.6562 35.6354 40.6406 35.6354C40.6198 35.6354 40.6042 35.6563 40.6042 35.6719C40.6146 35.8802 40.651 36.0833 40.6927 36.2865C40.7344 36.4844 40.7969 36.6823 40.8594 36.8802C40.9323 37.0729 41.0104 37.2604 41.1094 37.4427C41.1927 37.599 41.2917 37.7396 41.401 37.875L41.5312 38.7552ZM58.0312 35.6354C58.0156 35.6354 57.9948 35.6458 57.9896 35.6615V35.6667C57.9427 35.8594 57.8906 36.0573 57.8385 36.25C57.7812 36.4427 57.724 36.6354 57.651 36.8229C57.5937 37.0156 57.5104 37.1979 57.4323 37.3854C57.3906 37.474 57.349 37.5677 57.3021 37.6563L57.349 37.3333L57.5417 35.9063C57.6042 35.4323 57.6615 34.9583 57.7083 34.4792C57.7135 34.4635 57.6979 34.4479 57.6823 34.4427C57.6615 34.4375 57.6458 34.4531 57.6406 34.4688C57.5573 34.9427 57.474 35.4167 57.401 35.8854L57.1875 37.3073L56.9948 38.7344C56.9375 39.2083 56.8802 39.6823 56.8333 40.1615C56.8281 40.1771 56.8385 40.1927 56.8594 40.1927C56.875 40.1979 56.8906 40.1875 56.8906 40.1719C56.9792 39.6979 57.0573 39.224 57.1354 38.7552L57.2656 37.875C57.375 37.7396 57.474 37.599 57.5573 37.4427C57.651 37.2604 57.7344 37.0729 57.8073 36.8802C57.8698 36.6823 57.9323 36.4844 57.974 36.2865C58.0156 36.0833 58.0521 35.8802 58.0573 35.6719C58.0625 35.6563 58.0521 35.6406 58.0312 35.6354ZM36.9948 46.474C37.1094 46.5052 37.224 46.5417 37.3385 46.5885C37.4531 46.625 37.5573 46.6823 37.6719 46.7292H37.6771C37.6875 46.7344 37.7031 46.7344 37.7135 46.724C37.724 46.7083 37.724 46.6875 37.7083 46.6771C37.5208 46.5052 37.2865 46.3854 37.0417 46.3177C36.9167 46.2813 36.7917 46.2552 36.6615 46.2448C36.5365 46.2292 36.4115 46.2292 36.2812 46.25C36.2656 46.25 36.2552 46.2604 36.25 46.276C36.25 46.2969 36.2604 46.3125 36.2812 46.3177C36.401 46.3385 36.526 46.3594 36.6406 46.3854C36.7604 46.4115 36.8802 46.4375 36.9948 46.474ZM27.1042 60.0729C27.0573 59.9688 27.0312 59.8646 26.9583 59.75C26.9271 59.6979 26.875 59.6406 26.8021 59.6094C26.7344 59.5781 26.6615 59.5781 26.5937 59.5833C26.4635 59.6042 26.3437 59.6615 26.25 59.7396C26.151 59.8229 26.0781 59.9323 26.0365 60.0573C25.9948 60.1771 25.9948 60.3073 26.0052 60.4219C26.026 60.6615 26.0833 60.875 26.125 61.099C26.1354 61.1406 26.1458 61.1823 26.1562 61.2292C26.0625 60.9271 25.9687 60.6302 25.875 60.3333C25.8073 60.1146 25.7135 59.8646 25.4896 59.7188C25.3854 59.6458 25.2396 59.6042 25.1042 59.6354C24.9792 59.6615 24.875 59.7292 24.7969 59.8177C24.7917 59.8021 24.7917 59.7865 24.7917 59.7708C24.7865 59.7188 24.776 59.6615 24.7604 59.6042C24.7396 59.5521 24.7187 59.4948 24.6875 59.4427C24.6823 59.4375 24.6719 59.4271 24.6615 59.4271C24.6406 59.4271 24.625 59.4427 24.6198 59.4583C24.6146 59.5208 24.6146 59.5729 24.6198 59.6302C24.6198 59.6823 24.625 59.7396 24.6302 59.7917C24.6406 59.8438 24.6458 59.901 24.6562 59.9531C24.6615 59.9688 24.6667 59.9896 24.6667 60.0052C24.6406 60.0625 24.6198 60.1198 24.6094 60.1823C24.5833 60.3021 24.5833 60.4271 24.5885 60.5417C24.6094 60.7812 24.6458 61.0052 24.6771 61.2292C24.7396 61.6823 24.8073 62.1406 24.8854 62.5885C24.8854 62.6094 24.901 62.6198 24.9219 62.6198C24.9427 62.6198 24.9531 62.599 24.9531 62.5833C24.9167 62.125 24.8646 61.6667 24.8177 61.2135C24.7969 60.9844 24.7552 60.7552 24.7448 60.5365C24.7344 60.3177 24.7604 60.0938 24.8958 59.9427C24.9635 59.8646 25.0469 59.8073 25.1354 59.7917C25.2292 59.7708 25.3229 59.7917 25.4062 59.849C25.5781 59.9531 25.6667 60.1667 25.7396 60.375C25.8958 60.8073 26.0573 61.2396 26.224 61.6667C26.2292 61.6771 26.2396 61.6823 26.25 61.6823C26.3073 61.9323 26.3646 62.1771 26.4219 62.4271C26.4271 62.4427 26.4427 62.4531 26.4583 62.4531C26.4792 62.4479 26.4948 62.4323 26.4896 62.4115C26.4219 61.9635 26.3437 61.5156 26.2656 61.0729C26.2344 60.8542 26.1771 60.625 26.1562 60.4115C26.151 60.3021 26.1562 60.1979 26.1875 60.1042C26.2187 60.0156 26.276 59.9271 26.3542 59.8646C26.4271 59.8021 26.5208 59.7552 26.6146 59.7396C26.7135 59.7292 26.7812 59.7552 26.8333 59.8385C26.8854 59.9167 26.9219 60.0313 26.9687 60.1302L27.1042 60.4427C27.2917 60.8542 27.474 61.2708 27.6719 61.6771C27.6771 61.6927 27.6927 61.6979 27.7083 61.6927C27.724 61.6875 27.7344 61.6719 27.7292 61.6562C27.5677 61.2292 27.401 60.8073 27.2344 60.3906L27.1042 60.0729ZM29.2344 60.7135C29.1562 60.6458 29.0729 60.599 28.9792 60.5729C28.9062 60.5521 28.8281 60.5469 28.7552 60.5469C28.7344 60.474 28.7135 60.3958 28.6927 60.3177C28.6667 60.224 28.6406 60.125 28.5885 60.0365C28.5365 59.9427 28.4583 59.8542 28.349 59.8073C28.2448 59.7604 28.1094 59.7708 28.0104 59.8177C27.9115 59.8646 27.8333 59.9323 27.7604 60.0104C27.625 60.1667 27.5521 60.3854 27.5625 60.5885C27.5677 60.7917 27.599 60.974 27.6302 61.1667C27.6927 61.5417 27.7812 61.9115 27.8958 62.276C27.901 62.2917 27.9219 62.3021 27.9375 62.3021C27.9583 62.2969 27.9687 62.276 27.9635 62.2604C27.8854 61.8906 27.8177 61.5156 27.7708 61.1458C27.75 60.9583 27.7187 60.7656 27.7135 60.5885C27.7135 60.4115 27.7708 60.2448 27.8854 60.1198C27.9948 59.9896 28.1615 59.8854 28.2917 59.9479C28.4323 60.0104 28.5052 60.1771 28.5625 60.3542C28.6719 60.7188 28.7865 61.0781 28.9062 61.4375C28.9115 61.4531 28.9271 61.4635 28.9427 61.4583C28.9635 61.4531 28.974 61.4375 28.9687 61.4219C28.9115 61.1615 28.8437 60.9062 28.776 60.6458C28.8281 60.6667 28.8802 60.6823 28.9271 60.7083C29 60.7448 29.0677 60.7812 29.125 60.8333C29.1823 60.8854 29.2344 60.9427 29.276 61.0104C29.3125 61.0781 29.3437 61.1562 29.375 61.2396C29.375 61.25 29.3854 61.2604 29.401 61.2604C29.4167 61.2604 29.4323 61.25 29.4323 61.2344C29.4479 61.1406 29.4323 61.0417 29.401 60.9531C29.3646 60.8594 29.3073 60.776 29.2344 60.7135ZM25.5156 59.0781C25.7187 59.0938 25.9219 59.0677 26.1146 59.0365C26.4896 58.9688 26.8646 58.8594 27.2031 58.6719C27.4583 58.8438 27.7448 58.9688 28.0417 59.0208C28.3594 59.0729 28.6823 59.0521 28.9896 58.9688C29.0052 58.9688 29.0104 58.9531 29.0104 58.9375C29.0052 58.9219 28.9896 58.9062 28.974 58.9115C28.6719 58.9583 28.3646 58.9531 28.0677 58.8906C27.776 58.8229 27.4948 58.6979 27.2552 58.5156C27.2344 58.5 27.2031 58.4948 27.1719 58.5104C26.8333 58.6927 26.4687 58.8177 26.0885 58.8906C25.901 58.9323 25.7083 58.9635 25.5208 58.9635C25.3333 58.9635 25.1458 58.9271 24.9792 58.8333C24.9635 58.8281 24.9427 58.8333 24.9323 58.8438C24.9219 58.8594 24.9271 58.8802 24.9427 58.8958C25.1094 59.0156 25.3177 59.0677 25.5156 59.0781ZM73.2812 58.9635C73.6302 58.8802 73.9635 58.7448 74.2812 58.599C74.474 58.724 74.6771 58.8438 74.8958 58.9323C75.1198 59.026 75.3698 59.0938 75.625 59.0833C75.6354 59.0833 75.651 59.0729 75.651 59.0573C75.651 59.0365 75.6406 59.026 75.625 59.0208C75.3854 59 75.1615 58.9167 74.9479 58.8125C74.7344 58.7083 74.5312 58.5781 74.3281 58.4427C74.3073 58.4323 74.2812 58.4271 74.2552 58.4375C73.9219 58.5781 73.5885 58.7292 73.2448 58.8177C72.901 58.9115 72.5417 58.9323 72.1979 58.8281C72.1823 58.8229 72.1615 58.8281 72.1562 58.8438C72.151 58.8646 72.1562 58.8854 72.1719 58.8906C72.5156 59.0469 72.9167 59.0469 73.2812 58.9635ZM76.0417 60.6302C76.0417 60.6458 76.0521 60.6562 76.0677 60.6562C76.0833 60.6615 76.099 60.651 76.1042 60.6354V60.6302C76.125 60.5313 76.1406 60.4323 76.151 60.3333C76.1615 60.2396 76.1667 60.1406 76.1667 60.0417C76.1719 59.9427 76.1719 59.8438 76.1667 59.7448C76.1615 59.6458 76.151 59.5469 76.1354 59.4479V59.4427C76.1354 59.4323 76.125 59.4219 76.1094 59.4167C76.0885 59.4115 76.0729 59.4219 76.0677 59.4427C76.0469 59.5417 76.0312 59.6406 76.0208 59.7396C76.0104 59.8385 76.0104 59.9375 76.0052 60.0365C76.0052 60.1354 76.0052 60.2344 76.0104 60.3333C76.0156 60.4323 76.026 60.5313 76.0417 60.6302ZM76.1458 61.3594C76.0937 61.1563 75.9844 60.9896 75.8906 60.8229C75.7969 60.6562 75.7135 60.4844 75.6406 60.3073C75.6042 60.2188 75.5677 60.1302 75.5365 60.0365C75.5 59.9479 75.4583 59.849 75.3854 59.7604C75.3177 59.6719 75.1927 59.6094 75.0729 59.6146C74.9531 59.6146 74.849 59.6615 74.7604 59.7135C74.7135 59.7396 74.6719 59.7656 74.6302 59.7969C74.5937 59.8281 74.5469 59.8594 74.5104 59.9115C74.5052 59.9219 74.5052 59.9323 74.5 59.9375C74.4792 59.9062 74.4583 59.8698 74.4323 59.8385C74.4062 59.8125 74.375 59.776 74.3333 59.7552C74.2865 59.7344 74.2448 59.724 74.2083 59.7188C74.0573 59.6979 73.9062 59.7083 73.7604 59.75C73.6927 59.7708 73.6198 59.7969 73.5521 59.849C73.4792 59.901 73.4323 59.9792 73.4062 60.0469C73.3437 60.1771 73.2969 60.3125 73.2656 60.4531C73.25 60.5365 73.2396 60.625 73.2292 60.7135C73.2135 60.6719 73.1927 60.6302 73.1719 60.5833C73.1042 60.4219 73.0469 60.2552 73 60.0833C72.974 60 72.9583 59.8958 72.8854 59.8021C72.8125 59.7083 72.6875 59.6719 72.5781 59.6719C72.4687 59.6771 72.3698 59.7188 72.2812 59.7865C72.1979 59.8594 72.1458 59.9531 72.1146 60.0521C72.0573 60.25 72.0885 60.4479 72.1458 60.625C72.1979 60.7969 72.2656 60.9583 72.2969 61.1198C72.2448 61.1979 72.1979 61.2812 72.1719 61.375C72.1406 61.4792 72.1354 61.5885 72.151 61.6927C72.1562 61.7083 72.1719 61.7188 72.1875 61.7188C72.2083 61.7188 72.224 61.7031 72.224 61.6823C72.2135 61.5885 72.2292 61.4948 72.2604 61.4062C72.2917 61.3177 72.3437 61.2396 72.4062 61.1615C72.4167 61.151 72.4167 61.1354 72.4167 61.1198C72.3906 60.9323 72.3229 60.7604 72.2812 60.5885C72.2344 60.4219 72.2187 60.25 72.2604 60.0938C72.2865 60.0208 72.3281 59.9531 72.3802 59.9062C72.4375 59.8646 72.5104 59.8333 72.5833 59.8333C72.6562 59.8333 72.7187 59.8594 72.7604 59.9062C72.8021 59.9531 72.8229 60.0365 72.8437 60.125C72.8958 60.3021 72.9583 60.4792 73.0365 60.6458C73.0729 60.7292 73.1146 60.8125 73.1562 60.8906C73.1823 60.9375 73.2083 60.9844 73.2344 61.026C73.2448 61.1198 73.2552 61.2135 73.2812 61.3021C73.2812 61.3125 73.2865 61.3177 73.2969 61.3229C73.2812 61.4167 73.25 61.5208 73.2344 61.6198L73.1354 62.151C73.1302 62.1667 73.1406 62.1823 73.1562 62.1875C73.1719 62.1927 73.1927 62.1823 73.1927 62.1667L73.3385 61.6406L73.4062 61.3802C73.4271 61.2917 73.4427 61.1771 73.4062 61.0781C73.3854 61.0208 73.3646 60.974 73.3385 60.9271C73.3437 60.776 73.3646 60.6302 73.4062 60.4844C73.4427 60.3594 73.4844 60.2292 73.5469 60.1094C73.5729 60.0521 73.6042 60.0052 73.6458 59.9792C73.6875 59.9479 73.75 59.9219 73.8073 59.9062C73.9323 59.8646 74.0573 59.8542 74.1875 59.8698C74.25 59.8802 74.2812 59.8906 74.3229 59.9375C74.3594 59.9792 74.3854 60.0365 74.4115 60.0938C74.4375 60.1563 74.4583 60.2188 74.4792 60.2812C74.5052 60.4479 74.5521 60.6146 74.6094 60.776C74.6146 60.7917 74.6146 60.8021 74.6198 60.8177C74.5885 60.9323 74.6146 61.0312 74.6146 61.1198C74.6146 61.224 74.6146 61.3333 74.625 61.4427C74.6406 61.6615 74.6719 61.875 74.7135 62.0833C74.7187 62.099 74.7344 62.1094 74.75 62.1094C74.7656 62.1042 74.7812 62.0885 74.776 62.0729C74.7448 61.8646 74.7292 61.651 74.7292 61.4375C74.7292 61.3333 74.7292 61.2292 74.7344 61.1198C74.7344 61.0052 74.7135 60.8958 74.7448 60.8281C74.7552 60.8125 74.7552 60.7969 74.75 60.7812C74.6875 60.599 74.6458 60.4167 74.6198 60.2292C74.6094 60.1302 74.5937 60.0469 74.6354 60.0052C74.6771 59.9531 74.7656 59.8906 74.8385 59.849C74.9167 59.8021 75 59.7708 75.0729 59.7708C75.1458 59.7708 75.2135 59.8073 75.2656 59.8646C75.3646 59.9896 75.4167 60.1927 75.5 60.3698C75.5781 60.5469 75.6667 60.724 75.7604 60.8958C75.8594 61.0625 75.9687 61.2188 76.0156 61.3958C76.1198 61.75 76.0312 62.1458 76.1042 62.5417C76.1042 62.5573 76.1198 62.5729 76.1406 62.5677C76.1615 62.5677 76.1719 62.5469 76.1719 62.5312C76.125 62.1562 76.25 61.7656 76.1458 61.3594ZM63.1719 46.4062C63.0208 46.3854 62.8698 46.3854 62.7187 46.3958C62.5677 46.401 62.4167 46.4219 62.2656 46.4479C62.1146 46.4792 61.9687 46.5156 61.8229 46.5677C61.6771 46.6146 61.5365 46.6719 61.4062 46.7448C61.3906 46.7552 61.3854 46.7708 61.3906 46.7865C61.3906 46.8021 61.4115 46.8177 61.4323 46.8125C61.5781 46.776 61.7187 46.7344 61.8646 46.7031C62.0052 46.6667 62.151 46.6354 62.2969 46.6094C62.4427 46.5781 62.5885 46.5573 62.7344 46.5312C62.8802 46.5104 63.026 46.4896 63.1719 46.4688C63.1875 46.4688 63.1979 46.4531 63.2031 46.4427C63.2031 46.4219 63.1927 46.4062 63.1719 46.4062ZM70.8073 56.7344C70.6615 56.7552 70.5156 56.8021 70.3802 56.8594C70.2396 56.9167 70.1094 56.9896 69.9896 57.0781C69.8646 57.1667 69.75 57.2656 69.651 57.375C69.5521 57.4844 69.4635 57.6094 69.3958 57.7396C69.3906 57.7552 69.3906 57.7708 69.4062 57.7812C69.4167 57.7969 69.4427 57.7917 69.4531 57.7812C69.5521 57.6719 69.651 57.5729 69.7552 57.474C69.8594 57.3802 69.9687 57.2917 70.0833 57.2083C70.1979 57.125 70.3177 57.0521 70.4375 56.9844C70.5625 56.9167 70.6927 56.8542 70.8229 56.7969C70.8333 56.7917 70.8437 56.776 70.8437 56.7656C70.8385 56.7448 70.8229 56.7344 70.8073 56.7344ZM43.5521 58.8854C43.3177 58.9167 43.0885 58.9635 42.8594 59.0365C42.6354 59.1094 42.4167 59.2135 42.2135 59.3333C42.0104 59.4635 41.8177 59.6042 41.6406 59.7604C41.4635 59.9115 41.2917 60.0729 41.1302 60.2448C41.1198 60.2552 41.1198 60.276 41.1302 60.2917C41.1406 60.3073 41.1615 60.3073 41.1771 60.2969L41.7292 59.8698C41.9115 59.7292 42.099 59.5885 42.2969 59.474C42.4896 59.349 42.6927 59.25 42.9062 59.1667C43.1198 59.0833 43.3437 59.0156 43.5677 58.9479C43.5781 58.9427 43.5885 58.9271 43.5885 58.9167C43.5833 58.8958 43.5677 58.8854 43.5521 58.8854ZM46.9531 61.1302C46.9531 61.151 46.974 61.1667 46.9896 61.1667C47.0573 61.1562 47.1198 61.1354 47.1823 61.1146C47.2448 61.0885 47.3021 61.0573 47.3542 61.0208C47.4062 60.9844 47.4583 60.9479 47.5052 60.8958C47.5521 60.8542 47.5937 60.8021 47.625 60.7448C47.6302 60.7344 47.6302 60.724 47.625 60.7135C47.6198 60.6979 47.599 60.6927 47.5833 60.6979C47.526 60.724 47.474 60.7604 47.4219 60.7917C47.3646 60.8229 47.3177 60.8542 47.2656 60.8854C47.2135 60.9219 47.1667 60.9531 47.1146 60.9896C47.0625 61.026 47.0156 61.0573 46.9635 61.099C46.9583 61.1094 46.9531 61.1198 46.9531 61.1302ZM45.2344 62.5052C45.1406 62.5365 45.0521 62.5625 44.9635 62.5781C44.8698 62.5938 44.776 62.599 44.6875 62.5938C44.5937 62.5885 44.5052 62.5729 44.4167 62.5521C44.3281 62.526 44.2396 62.4896 44.151 62.4479C44.1406 62.4427 44.125 62.4427 44.1146 62.4531C44.099 62.4688 44.099 62.4896 44.1094 62.5052C44.1771 62.5833 44.2708 62.6406 44.3698 62.6823C44.4635 62.7292 44.5729 62.75 44.6771 62.7552C44.7865 62.7604 44.8958 62.75 44.9948 62.7135C45.0937 62.6823 45.1927 62.6302 45.2656 62.5573C45.276 62.5469 45.2812 62.5365 45.276 62.5208C45.2708 62.5052 45.25 62.5 45.2344 62.5052ZM40.1719 59.1354C40.0521 59.1615 39.9323 59.1979 39.8125 59.2292C39.7708 59.0938 39.6562 58.9896 39.5365 58.9375C39.4687 58.9062 39.3958 58.8854 39.3281 58.875C39.2552 58.8646 39.1823 58.8646 39.1094 58.8802C39.099 58.8802 39.0885 58.8906 39.0833 58.901C39.0781 58.9167 39.0833 58.9375 39.1042 58.9479C39.1667 58.974 39.2344 58.9896 39.2917 59.0156C39.3542 59.0365 39.4115 59.0573 39.4687 59.0833C39.526 59.1094 39.5781 59.1406 39.6302 59.1719C39.6615 59.1927 39.6927 59.2188 39.724 59.25C39.5312 59.3021 39.3385 59.3594 39.151 59.4167C38.9531 59.4792 38.7604 59.5469 38.5677 59.6198C38.5365 59.5573 38.4896 59.5052 38.4323 59.4688C38.3542 59.4115 38.2708 59.3802 38.1823 59.3594C38.099 59.3385 38.0104 59.3281 37.9271 59.3333C37.8385 59.3333 37.7552 59.3438 37.6719 59.3646C37.6562 59.3698 37.6458 59.3802 37.6458 59.3906C37.6406 59.4115 37.651 59.4323 37.6719 59.4323C37.7552 59.4479 37.8333 59.4583 37.9167 59.474C37.9948 59.4896 38.0729 59.5 38.1458 59.5208C38.2708 59.5469 38.3854 59.5833 38.474 59.6562C38.3698 59.6979 38.2604 59.7396 38.1562 59.7865C37.8542 59.9167 37.5625 60.0625 37.2812 60.2344C37.2396 60.1771 37.1927 60.125 37.1406 60.0833C37.0729 60.0208 37 59.974 36.9219 59.9323C36.8437 59.8958 36.7604 59.8594 36.6771 59.8385C36.5937 59.8177 36.5052 59.8073 36.4167 59.8073C36.4062 59.8125 36.3906 59.8177 36.3854 59.8333C36.3802 59.849 36.3854 59.8698 36.4062 59.875L36.6302 59.974C36.7031 60.0104 36.776 60.0417 36.849 60.0781C36.9219 60.1146 36.9896 60.1563 37.0573 60.1927L37.2083 60.2812C36.9062 60.474 36.625 60.6927 36.375 60.9427C36.3646 60.9531 36.3646 60.974 36.375 60.9896C36.3854 61.0052 36.4062 61.0052 36.4219 60.9948C36.6979 60.776 36.9844 60.5781 37.2865 60.401C37.5833 60.2292 37.8958 60.0677 38.2187 59.9323C38.5365 59.7917 38.8646 59.6667 39.1979 59.5469L40.1875 59.1927C40.2031 59.1875 40.2135 59.1719 40.2083 59.1562C40.2031 59.1406 40.1875 59.1302 40.1719 59.1354ZM49.151 65.5469L47.9792 65.0677L46.7969 64.6094C46.401 64.4635 46.0052 64.3177 45.6042 64.1771C45.5885 64.1719 45.5677 64.1823 45.5625 64.1979C45.5521 64.2135 45.5625 64.2344 45.5781 64.2448C45.9635 64.4167 46.3542 64.5833 46.7448 64.7448L47.9167 65.2188L49.099 65.6719C49.4948 65.8229 49.8906 65.9688 50.2917 66.1042C50.3073 66.1094 50.3229 66.1042 50.3281 66.0885C50.3385 66.0729 50.3281 66.0521 50.3125 66.0469C49.9271 65.875 49.5417 65.7083 49.151 65.5469ZM55.0469 67.9792C55 67.9635 54.9531 67.9635 54.9062 67.9583C54.8594 67.9583 54.8125 67.9583 54.7708 67.9635C54.724 67.9688 54.6771 67.9792 54.6354 67.9896C54.5885 68.0052 54.5469 68.0208 54.5052 68.0469C54.4948 68.0521 54.4896 68.0573 54.4844 68.0677C54.4792 68.0885 54.4896 68.1094 54.5104 68.1146C54.5573 68.125 54.6042 68.1302 54.651 68.1302C54.6979 68.1354 54.7448 68.1302 54.7865 68.125C54.8333 68.1198 54.8802 68.1094 54.9219 68.099C54.9687 68.0833 55.0104 68.0677 55.0521 68.0417C55.0625 68.0365 55.0677 68.0313 55.0677 68.0208C55.0729 68.0052 55.0625 67.9844 55.0469 67.9792Z" fill="#C97061"/>
<path d="M68.5937 63.4584C68.5885 63.474 68.5677 63.4792 68.5521 63.4688C67.3073 62.9011 65.9792 62.4792 64.6094 62.3698C63.9271 62.3177 63.2396 62.3438 62.5573 62.3959C61.8698 62.4427 61.1823 62.5157 60.4896 62.5209C59.7969 62.5261 59.0937 62.448 58.4219 62.2969C57.75 62.1615 57.0729 62.0469 56.3906 61.9375C55.0312 61.724 53.6667 61.5417 52.2969 61.3854C52.2812 61.3802 52.2656 61.3646 52.2656 61.3438C52.2708 61.3282 52.2865 61.3125 52.3021 61.3177C53.6771 61.4323 55.0469 61.5886 56.4115 61.7917C57.0937 61.8959 57.776 62.0104 58.4531 62.1407C59.125 62.2865 59.8021 62.3646 60.4896 62.3646C61.1719 62.3646 61.8594 62.2969 62.5469 62.2448C62.7969 62.2292 63.0521 62.2136 63.3073 62.2084C63.4792 62.125 63.651 62.0573 63.8333 62C64.0625 61.9271 64.2969 61.8802 64.5312 61.8386C64.7708 61.8125 65.0052 61.7917 65.2448 61.7969C65.4844 61.7969 65.724 61.8177 65.9583 61.8646C65.974 61.8698 65.9844 61.8854 65.9792 61.9011C65.9792 61.9167 65.9635 61.9271 65.9479 61.9271C65.7135 61.9219 65.4792 61.9219 65.25 61.9323C65.0156 61.9479 64.7865 61.9636 64.5573 62C64.3229 62.0313 64.099 62.0834 63.8698 62.1354C63.7917 62.1563 63.7135 62.1771 63.6302 62.2032C63.9635 62.2032 64.2917 62.2136 64.6198 62.2396C65.3125 62.3073 65.9948 62.4427 66.6562 62.6459C67.3177 62.8542 67.9583 63.1146 68.5781 63.4167C68.5937 63.4219 68.6042 63.4427 68.5937 63.4584ZM56.526 55.9063C56.6562 55.7292 56.7917 55.5625 56.9375 55.4115C57.0833 55.2552 57.2344 55.1042 57.401 54.974C57.5625 54.8386 57.7396 54.7188 57.9219 54.6094C58.1042 54.5 58.2969 54.4063 58.4948 54.3177C58.5104 54.3125 58.5156 54.2969 58.5156 54.2813C58.5104 54.2657 58.4948 54.2552 58.474 54.2604C58.2604 54.3073 58.0521 54.3854 57.8542 54.4896C57.6562 54.5886 57.474 54.7136 57.2969 54.849C57.1302 54.9896 56.9687 55.1459 56.8281 55.3177C56.6875 55.4896 56.5625 55.6719 56.4687 55.8698C56.4635 55.8854 56.4635 55.9011 56.4792 55.9115C56.4948 55.9219 56.5156 55.9219 56.526 55.9063ZM41.7969 55.2084C41.6562 55.0729 41.5 54.9532 41.3385 54.8542C41.1719 54.7552 41 54.6719 40.8177 54.599C40.6406 54.5313 40.4583 54.474 40.2656 54.4427C40.25 54.4427 40.2344 54.4479 40.2292 54.4636C40.224 54.4844 40.2292 54.5 40.25 54.5104C40.4219 54.5782 40.5937 54.6511 40.7656 54.7292C40.9323 54.8125 41.0937 54.9011 41.25 54.9948C41.4115 55.0886 41.5573 55.1979 41.7031 55.3125C41.849 55.4271 41.9792 55.5573 42.1042 55.6927V55.6979C42.1146 55.7084 42.1302 55.7084 42.1406 55.7032C42.1562 55.6927 42.1615 55.6719 42.1562 55.6615C42.0573 55.4948 41.9375 55.3386 41.7969 55.2084ZM41.4583 63C41.0208 62.8959 40.5781 62.7917 40.1354 62.6979C39.6875 62.6042 39.2448 62.5261 38.7969 62.4532C37.901 62.3073 36.9948 62.2188 36.0885 62.1875C35.6302 62.1823 35.1719 62.2136 34.7187 62.2761C34.3437 62.3334 33.9687 62.4115 33.599 62.5C33.4583 62.4584 33.3073 62.4271 33.1615 62.4063C32.9896 62.3802 32.8177 62.375 32.6458 62.375C32.474 62.375 32.3021 62.3854 32.1302 62.4115C31.9635 62.4375 31.7917 62.474 31.6302 62.5261C31.6146 62.5313 31.6042 62.5469 31.6042 62.5625C31.6094 62.5782 31.625 62.5938 31.6458 62.5938C31.8125 62.5782 31.9792 62.5625 32.1458 62.5521C32.3125 62.5469 32.4792 62.5365 32.6458 62.5365C32.8125 62.5365 32.9792 62.5417 33.1458 62.5469C33.2187 62.5469 33.2865 62.5521 33.3542 62.5573C32.4844 62.7813 31.6302 63.0625 30.8021 63.4115C30.7865 63.4167 30.776 63.4375 30.7865 63.4584C30.7917 63.474 30.8125 63.4844 30.8281 63.474C31.25 63.3125 31.6823 63.1719 32.1094 63.0417C32.5417 62.9115 32.9792 62.7917 33.4167 62.6875C33.8542 62.5834 34.2969 62.4948 34.7396 62.4323C35.1875 62.375 35.6354 62.3386 36.0833 62.349C36.9844 62.375 37.8802 62.4636 38.776 62.5886C39.6719 62.7136 40.5573 62.8802 41.4479 63.0573C41.4635 63.0625 41.4792 63.0521 41.4844 63.0365C41.4844 63.0209 41.474 63 41.4583 63Z" fill="#27392E"/>
</svg>
